<?xml version="1.0" encoding="UTF-8"?>
<svg id="Layer_2" data-name="Layer 2" xmlns="http://www.w3.org/2000/svg" xmlns:xlink="http://www.w3.org/1999/xlink" viewBox="0 0 185.09 99.24">
  <defs>
    <style>
      .cls-1 {
        fill: none;
      }

      .cls-2 {
        clip-path: url(#clippath-1);
      }

      .cls-3 {
        fill: #fff;
      }

      .cls-4 {
        clip-path: url(#clippath);
      }
    </style>
    <clipPath id="clippath">
      <rect class="cls-1" y="0" width="185.09" height="99.24"/>
    </clipPath>
    <clipPath id="clippath-1">
      <rect class="cls-1" y="0" width="185.09" height="99.24"/>
    </clipPath>
  </defs>
  <g id="Layer_1-2" data-name="Layer 1">
    <g id="Artwork_133" data-name="Artwork 133">
      <g class="cls-4">
        <g class="cls-2">
          <path class="cls-3" d="M66.32,5.09c.68.03,1.3-.02,1.85-.17,1.22.11,2.35-.04,3.38-.44.33-.13.76-.36,1.28-.68.41-.25.74-.42,1-.5.47-.15.84-.23,1.11-.24.52-.02.98-.07,1.38-.14.23-.04.65-.02,1.27.06,1.94.25,4.05.86,5.72,1.91.61.39.98.62,1.1.71,1.32.94,2.29,1.75,2.9,2.43.59.66,1.29,1.61,2.09,2.87.35.56.66,1.24.92,2.04.52,1.61.89,2.9,1.1,3.88.09.44.16,1.22.2,2.34.04,1.11.17,2.5.68,3.64.32.72.45,1.18.43,1.83,0,.25.3.38.48.2.18-.19.32-.44.43-.77.02-.05.05-.1.09-.14.14-.11.22-.18.17-.38-.06-.25-.03-.49.07-.72.03-.06.12-.05.13.01l.09.35s.04.05.06.05c.03,0,.05-.03.06-.06.05-.93.21-1.87.49-2.82.04-.14.07-.29.09-.44.16-1.35.29-2.26.42-2.72.49-1.83.93-3.29,1.32-4.36.46-1.25.89-2.4,1.31-3.43.72-1.77,1.74-3.51,3.04-4.67.29-.26.76-.57,1.38-.91,2.65-1.46,6.31-.81,8.96.31.46.19,1.19.6,2.19,1.21.84.51,1.7,1.06,2.58,1.65.32.21.67.46,1.05.75.69.52,1.49.87,2.39,1.06.42.09.8,0,1.17-.26.02-.01.02-.04.01-.06l-.02-.04s-.04-.03-.06-.02l-.29.17s-.08.03-.12.02c-1.3-.28-2.36-.96-3.17-2.02l1.76.16,1.05.29c.08.02.17.03.26.02.72-.07,1.41-.2,2.07-.39,1.4-.42,2.69-.99,3.85-1.72.64-.4,1.14-.59,1.88-.93,1.43-.67,2.98-.74,4.58-.71.5,0,1.35.14,1.95.47.79.44,1.29.75,1.51.94.51.45,1.23,1.2,2.17,2.27.65.74,1.24,1.3,1.81,1.98.81.97,1.98,1.84,3.04,2.5,1,.62,2.97,1.21,3.98.44.09-.07.06-.22-.06-.24l-1.07-.2s0,0-.01,0c-1.63-.66-3.08-1.8-3.97-3.32-.12-.2-.25-.4-.38-.6l1.76,1.15c.35.48.8.77,1.33.88,1.21.25,2.58.27,4.09.08.8-.1,1.47-.33,2.35-.55.56-.14,1.27-.18,1.68-.14.2.02.62-.02,1.25-.1,1.53-.21,3.06-.04,4.59.5,1.46.52,1.79,2.01,2.62,3.1,0,0,.01.01.02.02l.55.46s0,0,.01.01c.24.34.55.65.94.94.02.02.05.03.08.04l1.21.43c.1.03.18-.07.13-.16l-.26-.45s0-.08.03-.1l.38-.17,1.45.77c.46.44.98.78,1.55,1.04.23.11.47.22.69.35.05.03.11.04.17.04.14-.02.28,0,.42.03.76.17,1.47.2,2.24.44,1.26.41,2.06.69,2.38.84.97.45,1.79.91,2.06,1.73.34,1.03.57,1.66.69,1.9.31.58.57,1.12.78,1.63.36.88.75,1.41,1.15,2.34.21.48.43.9.67,1.26.08.11.14.24.18.37.15.43.36.95.64,1.55.17.37.35.89.54,1.56.31,1.09.72,2.22,1.06,3.38.05.16.13.41.25.77.62,1.84.8,3.63,1.2,6.24.23,1.52.38,3.49.47,4.68,0,.05,0,.09,0,.14-.06.49-.02.92.09,1.3.03.11.05.23.04.35-.02.29-.02.5,0,.64.13.66.14,1.29.05,1.88-.01.07-.01.15,0,.22.1,1.64.1,2.73.01,3.28-.07.42-.03.76-.08,1.16-.09.78-.13,1.39-.13,1.83,0,.22-.01.38-.04.47-.1.4-.09.74-.22,1.17-.12.41-.33,1.04-.64,1.89-.02.06-.05.13-.09.18-.75,1.17-1.2,1.85-1.36,2.05-.72.9-1.67,1.62-2.54,2.47-.66.65-1.14.95-1.94,1.62-.3.25-.65.51-1.06.79-1.91,1.29-4.05,1.98-6.43,2.08-.01,0-.1-.02-.25-.05-.04,0-.07.02-.07.06.05.3.21.37.25.55-.55,0-1.06-.09-1.55-.3-.01-.03-.02-.05,0-.08,0-.03.03-.05.06-.06.32-.17.58-.45.77-.84.02-.04.03-.07.04-.11.08-.36.19-.63.33-.83.23-.31.28-.65.17-.98-.01-.04-.02-.09,0-.13l.29-1.71s.01-.04.02-.06l.3-.62s.02-.05.03-.08c.2-.9.3-1.47.31-1.71.07-1.61.11-2.66.12-3.16,0-.7-.08-1.84-.27-3.42-.15-1.28-.18-1.69-.29-3.03-.06-.74-.15-1.49-.28-2.27-.21-1.31-.29-2.73-.63-4.08-.15-.6-.23-1.17-.24-1.7,0-.1-.02-.2-.04-.3-.12-.41-.18-.88-.19-1.41,0-.05-.02-.1-.04-.14-.04-.06-.09-.33-.17-.81-.36-2.3-.52-3.63-.9-5.51-.27-1.35-.43-2.16-.46-2.41-.04-.35-.06-.52-.07-.53-.06-.33-.23-1.25-.51-2.76-.07-.38-.23-.82-.3-1.15-.08-.38-.33-1.38-.75-3-.14-.53-.26-1.27-.35-2.23-.02-.2-.07-.5-.16-.9-.04-.2-.08-.5-.1-.91-.02-.3-.07-.71-.17-1.24-.16-.85-.11-1.68.14-2.49.04-.12.05-.25.04-.38-.02-.22-.03-.43-.04-.65-.46.59-.71,1.23-.77,1.94-.02.28-.1.73-.24,1.35-.16.75-.26,1.66-.28,2.74-.02.84.03,1.53.15,2.08.2.93.42,1.79.58,2.84.5,3.31.94,6.08,1.31,8.31.08.48.31,2.06.7,4.74.22,1.55.5,3.12.82,4.72.1.51.22,1.31.25,1.69.06.7.37,1.64.41,2.38.03.6.09,1.01.17,1.25.01.04.02.08.02.11,0,.41.06,1.34.17,2,.08.53.13,1.04.15,1.54.06,1.39.14,2.57.23,3.53.02.18.01.41-.02.67-.15,1.27-.25,2.21-.29,2.82-.05.59-.14,1.18-.29,1.78-.02.07-.05.13-.09.19-.74.88-1.44,1.8-2.08,2.77-.08.12-.27.3-.57.55-.71.57-1.08.87-1.11.89-.79.62-1.62,1.08-2.47,1.37-.6.2-.98.36-1.15.46-.05.03-.45.14-1.2.34-1.96.51-3.14.8-3.55.85-.46.06-1.41.07-2.85.03-.71-.02-1.42-.13-2.13-.33-.91-.25-1.6-.51-2.05-.79-.12-.07-.14-.25-.02-.34.09-.08.15-.19.18-.34,0-.04-.03-.06-.06-.04-.03.02-.03.03-.01.04,0,0,0-.01,0-.04,0-.02,0-.03,0-.05,0-.04.01-.08.04-.1.14-.14.22-.27.25-.41.09-.44.18-.76.27-.96.02-.05.04-.1.04-.15.03-.43.05-.68.08-.77.26-.86.36-1.77.32-2.73-.03-.77.01-1.48-.03-1.91,0-.04-.01-.08-.02-.11-.07-.29-.08-.58-.04-.87,0-.04.04-.07.08-.07.08,0,.11.04.12.13,0,.03.04.05.06.02,0,0,0-.05.02-.13.02-.14.02-.34,0-.58-.05-.67-.18-1.61-.38-2.79-.1-.6-.26-.97-.51-1.65-.13-.35-.23-.77-.32-1.26-.21-1.21-.49-2.36-.84-3.45-.03-.08-.04-.16-.05-.24-.04-.42-.12-.87-.26-1.34-.03-.11-.05-.22-.07-.33-.09-.82-.33-1.43-.41-2.16-.02-.18-.1-.52-.25-1.03-.02-.06-.05-.12-.08-.18l-.19-.28s-.04-.07-.04-.11l-.09-1.47c0-.1,0-.2.02-.3.22-1.35.51-2.42.65-3.65.04-.34.15-1.02.32-2.03.01-.08.03-.27.03-.55,0-.07.01-.13.03-.2.25-1.07.37-2.14.36-3.21-.02-1.18.03-1.95-.07-3-.06-.63-.03-1.45-.19-2.13-.09-.37-.14-.57-.14-.61-.02-.19-.07-.39-.15-.61-.19-.48-.32-.92-.39-1.3-.09-.57-.35-1.01-.52-1.31-.09-.16-.12-.35-.06-.53l.43-1.37s0-.02,0-.03c.04-.44.06-.85.07-1.24.01-.37.06-.77.16-1.2.24-1.07.53-2.03.87-2.88.03-.08.07-.15.12-.22.27-.4.17-.6.7-.93.06-.04.11-.08.15-.13.27-.33.45-.74.53-1.23,0-.04-.03-.08-.07-.07-.58.14-1.14.39-1.7.74-.5.31-.93.75-1.3,1.3-.8,1.19-1.3,2.46-1.53,3.79-.01.08-.12.1-.16.03-.61-.99-1.1-2.02-1.47-3.09-.05-.13-.07-.28-.07-.42,0-.32-.01-.58-.04-.8-.01-.08,0-.17.04-.27.04-.11.04-.21,0-.28-.03-.04-.04-.1-.02-.15.07-.21.06-.49-.02-.82,0-.02,0-.05.02-.08.02-.03.02-.06.02-.09,0,0,0,0,0,0-.32.68-.54,1.32-.67,1.93-.08.37-.13,1.42-.17,3.17,0,.24.04.46.12.63.13.27.2.47.19.59,0,.08.07.28.23.59.08.17.15.37.21.61.17.69.35,1.24.53,1.65.33.72.52,1.21.57,1.48.06.31.23.8.52,1.45.17.4.32.89.44,1.48.42,2.08.75,3.64.6,5.52-.05.67.1,1.28.03,1.92-.07.56.02,1.45-.11,2.11-.21,1.06-.37,2.09-.48,3.07-.1.89-.03,2.03-.15,2.87-.02.13-.1.46-.24,1-.08.32-.01,1.01.07,1.47.34,1.95.78,3.87,1.3,5.76.13.46.36,1.01.47,1.53.65,3.14,1.07,5.57,1.27,7.31.1.92.11,2.44.02,4.56,0,.07-.02.13-.06.19-.93,1.37-1.68,2.36-2.23,2.99-1.22,1.37-2.71,2.46-4.48,3.26-1.46.67-2.79,1.04-3.98,1.12-1.42.1-2.68,0-3.78-.31-1-.28-2.39-.8-4.15-1.55-.84-.36-1.74-.98-2.71-1.86-.16-.15-.55-.45-1.16-.9-.06-.05-.12-.11-.16-.18-.23-.41-.44-.77-.63-1.06-.1-.16-.19-.48-.28-.97,0-.04-.02-.08-.03-.12-.15-.39-.36-.76-.63-1.11-.15-.19-.33-.58-.29-.77.1-.46-.05-.79-.46-.98-.04-.02-.09,0-.11.04-.14.35-.26.71-.36,1.09-.02.08-.04.16-.07.24-.13.39-.19.78-.18,1.17,0,.07-.1.09-.12.03-.06-.15-.04-.28.06-.39.01-.02.02-.04.03-.06l.2-1.15s0-.02.01-.03c.09-.13.13-.25.14-.36.04-.4.21-.64.28-1.03.16-.86.25-1.9.27-3.11,0-.09,0-.23,0-.43.02-.85,0-1.87-.04-3.09-.01-.4-.06-.74-.12-1.01-.01-.05-.02-.11-.01-.16.03-.47.04-.85.01-1.14-.04-.55-.15-1.73-.32-3.55-.17-1.8-.29-2.83-.36-3.08-.22-.74-.15-1.82-.42-2.59-.02-.05-.03-.1-.03-.16-.03-.75-.12-1.43-.27-2.05-.1-.39-.16-.74-.19-1.04-.01-.15-.09-.49-.22-1.03-.08-.32-.17-.84-.26-1.57-.21-1.6-.38-3.15-.52-4.64-.01-.13.14-.22.26-.14.03.02.06.03.09.03.05,0,.1-.04.1-.09.06-.38.11-.6.15-.65.53-.73.92-1.57,1.15-2.52.28-1.15.72-2.42,1.05-3.28.09-.25.16-.47.2-.68.2-1.02.4-2.19.16-3.14-.12-.46-.2-.79-.27-.97-.03-.1-.05-.2-.05-.3,0-.49-.09-.99-.31-1.5-.02-.05-.06-.1-.11-.12l-.49-.25s-.08.02-.06.06c.07.19.19.31.21.55.06.66.09,1.07.08,1.21-.02.2-.14.54-.35,1.03-.01.02-.02.05-.02.07l-.35,1.37c-.02.07-.05.15-.09.21-.67,1.22-1.3,2.54-1.88,3.98-.02.05-.09.04-.1,0-.09-.3-.03-.53.19-.7.04-.03.05-.07.05-.11-.01-.08,0-.17.03-.26.33-.9.47-1.86.42-2.88,0-.11,0-.23.01-.34l.37-2.83s0,0,0-.01l.35-1.97s.02-.07.04-.1l.13-.2s.02-.04.03-.06c.22-.8.44-1.4.67-1.79.04-.06.06-.14.06-.21,0-.38.18-.69.51-.92.03-.02.06-.05.09-.08.13-.15.27-.35.43-.6.21-.32.2-.59-.02-.83-.07-.08-.19-.1-.29-.06-2.27.93-2.93,3.1-3.47,5.28-.07.28-.18.6-.33.96-.27.66-.37,1.39-.57,2.29-.11.5-.11.96-.23,1.51-.02.07-.03.14-.03.21-.03.71-.1,1.56-.2,2.55-.04.34-.06.9,0,1.28.07.4.11.81.14,1.22.04.71.25,1.57.26,2.36,0,.21.04.59.1,1.13.08.69.04,1.43.16,2.13.12.72.13,1.32.25,2.06.17,1.01.34,2.25.53,3.72.27,2.07.81,4.87.97,7.05.22,2.81.33,6.02.33,9.66,0,.92-.04,1.56-.11,1.93,0,.03-.04.37-.11,1.01-.09.82-.44,1.81-.57,2.27,0,0,0,.01,0,.02l-.72,1.68s0,.02-.01.03l-1.26,2.34s-.04.06-.06.08c-.28.28-.44.44-.47.48-.27.25-.94.79-2,1.62-.93.72-1.83.78-2.9,1.12-.06.02-.12.05-.16.1,0,0,0,0-.02.02-.04.06-.11.09-.18.09-.48,0-1.1.04-1.85.1-.16.01-.47-.02-.94-.1-.08-.01-.16-.02-.24,0-.13.02-.27-.03-.42-.13-.02-.01-.04,0-.04.02l-.1.49s0,.07.03.09c.17.14.38.25.63.34.04.02.09.04.13.06.21.14.41.22.58.22.76.04,1.33.07,1.71.12.05,0,.09,0,.14,0l1.3-.15c.06,0,.11.03.13.09.04.11.09.19.14.24.04.04.1.06.16.05.51-.1,1.11-.19,1.8-.27.82-.09,1.55-.2,2.2,0,.33.1.75.21,1.24.31.55.12.96.23,1.23.33.67.25,1.22.3,1.86.54.21.08.56.18,1.04.32.06.02.12.04.18.07,1.41.75,2.21,1.2,2.42,1.36.57.44.96.81,1.18,1.12.85,1.19,1.41,2.86,1.81,4.25.27.92.23,1.79.76,2.64.03.05.03.08,0,.11-.02.02-.06.03-.11.03l-.76-.18c-.36-.1-.71-.25-1.06-.44-.05-.03-.1-.05-.15-.06-1.15-.31-2.08.03-3.2.41-.06.02-.12.05-.17.09-.49.34-.8.77-1.2,1.21-.79.86-1.13,2.23-1.16,3.37-.03.9.36,2.12.86,2.78.45.58,1.02,1.19,1.72,1.82.06.06.13.11.21.15l1.12.59s.03.01.04.02l.99.29s.03,0,.05,0h.26c.06-.01.09.07.04.11l-.27.21s-.02.02-.03.03c-.56.87-1.21,1.48-1.94,1.82-.87.4-1.47.64-1.8.72-.76.17-1.52.29-2.28.36-.47.04-.99.02-1.55-.07-.52-.08-1.03-.17-1.53-.29l-2.33-1.47.27-.15c.06-.03.09-.1.09-.16l-.03-.37c0-.05-.03-.1-.07-.14-.73-.56-1.71-1.02-2.93-1.38-.19-.05-.8-.29-1.83-.72-.41-.17-1.25-.4-2.52-.68-1.16-.26-2.49-.11-3.78.06-.36.05-.82.17-1.38.37-.96.34-2.02.43-3.11.56-.2.02-.59,0-1.15-.04-.08,0-.16-.03-.23-.07-.84-.46-1.94-1.21-2.26-2.16-.02-.06-.02-.12.01-.17.21-.44.36-.88.45-1.35.29-1.61.22-3.32.23-4.8,0-.59.06-1.31.18-2.15.19-1.34.29-2.04.3-2.11.16-.88.25-1.59.26-2.11.02-1.11-.03-2.07-.15-2.86-.05-.35-.19-.86-.4-1.56,0-.02,0-.03,0-.05l.04-.43c0-.07.04-.14.08-.19.09-.09.16-.21.21-.35.11-.26.41-.64.6-.76.57-.34,1.04-.67,1.42-.97.03-.03.07-.04.12-.05l1.1-.09c.09,0,.19.02.26.06.57.34,1.15.6,1.76.77.85.25,1.71.48,2.59.71.4.1.82.08,1.18.24.05.02.1.02.15,0,.12-.04.33-.09.64-.15.04,0,.09-.04.14-.08.08-.08.06-.23.16-.33.09-.08.13-.13.14-.13.18-.13.13-.41-.08-.41-.23,0-.48-.05-.75-.13-.73-.22-1.52-.51-2.37-.87-.26-.11-.43-.19-.52-.26-.42-.3-.84-.35-1.3-.64-.15-.1-.42-.24-.79-.43-.13-.07-.25-.15-.37-.25-.6-.51-1.05-1.21-1.51-1.85-.05-.07-.09-.15-.11-.23-.13-.45-.34-.87-.62-1.24-.05-.06-.09-.14-.11-.22-.15-.51-.53-1.24-.69-1.91-.13-.56-.35-.97-.44-1.5-.1-.58-.28-1.12-.56-1.63-.22-.41-.48-.61-.86-1-.03-.03-.08-.01-.08.03,0,.42-.06.84-.16,1.26-.23.96-.2,1.88-.17,2.59,0,.05-.02.09-.06.13-.04.03-.09.02-.11-.02l-.3-.72s0-.02,0-.03c-.06-.72-.27-1.35-.63-1.88-.04-.06-.07-.14-.06-.22.02-.43.02-.73,0-.89,0,0,0-.02,0-.03l.1-1.84s0-.02,0-.02c.13-.72,0-1.22-.15-1.98-.06-.3-.1-.7-.12-1.2-.04-1.1-.43-2.21-.62-3.15-.07-.36-.28-.52-.63-.5-.05,0-.09.06-.07.11l.1.25s.02.09.01.13c-.31,1.2-.47,2.39-.46,3.58,0,.35-.13.98-.41,1.9-.02.06-.02.13,0,.2l.04.12s.01.08,0,.12l-.24,1.23s-.02.05-.03.08c-.17.35-.26.72-.28,1.11-.02.28-.04.47-.06.58-.07.28-.11.47-.12.57-.09.79-.28,1.64-.58,2.54-.18.54-.34.94-.48,1.21-.45.86-.72,1.77-1.24,2.5-.4.55-.72.94-.97,1.14-.47.39-.86.73-1.16,1.02-.5.47-.88.71-1.5.94-.88.33-1.73.54-2.56.64-.18.02-.57.09-1.15.19-.24.04-.63.09-1.16.14-.26.03-.53,0-.8-.1-.06-.02-.12-.04-.19-.04-.29-.02-.51-.05-.68-.07-.05,0-.1-.03-.14-.06-.07-.06-.12-.08-.13-.09-.04,0-.06.04-.03.07.12.12.21.19.26.22,1.25.55,2.6.86,4.06.93.15,0,.3.03.44.08.68.21,1.28.3,1.8.26.72-.06,1.18-.09,1.38-.1.91-.04,2.03-.31,2.74-.43.13-.02.34-.14.65-.35.76-.53,1.24-.93,1.46-1.2.03-.04.08-.07.13-.07.04,0,.1,0,.16.03.21.08.25.04.45.02.06,0,.11.02.15.06l.34.38s.06.05.09.07c.73.39,1.43,1.48,1.8,2.24.26.51.59,1.06.67,1.68.06.48.15.83.13,1.26-.04,1.15-.09,1.85-.15,2.11-.41,2.01-.71,3.81-.88,5.4-.07.65-.07,1.68-.01,3.11.04,1,0,1.66-.37,2.51-.63,1.45-1.91,1.96-3.41,2.03-1.7.08-3.39.08-5.08-.01-.03,0-.06,0-.09,0l-1.02.26s-.04,0-.05,0c-.01,0-.02-.02-.03-.03-.01-.02,0-.04.02-.05.17-.04.36-.1.55-.19.05-.02.1-.04.16-.05,1.08-.21,1.7-.32,1.85-.36.5-.11.95-.09,1.52-.13.01,0,.03,0,.04,0l1.27-.38s.06-.06.05-.1c-.12-.3-.39-.5-.82-.61-1.28-.31-2.25-.48-3.43-.3-.72.11-1.18.2-1.39.25-1.25.33-2.39.82-3.57,1.66-.31.22-.82.56-1.52,1.01-.49.31-.96.81-1.55,1.13-1.14.62-1.87,1-2.18,1.15-1.28.61-2.58,1.11-3.89,1.49-.21.06-.53.17-.98.32-1.47.52-3.06.16-4.56.04-.53-.04-.89-.09-1.07-.14-.84-.22-1.63-.66-2.35-1.3-.03-.03-.02-.08.02-.09.71-.17,1.55-.46,2.21-.94.67-.49,1.15-.78,1.56-1.49.04-.07.08-.13.13-.19.69-.85,1.05-1.79,1.06-2.83.01-1.18-.29-2.41-.91-3.7-.04-.09-.29-.4-.73-.92,0,0,0,0,0,0l-.75-.65s-.06-.04-.1-.04c-.16-.03-.34-.07-.52-.13-.78-.25-1.76-.02-2.45.39-.24.15-.61.46-1.08.93-.01.01-.02.02-.04.02l-.14.06c-.06.02-.09.09-.07.15.06.21-.02.35-.23.41l-.16-.38s-.03-.1-.03-.15c.01-.21-.05-.33-.19-.37.58-1.77.97-2.9,1.15-3.39.58-1.56,1.33-2.63,2.51-4.09.38-.46,1.04-1.08,2.01-1.85.7-.56,1.48-.99,2.35-1.28.55-.19,1.1-.35,1.65-.49.4-.1,1.02-.17,1.85-.19.28,0,.85-.08,1.7-.23.52-.09.96-.12,1.33-.1.57.04,1.03.09,1.36.16.03,0,.07,0,.11,0l.89-.12s.06-.08,0-.09l-3.24-1.11s-.02,0-.04,0l-2.21-.45s-.05,0-.08,0l-2.63.09s-.06-.04-.04-.08c.2-.28.33-.52.38-.71.18-.64.27-.98.27-1.01,0-.04.05-.07.09-.05l.99.7s.02.01.03.02c.52.18,1.02.26,1.5.24.14,0,.28.02.41.07.86.35,1.53.47,2.52.53.98.06,1.76.22,2.65-.2.16-.08.21-.29.09-.43l-.25-.3s-.02-.09.02-.12c.04-.03.07-.06.09-.09.03-.04,0-.1-.05-.1h-.17s-.09-.04-.1-.09c-.06-.12-.13-.15-.27-.13-.24.03-.4.02-.48-.02-.34-.18-.83-.36-1.47-.54-1.03-.29-1.92-.84-2.65-1.63,0,0-.01,0-.02-.01l-1.33-1.01c-.09-.07-.15-.16-.19-.26-.16-.44-.25-1.04-.52-1.39-.04-.05-.07-.11-.08-.17-.07-.38-.21-.73-.42-1.05-.05-.07-.18-.46-.39-1.16-.34-1.11-.55-2.06-.66-2.83-.19-1.37-.31-2.74-.38-4.1-.02-.35-.01-.65.01-.9.03-.34-.02-.67-.15-.98-.03-.06-.03-.14-.02-.21.27-1.09.48-2.44.9-3.7.27-.81.42-1.4.46-1.77,0-.01.15-.81.45-2.38.15-.78.25-1.2.35-2.18,0-.05.02-.1.04-.14.04-.1.06-.16.06-.19.01-.43.06-.81.13-1.16.02-.07.02-.15.01-.22-.04-.37-.06-.77-.05-1.2,0-.25,0-.49-.03-.73-.11-1.19-.29-2.5-.54-3.94-.09-.53-.26-1.05-.43-1.5-.3-.78-.67-1.8-1.12-3.05-.13-.35-.25-.67-.38-.95-.34-.76-.62-1.55-1.02-2.34-.37-.74-.5-1.18-.9-1.91-.31-.57-.54-1.16-.67-1.79-.08-.36-.11-.84-.1-1.43,0-.38-.04-.86-.13-1.44,0-.03-.05-.04-.06,0-.24.71-.4,1.48-.48,2.31-.01.17,0,.82.05,1.95,0,.21.05.41.13.61.39,1.01.46,2.08.87,3.09.12.3.25.76.39,1.37.09.38.22.8.42,1.28.34.84.57,1.72.69,2.63.2,1.53.38,3.29.53,5.27.05.61.07,1.11.06,1.5-.02,1.21.11,2.2.04,3.48-.04.74-.06,1.4-.06,1.98,0,.6-.04,1.07-.12,1.42-.18.83-.45,1.73-.79,2.71-.32.91-.52,1.6-.6,2.06-.12.74-.18,1.18-.16,1.33.06.7,0,1.21.11,1.88.03.16.04.45.03.87-.01.71.21,1.42.26,2.11.08.97.3,2.3.26,3.27-.03.63-.12,1.49-.27,2.56-.01.1-.06.18-.13.25-.32.31-.57.72-.74,1.24-.04.12-.11.23-.2.32-.9.85-1.55,1.39-1.97,1.63-.24.14-.86.44-1.85.9-.89.41-1.83.72-2.94,1.14-.45.17-1.05.32-1.77.44-.04,0-.08.02-.11.05l-.1.09s-.05.04-.08.04c-1.41.41-2.57.68-3.47.79-1.05.13-2.16.25-3.33.33-.9.07-2.12.03-3.64-.13-.52-.05-.94-.34-1.26-.86-.46-.76-.75-1.49-.87-2.19-.34-2.06-.56-3.28-.66-3.68-.19-.77-.15-1.36-.21-2.35-.02-.34-.05-.58-.08-.69-.14-.54.03-.97-.12-1.57-.14-.57-.09-1.21-.17-1.89-.18-1.56-.31-2.27-.27-3.37,0-.07,0-.15-.02-.22-.15-.57-.02-1.14-.09-1.72-.06-.53-.02-1.15.14-1.87.01-.05.02-.1.01-.16-.03-.51.06-.94-.09-1.39-.04-.13-.07-.32-.08-.58,0-.13-.06-.22-.18-.26-.15-.05-.24-.19-.26-.4,0-.04-.05-.05-.08-.03,0,0-.01.07-.01.19,0,.06-.02.14-.05.22-.33.83-.57,1.51-.7,2.02-.08.32-.27,1.18-.56,2.59-.11.55-.11,1.05-.19,1.52-.19,1.03-.15,2.17-.09,3.23.05.89.03,1.99.03,2.88,0,.16.06,1.58.17,4.24.03.6.15,1.42.38,2.44.01.06,0,.13-.03.18-.28.46-.66.87-1.14,1.24-.04.03-.09.06-.14.07,0,0-.17.05-.52.14-1.21.33-2.24.54-3.08.62-.77.08-1.57,0-2.36-.05-.31-.12-.63-.15-.95-.09l-2.94-.37h-.12s-.77-.11-.77-.11c-.07-.03-.13-.04-.19-.03-2.17-.4-3.79-.78-4.88-1.14-.13-.04-.55-.28-1.27-.71-.06-.04-.12-.08-.17-.13-.13-.13-.44-.42-.92-.86-.27-.25-.53-.64-.79-1.19-.36-.76-.61-1.74-.75-2.95-.06-.51-.16-1.47-.14-2.06,0-.07.02-.8.06-2.2.02-.84.07-1.57.15-2.2.2-1.73.44-3.66.7-5.79.21-1.64.52-2.96.9-4.92.11-.57.34-1.23.46-1.88.11-.59.21-1,.3-1.23.17-.41.13-.76.24-1.16.16-.64.25-1.01.28-1.14.02-.08.03-.16.04-.24.03-.55.12-1.05.27-1.5.02-.08.04-.15.04-.23,0-.6-.04-.86.05-1.43.16-.94.25-1.43.26-1.47.05-.21.08-.37.07-.49-.02-.4.09-.65.02-1.06-.06-.38.11-.75-.18-1.09-.22-.27-.34-.6-.36-1,0-.02-.02-.03-.04-.03h0s-.02.01-.02.02l.06.72s0,.02,0,.03c-.02.13-.11.17-.15.28-.36.99-.52,1.38-.7,2.14-.21.91-.47,1.73-.82,3.03-.16.61-.21,1.22-.44,1.8-.15.39-.13.76-.25,1.16-.29.98-.39,1.78-.67,2.76-.09.31-.17.76-.24,1.36-.01.11-.04.21-.07.32-.1.34-.17.69-.21,1.04-.05.48-.2.91-.28,1.38-.19,1.08-.38,2.25-.57,3.5-.19,1.27-.32,2.21-.39,2.83-.1.95-.19,1.7-.26,2.28-.22,1.77-.29,3.53-.2,5.27.07,1.54.39,3.01.95,4.41.02.04,0,.09-.05.1-.54.11-1.04.17-1.52.18-1.68.04-3.37-.13-4.93-.69-.84-.3-1.27-.45-1.28-.45-1.59-.58-3-1.52-4.22-2.84-.69-.74-1.08-1.16-1.17-1.26-.66-.77-1.05-1.68-1.49-2.58-.19-.39-.36-.88-.51-1.47-.28-1.09-.44-1.76-.48-1.99-.02-.12-.04-.25-.04-.38l.04-5.06c0-.1.02-.19.06-.28.21-.48.17-1,.31-1.47.13-.42.23-.88.28-1.37.02-.14.05-.28.09-.41.12-.35.2-.61.24-.77.43-1.99.66-3.05.68-3.16.08-.4.22-.65.25-.96.02-.22.1-.5.27-.84.09-.19.09-.34.11-.58,0-.05.01-.1.03-.15.16-.54.37-1.29.61-2.25.08-.31.22-.58.29-.79.02-.07.03-.14.03-.21-.01-.46.25-.89.34-1.3.25-1.1.43-2.05.53-2.84.11-.8.21-1.41.33-1.84.17-.65.29-1.26.38-1.84.11-.74.39-1.39.46-2.15,0-.07.02-.14.04-.21.26-.72.45-1.17.56-1.35.22-.36.34-.57.35-.65.05-.23.15-.45.31-.66.15-.19.31-.51.48-.95.02-.05.04-.1.08-.14.63-.92,1.39-1.77,2.29-2.55.14-.12.6-.5,1.37-1.12.64-.52,1.16-.81,1.96-1.29.49-.29,1-.46,1.53-.81.06-.04.14-.07.21-.1.32-.09.59-.25.81-.46.03-.03.08-.06.12-.07l.37-.11s.07-.02.1-.04c.35-.21.86-.48,1.52-.79.51-.24.78-.62.82-1.16l2.58-.41s0,.02,0,.04c0,.02,0,.03-.02.05l-.54.63s-.06.05-.09.06c-.13.05-.27.08-.43.08-.04,0-.07.05-.04.09.18.22.41.33.69.35.07,0,.14-.02.19-.06.08-.06.18-.11.3-.14.09-.02.16-.06.23-.12.16-.15.5-.49,1.02-1.05.16-.17.29-.35.41-.53.34-.54.65-.86.97-1.38.24-.39.62-.92,1.14-1.58.03-.04.06-.07.09-.09.31-.24.5-.56.8-.8.31-.24.71-.49,1.21-.76.06-.03.13-.05.2-.06.09,0,.33-.06.74-.14.35-.07.74-.1,1.17-.09.82.02,1.67.33,2.39.47.3.06.7.19,1.21.38.79.3,1.42.54,1.88.71,1.33.49,2.52,1.2,4.03,1.32.21.02.6.09,1.16.2.23.05.56.07.99.06.08,0,.15-.02.22-.06l.16-.09c.09-.05.2-.09.31-.1.7-.1,1.38-.34,2.03-.71.03-.02.06-.04.09-.06l2.37-2.01s.06-.09.06-.14l-.03-.34s-.05-.06-.08-.04c-.06.05-.14.08-.24.07l.75-.99c.71-.51,1.35-1.1,1.91-1.78.05-.06.1-.1.17-.14l.45-.26s.07-.05.09-.08c.27-.32.55-.55.84-.68.26-.12.49-.26.71-.43.5-.4,1.11-.7,1.81-.9.32-.09.6-.14.85-.14.37,0,.64-.02.81-.05,0,0,.01,0,.02,0l1.88.08s0,0,0,0c.12.06.19.09.21.1.65.12,1.29.24,1.96.59,1.07.55,1.72.9,1.96,1.04.88.52,1.67,1.22,2.46,2.15.55.65,1.05,1.18,1.49,1.62,0,0,.01,0,.02.01l.94.6s.07.06.09.1c.05.11.12.17.19.19,1.02.29,2.01.17,2.96-.36.04-.02.08-.05.11-.09l.59-.66c.12-.13.15-.32.08-.48l-.23-.54s-.03,0-.03,0c0,.53-.58.84-1.05,1.02-.07.03-.14.02-.2-.02-.22-.15-.54-.34-.98-.59-.32-.18-.98-.69-1.97-1.54M115.67,9.27c.13.22.17.41.35.63.22.28.33.65.55.94.52.68,1.08,1.26,1.68,1.75.04.03.08.06.12.08.55.3,1.09.57,1.61.82.25.12.49.18.72.2.32.02.29-.31.62-.33.05,0,.1-.03.12-.08.05-.1.06-.19.02-.26-.02-.04-.01-.09.03-.12l.12-.07s.05-.08.02-.12c0,0-.02-.02-.03-.04-.04-.04-.06-.1-.06-.15l-.04-.47c0-.05-.04-.1-.09-.11-.22-.06-.41-.14-.57-.26-.35-.25-.71-.42-1.09-.48-.39-.07-.65-.13-.78-.19-.5-.23-.96-.32-1.4-.71-.11-.1-.25-.18-.39-.23-.3-.1-.78-.38-1.45-.84-.03-.02-.06.01-.05.04M65.69,10.07c.27.62.48,1.09,1.09,1.47,1,.6,2.1.94,3.31,1.04.07,0,.13,0,.19-.04.17-.09.31-.23.43-.41.04-.06.11-.1.18-.1.11,0,.18-.06.23-.18.02-.06,0-.2-.06-.42-.05-.15-.03-.34.06-.56.06-.14-.02-.31-.17-.35-.79-.24-1.51-.16-2.15.26-.28.18-.51.28-.83.25-.58-.06-1.5-.26-1.93-.67-.1-.1-.21-.21-.31-.32-.01-.01-.03-.01-.04,0-.01,0-.02.03-.01.04M65.37,10.63c.04-.08.05-.15.03-.2-.01-.05-.08-.05-.1,0-.02.05-.03.12-.01.2,0,.04.06.05.08,0M25.13,13.07s-.39.42-1.11,1.2c-.22.24-.66.5-1.31.76-.05.02-.08.07-.09.12v.32c-.01.12.09.21.21.21.68-.02,1.5-.87,1.88-1.32.19-.22.34-.64.47-1.26,0-.03-.03-.05-.05-.03M66.82,14c.1.07.17.13.21.17.94,1.26,1.6,2.17,1.96,2.74.44.68.69,1.47.73,2.3.03.71.41,1.73,1.02,2.2.1.07.24.03.29-.08.08-.19.21-.4.38-.62.43-.52.15-.97.06-1.53-.04-.24-.14-.47-.28-.67-.56-.74-.91-1.23-1.05-1.44-.24-.35-.52-.69-.84-1.02-.52-.53-.82-.86-.9-1-.02-.04-.05-.07-.09-.1l-.96-.87s-.02-.02-.04-.02l-.46-.11s-.05.03-.02.05M43.45,16.74c.17.83.27,1.29.29,1.37.04.13.07.54.09,1.23.02.59-.29,1.28-.4,1.98-.02.1-.1.18-.13.25-.03.05-.02.12.02.16l.21.21c.18.18.47.18.65,0l.43-.43s.01-.02.02-.02c.17-.41.26-.69.25-.85-.02-.35,0-.66.02-.91,0-.08,0-.15-.01-.23-.16-.68-.3-1.18-.43-1.48-.09-.21-.14-.4-.17-.58-.03-.22-.13-.4-.28-.53-.04-.04-.07-.09-.09-.15-.02-.07-.08-.13-.2-.2-.13-.08-.29.04-.26.19M39.07,17.46s-.02.03,0,.04c.45.8.7,1.23.73,1.3.04.08.09.17.13.27.16.33.42.78.79,1.37.34.54.55.99.61,1.35.1.55.09,1.04-.02,1.48-.14.54-.21.97-.19,1.26,0,.09-.02.19-.06.27-.67,1.38-1.06,2.86-1.15,4.43-.16,2.6.07,5.15.69,7.64.17.69.2,1.22.34,1.8.11.47.19.92.23,1.35.21,2.24.31,3.66.29,4.26-.03,1.06-.15,2.07-.35,3.02-.01.05.03.1.08.1.58-.04.93-.52,1.14-1.06.22-.57.44-1.17.68-1.79.02-.06.04-.12.04-.18.07-.52.15-1.1.24-1.74.12-.81.08-1.59-.11-2.36-.03-.11-.04-.23-.04-.34.03-.82-.03-1.58-.17-2.29,0-.05-.01-.09-.01-.14.01-.42-.04-.89-.15-1.4-.01-.07-.02-.14-.02-.21,0-.51-.04-1.05-.1-1.6-.05-.51-.09-1.04-.11-1.59-.02-.61-.06-1.21-.1-1.81-.06-.77-.06-1.39,0-1.85.08-.69.26-1.88.53-3.57.1-.6.09-1.12.14-1.65,0-.05.02-.1.06-.14l.11-.15s.02-.04.03-.06c.09-.46.05-.93-.13-1.4-.21-.56-.51-1.09-.91-1.6-.54-.71-1.09-1.27-1.63-1.69-.36-.28-.59-.65-1.02-.97-.04-.03-.1-.05-.15-.06-.15-.02-.27-.1-.36-.26-.01-.03-.05-.04-.07-.02h0M67.05,18.7c.3.89.48,1.45.53,1.7.11.6.17,1.44.17,2.51,0,.09,0,.18.03.27.08.4.12.82.1,1.26-.02.42-.03,1.71-.04,3.86,0,.48.05.97.17,1.49.04.17.02.35-.06.54-.06.15.1.29.25.21l.33-.19s.06-.05.07-.08c.12-.36.52-.67.63-.78.02-.02.04-.05.06-.08l.61-1s.03-.06.03-.1c.04-.42.04-.79,0-1.13-.06-.41-.11-.74-.13-.98-.07-.67-.13-1.12-.2-1.35-.17-.61-.24-1.01-.22-1.19.01-.09,0-.17-.04-.25-.11-.25-.17-.43-.19-.52,0-.06-.03-.12-.05-.18-.19-.39-.34-.75-.45-1.09-.24-.75-.63-1.27-.79-2.05,0-.03-.02-.05-.04-.07l-.7-.83s-.07,0-.06.03M22.63,20.06c.04.21.06.36.05.45-.03.2-.18.44-.14.76.04.29.05.64.05,1.06,0,.09.01.18.03.27.31,1.21.46,2.36.46,3.46,0,.21.28.27.36.08.36-.75.54-1.54.56-2.36,0-.11-.01-.22-.05-.32l-.88-2.78s-.02-.04-.03-.06l-.36-.58s-.06,0-.05.02M165.86,21.98s-.03.04-.02.06c0,.01-.03.06-.1.13-1.12,1.13-1.53,2.51-1.21,4.13.08.42.19.84.32,1.28.01.05.06.08.11.07.05,0,.09-.05.09-.1.02-1.41-.02-2.38.48-3.5.37-.84.57-1.27.58-1.3.03-.06.04-.14.02-.2l-.17-.55s-.07-.05-.1-.02M18.41,23.2c.02.06.05.11.11.14.31.17.56.37.74.62.02.03.36.61,1.02,1.75.45.78.9,1.81,1.07,2.56.2.92.52,1.76.94,2.54.1.18.34.2.47.04l.19-.24s.04-.07.05-.11c.17-1.12.23-1.82.18-2.12-.25-1.56-1.05-2.83-2.16-4.02-.34-.36-.72-.67-1.14-.95-.08-.05-.17-.09-.25-.12-.5-.16-.91-.36-1.25-.62-.03-.02-.08,0-.07.05l.12.48M94.08,24.62s-.05-.02-.05,0c-.05.66-.12,1.3-.2,1.93-.05.36-.22.82-.51,1.36-.04.08-.08.16-.11.25-.44,1.33-.76,2.69-.98,4.07-.06.41.11,1,0,1.34-.04.11-.02.56.04,1.35.02.24-.02,1.02-.12,2.36,0,.05,0,.1,0,.15.05.35.07.53.07.54-.05.56-.05,1.39,0,2.49.03.66-.03,1.36.07,1.93.19,1.12.19,1.95.33,3.17.14,1.17.15,2.39.31,3.49.07.48.14,1.06.2,1.76.17,1.75.39,3.36.96,5.04.1.3.25.59.46.87.33.46.54.71.61.78.3.26.58.52.84.78.04.04.09.08.15.1l.33.16s.1,0,.11-.06l.02-.46s0-.05,0-.07l-.2-.9c-.02-.09-.02-.17-.01-.26.13-.91.09-1.87-.11-2.87-.13-.62-.21-1.16-.25-1.62-.04-.42-.15-1.21-.35-2.36-.1-.57-.16-.92-.17-1.05-.03-.32-.08-.67-.15-1.06-.18-.94-.29-1.72-.35-2.32-.1-1.03-.37-2.13-.36-3.15,0-.31-.02-.62-.08-.94-.12-.71-.04-1.45-.08-2.21-.08-1.33-.06-2.52-.1-4.16-.03-1.08.02-2.26.14-3.53.06-.62.11-1.68.16-2.19.05-.53.04-1.08-.03-1.64-.05-.41-.15-1.19-.29-2.33,0-.04-.02-.09-.04-.13l-.25-.6M176.77,36.88l3.36.08c.07,0,.13-.06.12-.13l-.19-2.07s-.01-.06-.03-.08c-.15-.26-.25-.59-.31-.98-.14-.92-.26-1.65-.38-2.21-.08-.38-.23-.92-.47-1.61-.03-.08-.07-.15-.14-.2l-.98-.8s0,0,0,0c-.08-.11-.24-.29-.48-.53-.73-.75-1.29-1.8-1.54-2.73-.02-.08-.05-.16-.1-.23-.04-.06-.09-.19-.17-.39-.03-.07-.1-.11-.17-.11-.62.07-1.09.1-1.4.1-.45,0-.91.03-1.38.09-.86.11-1.57.16-2.13.15-.37,0-.65-.03-.82-.07-.27-.06-.49-.02-.65.13-.15.14-.27.06-.41.09-.06.01-.09.06-.09.12.11,1.44-.17,2.98-1.12,4.12-.08.1-.12.23-.1.36.11.64.07,1.12.22,1.74.03.13.08.5.14,1.09.03.29.08.63.14,1.01.05.31.08.67.08,1.05,0,.15.02.3.06.45.06.21.09.39.12.53.26,1.67.44,3.26.55,4.76,0,.05.01.09.03.14.09.2.15.59.19,1.17.03.45.16,1.11.38,1.98.28,1.08.46,2.1.66,3.07.07.36.11.63.11.8,0,.26.04.53.11.8.09.3.16.7.21,1.2.09.91.16,1.69.19,2.34.02.39.09.73.2,1.02.03.07.07.14.12.19.98,1.15,1.43,2.47,1.7,3.99.01.06.05.1.11.11l1.71.26s.05,0,.07,0c.64-.11,1.28-.06,1.91.15.05.02.1.02.15.01l.39-.05s.06,0,.09,0l3.02.24s.09-.03.09-.08c.06-1.22.27-2.33.61-3.34.15-.44.53-.99.63-1.37.07-.28.14-.91.22-1.89.06-.83,0-1.44.03-2.31.01-.29-.02-1.11-.09-2.45-.03-.53-.15-1.02-.17-1.67,0,0,0-.01,0-.02l-.12-.9s-.04-.07-.08-.08c-.74-.09-1.43-.1-2.07-.04-.14.01-.28,0-.42-.04-.26-.08-.34.1-.56.08-.1-.01-.15-.01-.16,0-.05.02-.07.09-.04.14.38.65.65,1.61.81,2.87.14,1.08.25,1.89.05,2.56-.07.23-.1.43-.1.59,0,.07-.01.14-.04.21-.37.78-.64,1.43-1.4,1.54-.32.05-.7.03-1.15-.05-.08-.01-.15-.04-.21-.08-.69-.41-1.18-.86-1.47-1.37-.34-.59-.6-1.28-.79-2.07-.05-.22-.05-.46-.05-.64,0-.07-.01-.15-.04-.21-.3-.8-.23-1.61-.29-2.45-.05-.77.13-1.6.19-2.29.02-.25.14-.44.28-.66.03-.05.04-.11.04-.17-.03-.3.03-.6.17-.89.02-.04.03-.09.02-.14-.1-.53-.32-.93-.64-1.2-.11-.09-.19-.21-.25-.34l-.77-2c-.04-.09-.06-.19-.06-.29-.01-.45-.09-.83-.25-1.14-.04-.09-.07-.18-.07-.28,0-.1-.05-.41-.15-.94-.16-.87-.1-1.77.17-2.72.2-.71.6-1.15,1.23-1.42.05-.02.09-.03.15-.04.85-.11,1.57-.27,2.09.54.11.17.27.33.5.48.07.04.12.1.16.17.39.69.64,1.34.77,1.95.02.07.02.14.02.22,0,.55.04,1.13.16,1.72.05.25.02.69-.07,1.33,0,.03.02.05.04.05M9.02,58.26c-.12-.36-.15-.71-.09-1.07,0-.05,0-.1-.02-.15-.18-.41-.25-.75-.22-1.03.03-.24,0-.44-.06-.61-.12-.31-.17-.67-.14-1.07.04-.61-.09-1.19-.06-1.81.06-1.13.1-1.85.11-2.17,0-.06.01-.12.03-.18.09-.34.14-.56.15-.66.09-1.07.18-1.75.27-2.04,0-.02.16-.5.46-1.44.16-.5.31-.84.44-1.02.35-.46.65-.85.9-1.17.21-.27.56-.44,1.03-.51.03,0,.05,0,.08,0l.75.26s.06.03.08.06c.23.31.36.83.39,1.54.02.43,0,.69-.05.79-.17.35-.02.74-.13,1.17-.42,1.61-.73,3.24-.93,4.87-.15,1.2-.14,2.67.03,4.42,0,.01,0,.02,0,.03l.44,1.45s.04.05.07.05c.74-.03,1.07-.11,1.75-.08.26,0,.52-.04.77-.14.05-.02.08-.06.09-.12.04-.45.07-.92.21-1.38.09-.31.07-.64.18-1.04.28-1.01.44-1.72.48-2.13.11-1.07.22-2.03.35-2.88.17-1.19.28-2.54.39-3.45.02-.14.06-.32.12-.52.03-.09.05-.19.06-.29.04-.61.1-1.15.19-1.63.04-.23.18-.42.15-.67,0-.06-.03-.11-.07-.15l-.57-.57c-.05-.05-.1-.11-.13-.18l-.73-1.54c-.05-.1-.05-.21,0-.31.28-.57.68-.98,1.21-1.24.07-.03.13-.08.17-.14.32-.44.72-.58.99-.85.04-.04.07-.09.08-.15.13-.74.31-1.81.62-2.86.19-.67.3-1.16.32-1.49.03-.52.1-1.02.22-1.48.1-.42.17-1.07.19-1.93,0-.05-.02-.11-.05-.15-.26-.33-.26-.71-.47-1.13-.15-.29-.24-.62-.27-.99-.06-.66-.06-1.33,0-2.02,0-.07-.05-.14-.12-.14-.38,0-.67-.03-.87-.05-.6-.08-1.09,0-1.67-.12-.17-.04-.43-.06-.8-.07-1.35-.03-2.39-.07-3.13-.11-1.11-.06-1.69-.09-1.74-.1-.57-.06-1.15-.08-1.74-.07-.05,0-.1.03-.12.08-.13.33-.21.86-.49,1.2-.05.06-.08.14-.09.22-.03.21-.06.42-.09.64-.08.54.03,1.1-.16,1.63-.03.08-.04.17-.02.25.07.43.02.84-.15,1.23-.04.08-.05.17-.05.25.01.59-.1,1.27-.32,2.02-.11.37-.35.46-.34.95.01.61-.12,1.17-.39,1.68-.05.09-.07.18-.08.28-.06.57-.41,1.19-.56,1.74-.34,1.21-.66,2.58-.97,4.12-.15.75-.16,1.42-.12,2.15.02.25,0,.91-.04,1.98-.02.54-.14.96-.15,1.43,0,.79-.19,1.7-.3,2.46-.01.08-.03.15-.06.22l-.11.27s-.02.07-.02.1l-.1,1.61s0,.03,0,.04c.15.33.1.62.18.95.16.66.25,1.46.26,2.39,0,.19-.08.39,0,.53.06.1.1.22.12.38.1.76.21,1.44.31,2.04,0,.03.04.05.07.05.76-.07,1.47-.12,2.14-.13.7-.02,1.22-.14,1.94-.26.03,0,.04-.03.03-.06M161.55,56.47c-.18-.29-.33-.62-.45-.97-.08-.24-.21-.57-.4-1-.3-.69-.53-1.37-.68-2.04-.15-.65-.4-1.3-.41-1.91,0-.09-.02-.18-.05-.26-.19-.52-.21-1.06-.36-1.71-.15-.66-.22-1.3-.2-1.92,0-.06,0-.11-.02-.17-.06-.18-.09-.38-.1-.59-.02-.67,0-1.32.04-1.94,0-.09,0-.17,0-.26-.04-.38-.03-.69.01-.93.08-.48.17-.96.26-1.44.05-.27.12-.47.21-.61.01-.02.02-.05,0-.07l-.65-1.22s-.01-.02-.02-.02c-.29-.34-.49-.74-.6-1.19-.06-.23-.21-.42-.29-.58-.19-.39.04-.81-.33-1.17-.07-.08-.12-.18-.12-.28,0-.53-.36-1.06-.46-1.57-.27-1.54-.44-2.48-.48-2.83-.07-.5-.04-1.31-.12-2.02-.05-.4-.05-1.81.14-2.12.03-.04.04-.1.03-.15-.03-.35.02-.73.18-1.13.03-.08-.03-.16-.11-.16l-6.7.42c-.06,0-.09.07-.06.12.29.52.71,1.33,1.26,2.43.42.84.61,1.87.88,2.63.02.06.03.13.03.2v.18c0,.08.01.16.04.23.08.19.14.39.19.59.06.29-.1.64.04.93.21.43.28.76.22,1.01-.02.07-.01.14.02.21.07.15.11.43.12.83.02.75.01,1.51-.02,2.26-.04.76-.33,1.69-.53,2.33-.01.04,0,.09.02.14.25.4.45.65.59.99.19.48.53,1.05.66,1.59.05.22.16.47.31.75.04.07.07.15.09.23.3,1.11.54,2.18.7,3.22.27,1.69.35,3.31.23,4.87-.01.18-.05.57-.1,1.2-.05.61-.23,1.42-.53,2.44-.01.05.02.1.06.1.79.13,1.53.05,2.22.23.18.05.32,0,.48-.02.06-.01.13-.02.2-.01,1.19.09,2.2.17,3.02.23.26.02.46.13.72.07.28-.07.44-.06.78-.05.04,0,.06-.04.04-.07M35.79,48.97c-.27.32-.49.53-.66.62-.11.06-.36.23-.74.53-.45.35-.96.55-1.53.61-.52.06-.82.09-.9.11-.59.15-1.08.12-1.54.06-.69-.09-1.28-.44-1.77-1.06-.04-.04-.06-.1-.08-.15-.33-.99-.63-1.69-.48-2.57.06-.32.1-.65.14-.99.13-1.05.52-1.99,1.18-2.8.1-.12.22-.21.37-.26l1.06-.39s.06-.02.09-.02c.91.02,1.48.52,1.69,1.49,0,.04.06.04.07,0,.17-.98.28-1.56.35-1.72.05-.12.07-.24.07-.37,0-.28.05-.74.14-1.38.21-1.47.42-2.73.61-3.79,0-.02,0-.04-.03-.05-.02,0-.04,0-.05.02l-.31.6c-.03.05-.07.09-.12.11-.39.16-.57.48-.97.62-.56.19-1.1.14-1.61-.16-.04-.02-.08-.05-.11-.09-.68-.73-.63-1.56-.56-2.51.03-.36.13-.65.31-.88.02-.03.03-.06.03-.1l-.02-.3c0-.1.01-.21.06-.3l.4-.84c.04-.09.11-.18.18-.25.3-.3.95-.96,1.36-1.17,1.08-.56,2.76-.42,3.86-.04.49.17.72.6,1.1.74.04.02.08.04.11.08l.3.42s.09.03.1-.02c.24-.99.41-1.89.53-2.7.07-.5.24-.83.26-1.29.01-.36.12-.86.21-1.31,0-.04-.02-.07-.06-.08-.72-.04-1.23-.06-1.54-.07-.21,0-.35-.02-.43-.04-.35-.08-.67-.01-.98-.02-2.22-.07-3.96-.13-5.2-.18-.2,0-.46-.03-.8-.07-.26-.03-.58-.03-.95-.01-.55.03-1.17-.03-1.86-.19-.08-.02-.16,0-.23.03-.16.08-.31.1-.45.06-.06-.02-.11.03-.1.09.13.55.22,1.42.26,2.58,0,.05,0,.11-.01.16-.04.21-.06.36-.05.46.04.94-.08,1.83-.35,2.69-.02.06-.03.13-.03.2,0,.22,0,.37-.03.47-.24,1.05-.56,2.16-.95,3.31-.25.74-.49,1.24-.7,1.5-.07.08-.1.18-.11.28-.04.56-.6,1.3-1.08,1.98-.03.04-.04.1-.04.15.05.42.15.77.27,1.05.04.08.06.16.07.25.09.75.14,1.54.14,2.4,0,.05-.03.21-.1.47-.02.07-.03.15-.03.22.02.78,0,1.43-.07,1.95-.08.56-.37,1.17-.32,1.75,0,.07,0,.15-.03.22l-.22.64s0,.04-.01.06c-.03.69-.1,1.17-.21,1.45-.19.47-.3.84-.34,1.09-.07.51-.21.88-.44,1.11-.04.04-.07.1-.07.17-.02.57-.26,1-.27,1.56,0,.61,0,1.13.02,1.57,0,.05.04.09.09.08.9-.08,1.63-.13,2.19-.14.48-.02.83-.04,1.06-.07.82-.1,1.51-.02,2.27-.13.61-.08,1.17-.16,1.62-.1.21.03.48,0,.82-.09.17-.05.6-.05,1.27,0,.15.01.29,0,.44-.04.25-.06.55-.09.91-.08.07,0,.14,0,.21-.02.64-.11,1.44-.16,2.41-.17.08,0,.14-.06.15-.14,0-.36.05-.66.14-.91,0,0,0-.01,0-.02l.67-5.97s-.04-.05-.06-.02M139.28,48.87s-.06.08-.12.21c-.03.06-.09.13-.2.22-.56.5-1.04.83-1.45,1-.13.05-.53.12-1.2.21-.35.04-.67.12-.96.04-.55-.16-1.3-.16-1.71-.35-.39-.18-.63-.31-.7-.38-.58-.54-1.06-1.26-1.1-2.06-.01-.23-.07-.47-.17-.7-.03-.06-.05-.13-.06-.19-.14-.9-.21-1.71-.21-2.43,0-.54.16-.95.21-1.51.07-.78.36-1.48.8-2.11.03-.04.04-.1.01-.15-.02-.03-.12-.2-.32-.49-.25-.36-.43-.82-.53-1.35-.02-.11-.06-.22-.11-.32-.33-.69-.56-1.41-.7-2.19-.13-.72-.24-1.35-.32-1.89-.08-.53-.13-1.17-.15-1.91-.01-.52.02-.89.1-1.12.02-.06.02-.12,0-.18l-.07-.23c-.04-.13-.04-.26,0-.38.06-.25.13-.43.12-.8,0-.72.15-1.37.46-1.94.02-.04.05-.21.08-.53,0-.04-.03-.08-.07-.08-1,0-2,.04-2.99.1-.21.01-.43,0-.67-.06-.09-.02-.19-.02-.28.01-.19.06-.38.09-.56.1-.88.02-1.59.04-2.14.07-.04,0-.07.05-.05.09.39.71.69,1.32.9,1.81.31.75.54,1.57.67,2.45.09.58.3,1.09.18,1.63-.02.1-.01.19.03.28.23.51.12.95.17,1.51.08,1.05-.03,2.15-.19,3.1-.12.73-.36,1.45-.71,2.16-.07.15-.06.33.05.46.46.58.74,1.21.85,1.89.06.35.19.61.33.89.05.1.12.32.2.68.3,1.31.47,2.83.5,4.54,0,.48-.03.79-.12.93-.02.03-.02.07-.02.1l.09.44s0,.1,0,.15c-.2.6-.13,1.36-.31,2.04-.31,1.17-.46,1.81-.66,2.32-.01.04,0,.08.05.09.38.07.75.1,1.12.1.57,0,.94,0,1.13.03.22.03.84.05,1.87.07.14,0,.28,0,.42.01,1.64.06,2.49.09,2.55.1.43.02.83.13,1.24.09.26-.03.57-.03.93-.02,1.24.05,2.52.1,3.85.17.27.01.44.02.5.02.06,0,.1-.05.09-.1l-.5-6.53c0-.06-.07-.1-.13-.08M58.71,44.73l.63-1.61s.01-.02.02-.04l.88-1.32c.04-.06.1-.12.16-.15.13-.08.32-.25.57-.52.34-.38.78-.63,1.31-.77.37-.09.63-.17.78-.23.06-.02.08-.09.05-.14-.22-.43-.3-.83-.31-1.36,0-.88-.06-1.54-.15-1.99-.03-.16-.03-.33,0-.49l.26-1.57s0-.01,0-.02l.39-1.41s.03-.09.05-.14l.43-.86s0-.08-.05-.09h-.22s-.07-.02-.1-.03c-.74-.29-1.33-.68-1.78-1.15-.06-.07-.12-.14-.15-.22-.15-.32-.36-.73-.65-1.23-.09-.15-.22-.64-.4-1.46,0-.04-.04-.07-.09-.07-1.01-.02-1.54-.04-1.6-.05-.5-.08-1.04-.11-1.6-.07-.41.02-1.6,0-3.56-.08-.05,0-.2,0-.44,0-.93.01-2.32,0-4.17-.05-.04,0-.07.04-.05.08.35.83.52,1.7.53,2.64,0,.14-.02.25-.07.33-.07.12-.07.23,0,.33.21.3.13.93.04,1.25-.02.08-.03.15-.02.23.04.5.04.8,0,.92-.05.13-.1.48-.16,1.06-.16,1.63-.63,3.22-1.41,4.78-.04.08-.07.17-.08.26-.06.36-.31.71-.68,1.28-.03.05-.04.11,0,.17.34.64.55,1.39.62,2.25.05.57.08.97.11,1.19.04.44.05.87.03,1.28-.05.7-.07,1.13-.07,1.29-.01.69-.1,1.48-.26,2.36-.23,1.22-.4,2.28-.82,3.38-.1.26-.22.65-.38,1.18-.03.1-.07.19-.14.26l-.05.08s-.04.07-.06.11l-.49,1.17s.01.07.05.06c.43-.06.78-.05,1.05.03.21.06.44.06.68,0,.22-.05.52-.08.92-.06.14,0,.31-.09.44-.1.89-.05,1.5-.06,1.84-.01.07,0,.14,0,.21-.02.49-.16.98.03,1.47-.08.32-.07.57-.1.75-.09.04,0,.07-.04.06-.08-.31-.83-.45-1.72-.66-2.6-.09-.38-.15-.81-.17-1.31-.08-1.52-.04-3.17.3-4.73.15-.7.52-1.48.94-2.03.3-.38.86-.67,1.46-.69.21,0,.5-.04.87-.12.2-.04.4-.04.6.01.6.15.98.25,1.13.29.34.09.72.35,1.16.78.02.02.06.01.07-.02M99.58,54.62l3.65.03s.05,0,.08,0l.69.09c.06,0,.12,0,.18-.01.29-.07.64-.11,1.06-.1,2.18.05,4.42.08,6.72.1.05,0,.1-.04.11-.09.16-.65.25-1.36.67-1.97.05-.07.09-.15.11-.23l.06-.16s.04-.09.07-.13l.74-1.04s.01-.01.02-.02c.6-.58,1.3-.92,2.12-1.03.02,0,.03-.03.02-.05-.48-.77-.76-1.61-.84-2.52-.14-1.59-.18-2.95.68-4.29.03-.05.02-.11-.03-.14-.07-.04-.29-.04-.41-.09-.45-.21-.87-.4-1.26-.57-.4-.18-.61-.52-1.03-.71-.03-.01-.06-.04-.09-.06l-1.19-1.4c-.06-.07-.07-.16-.05-.25.23-.69.86-1.18,1.47-1.76.02-.01.04-.03.06-.04l1.56-.64s.07-.07.05-.12c-.11-.27-.23-.5-.37-.72-.15-.23-.25-.47-.3-.73-.14-.65-.21-1.05-.23-1.2-.11-1.03.04-2,.46-2.9.01-.02,0-.05-.03-.05-.78-.13-1.46-.48-2.07-1.06-.05-.04-.08-.1-.12-.15-.14-.25-.33-.49-.58-.72-.07-.07-.18-.28-.31-.64-.04-.11-.1-.21-.17-.31-.27-.36-.43-.74-.48-1.14,0-.05-.05-.09-.1-.09-.89-.02-1.7,0-2.43.04-.55.03-.88,0-1.48-.02-.91-.02-1.84.15-2.7.05-.13-.01-.27-.01-.4,0-.23.03-.42.05-.54.05-1.22,0-2.41.02-3.58.04-.03,0-.06.04-.04.07.12.26.35.8.68,1.61.36.9.4,1.83.56,2.7.04.23-.1.44.02.65.06.1.1.26.12.47.1,1.22.05,2.29-.15,3.21-.02.08-.02.15-.01.23.03.31-.02.74-.15,1.29-.25,1.07-.57,1.91-.96,2.52-.03.04-.03.09,0,.14.41.74.65,1.27.73,1.6.11.46.23.9.36,1.3.1.31.15.8.17,1.45,0,.09.01.18.04.26.13.44.18.97.15,1.58-.03.85.04,1.74-.09,2.79-.08.66-.12,1.04-.13,1.13-.14.92-.31,1.64-.53,2.17-.4.97-.6,1.45-.6,1.45-.03.04,0,.1.05.1M76.28,54.68c.7-.02,1.24.15,1.99,0,.09-.02.19-.02.28-.02.7.01,1.62.01,2.74,0,.32,0,.59.14.88.06.13-.04.32-.06.56-.07.61-.02.98-.04,1.12-.04.03,0,.05-.02.06-.04l.48-1.61c.03-.08.07-.16.12-.23l.27-.35s.07-.1.1-.16c.27-.63.82-.99,1.19-1.4.04-.05.1-.08.17-.1.49-.13.99-.24,1.28-.61.05-.06.12-.11.2-.12l.28-.04c.06,0,.08-.07.05-.12-.02-.02-.05-.06-.11-.13-.08-.08-.11-.15-.11-.23,0-.06-.12-.34-.37-.84-.19-.37-.34-1.05-.46-2.05-.03-.26.14-.52.06-.8-.06-.19-.08-.39-.07-.59.03-.5.06-.8.09-.87.06-.16.09-.42.08-.77,0-.26.06-.51.18-.76.22-.44.25-.84.49-1.26,0,0,0,0,0,0l.57-.65c.05-.06.06-.15.02-.21-.49-.78-.8-1.63-.91-2.54-.02-.17-.15-.43-.16-.55-.03-.42-.27-1.47-.21-2.19.04-.4.05-.66.05-.78-.02-.79.03-1.76.15-2.89.05-.42.13-1.01.33-1.41.11-.21.17-.36.17-.46,0-.06.02-.13.06-.18.11-.16.18-.34.2-.54.04-.42.25-.79.42-1.04.03-.05,0-.11-.06-.11-.17.02-.33,0-.47-.03-.08-.02-.16-.03-.24-.02-.59.1-1.22.1-1.92,0-.25-.04-.56.07-.76.05-.26-.04-.45-.04-.57-.01-.11.03-.48.03-1.12.02-.04,0-.07.04-.05.08.36.63.63,1.35.81,2.15.09.4.15.91.16,1.54.02.94.31,1.86.11,2.91-.02.12-.03.23-.02.35.04.96-.1,1.96-.43,3.01-.05.15-.02.38-.1.53-.08.15-.16.36-.23.64-.12.5-.38.89-.71,1.49-.03.05-.02.11.02.16.3.31.51.65.61,1.03.02.08.06.16.1.23.19.29.3.54.32.76.02.24.08.51.16.82.15.53.03,1.13.04,1.73.01.61-.03,1.07-.11,1.4-.09.32-.29.81-.6,1.47-.14.3-.4.56-.54.92-.03.07-.08.14-.14.18-.99.72-2.19.93-3.19.14-.32-.25-.46-.74-.73-.98-.43-.39-.14-.94-.38-1.4-.42-.78-.2-1.72-.15-2.56.04-.7.21-1.44.49-2.21.09-.24.19-.42.3-.54.31-.32.35-.67.68-.99.04-.04.05-.09.03-.14l-.4-.97s0,0,0,0l-.34-1.02c-.04-.12-.07-.24-.1-.36-.01-.08-.07-.55-.19-1.4-.03-.26-.03-.59-.08-.97-.05-.45-.06-.87-.02-1.27.04-.33.06-.76.08-1.28.04-.98.22-2.05.55-3.22.01-.04.05-.12.13-.24.02-.04.04-.09.05-.13.1-.59.36-1.17.77-1.75.03-.04,0-.1-.05-.1-.59-.03-1.09-.03-1.51,0-.36.02-.69-.14-1.09-.11-.81.07-1.73.09-2.76.07-.15,0-.31-.04-.51-.11-.11-.04-.24-.03-.34.03-.15.1-.35.13-.58.09-.03,0-.05.02-.04.05l.57,1.66s.02.08.02.12c-.01.22.06.73.22,1.53.11.55.14,1.46.1,2.72-.01.32-.22.65-.11,1.01.02.06.02.12,0,.18-.15.33-.02.75-.14,1.05-.07.18-.11.39-.12.61,0,.22-.09.47-.23.74-.06.11-.09.23-.09.35,0,.59-.33,1.28-.56,1.8-.03.06-.06.12-.1.18-.18.25-.33.5-.45.77-.02.05-.02.1,0,.14.1.18.24.36.42.53.24.23.42,1.09.46,1.37.11.78.46,1.3.22,2.14-.12.41.09.75.04,1.16-.06.48-.21,1.15-.43,2.01-.1.38-.36.59-.44.96-.06.31-.22.62-.49.92-.03.04,0,.1.04.1.86.05,2.01.92,2.6,1.59.04.04.06.09.09.14.09.21.19.4.32.56.17.21.14.45.31.65.13.15.2.31.24.48.02.12.1.49.23,1.13,0,.05.06.09.11.09M154.73,57.49c-.11.11-.17.2-.16.26,0,.05.06.08.1.06.05-.03.09-.13.12-.29,0-.04-.04-.06-.06-.03M82.45,79.35l4.58-.16s.05-.05.02-.07c-1.02-.62-1.07-1.96-.1-2.7.02-.01.01-.04-.01-.04-1.34-.09-3.29-.63-3.92-1.94-.03-.05-.08-.09-.14-.08l-8.06.51c-.06,0-.1.04-.12.1-.31,1.41-2.48,2.21-3.74,2.41-.04,0-.05.06-.01.08.99.49,1.5,1.3,1.52,2.45.01.76-.4,1.52-1.06,1.91-.03.02-.02.06,0,.07,1.1.44,1.7,1.23,1.78,2.37.03.41-.01.77-.14,1.08-.1.27-.31.56-.61.89-.01.01,0,.03.01.03,1.38-.04,3.32.36,4.01,1.66.02.03.05.05.08.05l7.27-.46s.06-.02.07-.05c.46-1.18,1.6-1.85,2.8-2.06.27-.05.44-.08.49-.1.04-.01.05-.06.02-.09-.87-.77-.99-2.18-.05-2.99.04-.03.01-.09-.03-.09l-4.44.15s-.06.05-.03.08c.53.6.82,1.64.32,2.32-.83,1.13-3.73,1.24-4.7.34-1.2-1.12-.69-2.8.43-3.76.04-.03.03-.1-.02-.12-.1-.04-.23-.13-.39-.25-1.67-1.27-1.97-3.57.54-4.13.44-.1.9-.15,1.4-.16,1.38-.04,3.15.49,2.43,2.31-.04.11-.15.21-.24.34-.02.03,0,.08.04.08M108.71,88l6.83.65s.03-.02.01-.03c-2.01-1.37-3.16-4.52-2.05-6.77.02-.04,0-.09-.03-.12-1.55-1.01-2.48-2.44-2.79-4.3-.15-.88-.02-1.69.39-2.42.02-.03,0-.07-.04-.07l-4.92-.32s-.06.04-.05.07c.47,1.06-.04,2.55-.61,3.51-.75,1.26-1.8,2.19-3.14,2.8-.04.02-.06.06-.05.11.65,2.44-1.23,5.4-3.41,6.41-.03.02-.02.06.01.06l5.1.13s.02-.02,0-.03c-1.15-.76-.39-1.79.63-1.98,1.17-.23,2.34-.18,3.53.14,1.1.29,1.96,1.37.55,2.12-.02,0-.01.04,0,.04M65.9,77.97c0-.09-.42-.14-.92-.11-.5.03-.9.12-.9.21,0,.09.42.14.92.11.5-.03.9-.12.9-.21M63.81,78.15s.03-.06,0-.07c-.03-.01-.05,0-.08,0-.03.01-.02.05,0,.06.04,0,.07.01.07.01M60.54,82.3c.39-.17.71-.34.97-.5.15-.09.36-.31.63-.64.04-.05.08-.08.14-.1l1.03-.4s.07-.03.1-.05c.57-.37,1.27-.57,2.08-.62.04,0,.07-.01.1-.03.27-.15.39-.34.37-.58,0-.06-.04-.11-.09-.14-.81-.5-1.44-.5-2.33-.04-1.05.54-1.85,1.04-2.49,1.98-.06.09-.24.44-.55,1.07-.02.03.01.06.04.04M122.26,79.63c.57,0,.91.03,1.03.1.25.15.77.65,1.13.64.08,0,.13-.09.09-.16-.57-.87-1.32-1.08-2.25-.63-.02.01-.01.04.01.04M119.78,83.46l.68-.39s.04-.03.06-.06c.16-.26.26-.42.58-.54.16-.06.4-.18.7-.37.13-.08.41-.16.83-.24.55-.11,1.29,0,1.79,0,.1,0,.21-.03.29-.09.18-.11.35-.16.52-.15.21.02.29-.26.1-.36-.28-.14-.8-.53-1.25-.61-.68-.13-1.31-.08-1.9.14-.08.03-.15.07-.21.12l-1.2,1.02s-.06.05-.08.09l-.95,1.41s0,.03.02.02M84.86,87.16c.16.02.28.05.34.08.19.08.35.12.49.1.43-.04.86-.07,1.28-.07.41,0,.77.3,1.22.32.05,0,.09-.05.08-.1-.04-.18-.13-.31-.27-.38-.41-.22-.89-.51-1.38-.42-1.03.2-1.62.33-1.77.38-.05.02-.04.08,0,.09M108.97,90.61l1.75.65c.24.09.46.22.64.4.6.57,1.2,1.13,2.08.95.05,0,.08-.06.06-.11-.16-.46-.33-.77-.52-.93-.29-.23-.67-.47-1.15-.72-.61-.32-.98-.57-1.59-.3-.03.01-.07.02-.11.02h-1.17s-.02.03,0,.03"/>
          <path class="cls-3" d="M12.57,38.91c-.09.04-.19.04-.28,0-.58-.27-.95-.55-1.12-.84-.25-.42-.44-1.49-.15-2.07.15-.3-.06-.56,0-.91.16-.88.46-1.68.9-2.43.03-.06.08-.11.12-.15.44-.43.69-.67.72-.72.25-.31.49-.49.73-.53.42-.08.75-.07.98.02.05.02.09.04.13.08.62.57.88,1.3.79,2.18-.01.12-.04.49-.08,1.11,0,.05-.01.1-.02.15-.23.87-.27,1.89-.92,2.7-.09.11-.29.39-.61.86-.04.06-.11.12-.18.15l-1.01.43Z"/>
          <path class="cls-3" d="M56.4,31.91c.06,0,.12.02.17.06l.92.59c.09.06.17.15.21.25.08.22.19.41.33.57.05.06.09.13.1.2.09.35.13.58.13.69,0,.5,0,.8,0,.9.07.77-.17,1.84-.47,2.41-.22.44-.42.81-.6,1.13-.05.09-.18.18-.39.27-.09.04-.17.1-.23.17-.34.41-.81.55-1.41.42-.65-.14-1.07-.43-1.29-1.05-.05-.16-.15-.36-.27-.61-.1-.19-.14-.5-.14-.94,0-.94.1-1.73.26-2.35.07-.26.27-.73.59-1.41.02-.03.03-.06.06-.08l.64-.66s.07-.06.11-.08c.44-.21.68-.49,1.27-.46"/>
          <path class="cls-3" d="M106.99,38.27l-.77-.45s-.05-.03-.07-.05c-.68-.72-.96-1.59-.86-2.61,0-.05,0-.1,0-.15-.18-1.26.28-3.01,1.82-3.05.84-.02,1.17.53,1.53,1.14.06.09.09.2.1.31.02.2.09.38.22.54.06.07.1.17.09.27,0,.39.15.82.13,1.28-.05,1.22-.49,2.95-2.09,2.82-.04,0-.08-.02-.11-.04"/>
          <path class="cls-3" d="M108.47,49.92c-.49.1-.89.08-1.21-.06-.08-.04-.16-.09-.22-.16-.25-.26-.4-.42-.47-.48-.48-.44-.79-1.12-.84-1.74-.04-.5-.11-.84-.2-1.04-.02-.04-.03-.09-.04-.14-.06-.79-.02-1.62.12-2.5.09-.54.32-1.44.9-1.69.18-.08.26-.19.37-.31.2-.23.5-.34.8-.3l.77.11s.04,0,.07.02c.51.21.84.58.97,1.09,0,.04.03.07.05.1l.27.32c.05.06.09.12.11.19.32.84.5,1.95.35,2.92-.08.49,0,.98-.13,1.47-.19.68-.44,1.22-.77,1.62-.05.06-.11.11-.17.15l-.65.4s-.05.03-.08.03"/>
          <path class="cls-3" d="M140.13,77.57l-.72-.61c.72-.04,1.33-.17,1.83-.38.17-.07.26-.21.27-.42,0-.04-.03-.08-.07-.09-1.52-.3-2.38-.46-2.58-.49-.73-.11-1.34-.12-1.86-.03-.87.15-1.4.25-1.59.27-.64.09-1.34.4-1.97.52-.45.08-1.14.19-2.07.32-.74.11-1.57.06-2.49-.15l-1.3-.44c-.45-.76-.97-1.48-1.57-2.15-.08-.09-.17-.16-.28-.2-.24-.11-.51-.29-.81-.53-.12-.1-.29-.31-.51-.64-.2-.29-.47-.54-.82-.72-.85-.47-1.76-.83-2.71-1.1-.03,0-.03-.05,0-.06.25-.13.41-.19.48-.19.5,0,.98-.08,1.44-.22.05-.02.1,0,.14.03.72.67,1.26,1.14,1.63,1.4.21.15.71.45,1.52.91.46.27,1,.52,1.6.76,1.25.5,1.98.78,2.19.86.7.25,1.85.5,2.81.63,1.27.18,2.54.28,3.8.3.7.01,1.34-.06,1.94-.22.05-.02.11,0,.16.02.34.17.79-.13,1.19-.15.13,0,.59-.13,1.39-.36.83-.25,1.4-.49,1.72-.74.02-.02.04-.04.06-.06l.09-.12c.04-.05.09-.09.15-.11.71-.26,1.13-.44,1.26-.54.51-.38.97-.84,1.38-1.4.11-.15.15-.25.13-.31-.01-.05,0-.1.05-.12.17-.08.28-.21.34-.38.1-.3.39-.62.41-.9,0-.05.04-.1.09-.12.1-.04.15-.08.17-.11.02-.02.06-.02.07,0l.59.69c.1.12.22.22.36.3.51.31.93.71,1.53,1.03.73.39,1.23.63,1.5.71.16.05.68.13,1.56.25.22.03.37-.08.55-.07.06,0,.08.07.04.11l-1.24,1.22s-.02.02-.04.03c-.37.22-.89.56-1.55,1.03-.19.14-.59.33-1.18.58-.04.02-.08.03-.13.03-.61.04-1.14.21-1.59.53-.05.04-.11.06-.17.08-.4.13-.81.29-1.13.23-.05,0-.1,0-.15,0-1.14.31-2.52.69-3.82.9-.43.07-.84.17-1.21.3-.04.01-.08.02-.12.03l-.74.06Z"/>
          <path class="cls-3" d="M49.87,77.12l-.92.11s-.06,0-.09,0c-.33-.06-.66-.04-1,.08-.12,0-.22-.01-.28-.03-1.02-.31-2.06-.46-3.12-.46-.72,0-1.48-.04-2.07-.19-1.09-.29-1.81-.49-2.14-.63-1.2-.46-2.08-.82-2.63-1.07-.23-.1-.56-.33-.99-.68-.08-.06-.17-.12-.26-.16-.27-.12-.51-.28-.73-.47-.06-.05-.12-.09-.19-.13-.41-.21-.81-.48-1.21-.84-.03-.03,0-.07.03-.07.49.04.88.04,1.18,0,.58-.09,1.1-.07,1.71-.18.48-.09,1.04-.17,1.68-.24.04,0,.09-.02.13-.03.34-.13.88-.38,1.59-.74.17-.09.36-.12.57-.1.06,0,.11.04.15.08.37.47.72.85,1.07,1.16.03.03.06.08.11.16.25.47.78.94,1.3,1.35.08.06.18.12.28.15.45.14.81.31,1.06.51.09.07.19.11.3.13.4.05.75.21,1.14.28,1.06.18,1.7.29,1.91.3.88.08,1.78.05,2.68-.08.55-.08.95-.13,1.2-.16.77-.07,1.28-.08,1.82-.36.1-.05.2-.08.31-.09,1.19-.13,2.41-.43,3.66-.9.68-.25,1.43-.5,2.25-.74.67-.2,1.09-.13,1.76-.04.06,0,.08.08.05.12-.15.17-.4.42-.76.73-.59.5-.99.99-1.57,1.57-.48.48-.83.96-1.18,1.51-.07.1-.19.16-.31.14-.38-.05-1.04-.16-1.98-.31-.31-.05-.82-.18-1.52-.4-1.63-.5-3.28-.56-4.93-.18-.36.08-.69.24-.99.46-.1.08-.05.24.08.25.29.02.57.08.85.2"/>
          <path class="cls-3" d="M57.92,78.43l-.25-.26c.09-.07.19-.1.29-.09.04,0,.08.04.07.08-.01.11-.05.2-.12.27"/>
          <path class="cls-3" d="M107.02,80.73s.03,0,.03.02c.43.74,1.75,3.17-.33,2.96-2.08-.21-.3-2.33.26-2.97,0,0,.02-.01.03-.01"/>
          <path class="cls-3" d="M127.6,83.48c.18,0,.3.17.37.51.07.29,0,.54-.19.75-.04.06-.11.06-.19,0-.08-.06-.16-.08-.25-.07-.02,0-.02.02,0,.03.28.17.44.29.47.39l.07.7s-.07.06-.14.05c-.85-.13-1.66-.29-2.44-.51-.1-.03-.29-.11-.55-.24-.35-.18-.7-.29-1.05-.33-.02,0-.03-.01-.03-.03,0-.02,0-.03.02-.03.41-.05.82-.23,1.2-.52.05-.04.05-.12,0-.16l-.05-.04s-.03-.1.02-.12l.13-.05c.05-.02.07-.09.04-.14-.02-.03-.03-.04-.03-.04-.03-.04,0-.09.04-.1.71-.14,1.53.23,2.03.69.04.03.08.05.13.06.07.01.13.01.18,0,.07-.02.08-.11.02-.15l-.18-.12s-.09-.07-.11-.13l-.24-.57.76.18Z"/>
          <path class="cls-3" d="M52.48,85.95c.6.27,1.06.58,1.62.74,1.63.45,3.39.54,4.93-.21.66-.32,1.06-.49,1.87-.86.02-.01.05-.03.07-.04l.67-.55s0-.03-.01-.02l-.25.09s-.04.01-.06.02l-1.86.48s-.02-.01,0-.02c1.05-.76,1.99-1.45,3.2-1.73.42-.1.79-.02,1.1.22.05.04.05.11,0,.15-.22.17-.41.39-.55.64-.03.05-.1.06-.14.01l-.12-.15c-.04-.05-.11-.08-.17-.07-.21.02-.34.04-.41.07-.25.09-.37.37-.28.63.06.17.06.44-.02.8,0,.04-.03.08-.07.11l-1.33.93s-.02.02-.04.02c-.4.18-.93.35-1.59.48-2.48.53-4.67-.04-6.57-1.72,0,0,0-.02,0-.03,0,0,.02-.01.03,0"/>
          <path class="cls-3" d="M130,86.04c.04-.19.12-.28.24-.26.39.06.63-.02.72-.26.43-.09.86-.17,1.3-.23.47-.07.9-.14,1.29-.23.83-.17,1.71-.26,2.65-.27.01,0,.02,0,.02.02,0,.01,0,.02-.02.03-.21.07-.44.1-.67.21-1.13.5-2.29.8-3.48.89-.62.05-1.24.09-1.85.13-.09,0-.15,0-.2-.04"/>
          <path class="cls-3" d="M127.25,84.6c1.09.92,2.54,1.41,3.96,1.33-1.09-.56-2.59.33-3.57-.4"/>
          <path class="cls-3" d="M128,84.12c.93.75,2.02,1.31,3.18,1.62"/>
          <path d="M66.32,5.09c1,.85,1.65,1.36,1.97,1.54.44.25.77.44.98.59.06.04.13.05.2.02.47-.18,1.05-.49,1.05-1.02,0-.02.02-.02.03,0l.23.54c.07.16.04.35-.08.48l-.59.66s-.07.06-.11.09c-.95.53-1.93.65-2.96.36-.07-.02-.14-.09-.19-.19-.02-.04-.05-.08-.09-.1l-.94-.6s-.01,0-.02-.01c-.44-.43-.94-.97-1.49-1.62-.79-.93-1.58-1.63-2.46-2.15-.24-.14-.89-.48-1.96-1.04-.67-.35-1.31-.47-1.96-.59-.02,0-.09-.04-.21-.1,0,0,0,0,0,0l-1.88-.08s-.01,0-.02,0c-.18.03-.45.05-.81.05-.25,0-.53.05-.85.14-.71.2-1.31.5-1.81.9-.21.17-.45.31-.71.43-.29.13-.57.36-.84.68-.03.03-.06.06-.09.08l-.45.26c-.06.04-.12.08-.17.14-.56.67-1.19,1.27-1.91,1.78h-.66s-.05-.06-.03-.08c0,0,.04,0,.11-.02.02,0,.49-.61.62-.73.04-.04.08-.09.12-.14.3-.44.62-.85.94-1.25.24-.29.5-.68.79-1.17.17-.28.47-.6.91-.94.71-.56,1.39-.98,2.03-1.25.94-.4,1.54-.67,2.53-.72.88-.05,1.68-.02,2.39.1,2.74.43,5.41,1.71,7.18,3.96.05.07.11.12.17.18l1.02.84Z"/>
          <path d="M117.05,6.59c.82,1.07,1.87,1.74,3.17,2.02.04,0,.09,0,.12-.02l.29-.17s.05,0,.06.02l.02.04s0,.05-.01.06c-.36.26-.75.35-1.17.26-.91-.19-1.7-.54-2.39-1.06-.38-.29-.73-.54-1.05-.75-.89-.59-1.75-1.14-2.58-1.65-1-.61-1.73-1.02-2.19-1.21-2.65-1.12-6.32-1.77-8.96-.31-.63.34-1.09.65-1.38.91-1.31,1.16-2.33,2.9-3.04,4.67-.42,1.04-.86,2.18-1.31,3.43-.39,1.07-.83,2.53-1.32,4.36-.12.46-.26,1.37-.42,2.72-.02.15-.05.3-.09.44-.28.94-.44,1.88-.49,2.82,0,.03-.02.06-.06.06-.03,0-.06-.02-.07-.05l-.09-.35c-.02-.06-.11-.07-.13-.01-.1.22-.13.46-.07.72.05.2-.04.27-.17.38-.04.04-.08.08-.09.14-.1.33-.25.58-.43.77-.18.18-.48.05-.48-.2.02-.65-.11-1.11-.43-1.83-.51-1.14-.64-2.53-.68-3.64-.04-1.12-.1-1.9-.2-2.34-.21-.97-.57-2.27-1.1-3.88-.26-.8-.57-1.48-.92-2.04-.8-1.26-1.49-2.21-2.09-2.87-.61-.68-1.58-1.49-2.9-2.43-.12-.08-.48-.32-1.1-.71-1.67-1.06-3.78-1.66-5.72-1.91-.62-.08-1.04-.1-1.27-.06-.4.07-.86.11-1.38.14-.26.01-.63.09-1.11.24-.26.08-.6.25-1,.5-.52.32-.95.55-1.28.68-1.03.41-2.15.55-3.38.44.12-.07.36-.18.74-.34.79-.32,1.36-.62,1.71-.91.4-.33,1.22-1.08,1.91-1.43.54-.28.9-.55,1.39-.67.88-.21,1.53-.32,1.95-.33,1.55-.03,3.16.08,4.8.34,1.07.17,2.07.49,2.99.98,1.88.98,3.52,2.26,4.92,3.84.14.15.27.4.44.6,1.21,1.4,2.28,2.8,3.2,4.21.52.8.99,1.7,1.4,2.61.02.04.08.03.09-.01.21-1.08.5-2.05.87-2.93.02-.05.02-.11,0-.16-.06-.13-.06-.27.01-.43.02-.05.07-.08.13-.08.02,0,.02,0,.03,0,.04,0,.07-.03.09-.06.19-.36.32-.71.39-1.04.01-.05.03-.1.06-.14.7-1.08,1.27-2.11,1.7-3.09.03-.07.07-.13.12-.19.53-.61.97-1.18,1.34-1.74.12-.18.25-.33.41-.47.72-.63,1.4-1.11,2.02-1.46.31-.17.94-.4,1.89-.69.95-.29,1.87-.4,2.75-.33,1.39.1,2.59.29,3.6.57.09.03.66.23,1.7.61.98.36,1.76.88,2.7,1.46.06.04.12.09.16.14.47.58.8.91.97,1.01.6.35,1.07.67,1.41.98.42.38.75.66.98.84"/>
          <path d="M141.46,7.55c.14.19.26.39.38.6.88,1.52,2.33,2.66,3.97,3.32,0,0,0,0,.01,0l1.07.2c.12.02.15.17.06.24-1.01.77-2.98.18-3.98-.44-1.07-.66-2.23-1.53-3.04-2.5-.57-.69-1.17-1.24-1.81-1.98-.94-1.06-1.66-1.82-2.17-2.27-.22-.19-.72-.5-1.51-.94-.59-.33-1.45-.46-1.95-.47-1.6-.02-3.15.04-4.58.71-.74.34-1.24.53-1.88.93-1.16.73-2.44,1.31-3.85,1.73-.66.19-1.34.33-2.07.39-.09,0-.17,0-.26-.02l-1.05-.29c.32-.11.64-.22.94-.32.34-.11.65-.24.92-.38.41-.21,1.01-.48,1.83-.83.92-.4,1.55-.79,2.31-1.34.28-.2.66-.44,1.15-.71.86-.48,1.37-.76,1.55-.84,1.03-.44,1.8-.69,2.29-.76.46-.07.88-.15,1.25-.25.07-.02.14-.03.21-.03.39-.02.71-.06.96-.1,1.42-.23,3.05.13,4.16.8,1.46.89,2.82,2.18,4.06,3.89.09.12.17.28.23.48,0,.02.01.03.02.05l.74,1.14Z"/>
          <path d="M47.44,7.32c.09,0,.17-.02.24-.07.03-.02.08,0,.08.04l.03.34c0,.06-.02.11-.06.14l-2.37,2.01s-.06.04-.09.06c-.66.38-1.33.62-2.03.71-.11.02-.21.05-.31.1l-.16.09c-.07.04-.14.06-.22.06-.43,0-.76-.02-.99-.06-.56-.12-.95-.19-1.16-.2-1.51-.12-2.7-.83-4.03-1.32-.46-.17-1.09-.4-1.88-.71-.51-.2-.92-.32-1.21-.38-.72-.15-1.57-.45-2.39-.47-.43-.01-.82.02-1.17.09-.41.09-.65.13-.74.14-.07,0-.14.03-.2.06-.5.26-.9.51-1.21.76-.31.24-.5.56-.8.8-.04.03-.07.06-.09.09-.52.67-.9,1.19-1.14,1.58-.33.52-.63.84-.97,1.38-.12.19-.26.36-.41.53-.52.55-.86.9-1.02,1.05-.06.06-.14.1-.23.12-.12.03-.22.08-.3.14-.05.04-.12.06-.19.06-.28-.01-.51-.13-.69-.35-.03-.03,0-.09.04-.09.16,0,.3-.03.43-.08.03-.01.07-.04.09-.06l.54-.63s.02-.03.02-.05c0-.02,0-.04,0-.04.07-.04.11-.08.13-.11.25-.47.49-.94.74-1.42.22-.42.45-.9.69-1.44.5-1.13,1.22-2.24,2.22-3.02,1.26-.99,2.42-1.54,4.02-1.49,1.22.03,2.3.18,3.21.44.39.11,1.93.55,4.61,1.33.39.11,1.42.32,3.08.62.18.03.43.09.73.18.47.13.92.08,1.36-.17.04-.02.09-.04.14-.04.8-.06,1.54-.14,2.22-.24.56-.08,1.05-.24,1.48-.49"/>
          <path d="M164.22,13.51l-.38.17s-.05.06-.03.1l.26.45c.05.09-.04.19-.13.16l-1.21-.43s-.05-.02-.08-.04c-.38-.29-.7-.6-.94-.94,0,0,0,0-.01-.01l-.55-.46s-.02-.01-.02-.02c-.83-1.09-1.16-2.58-2.62-3.1-1.53-.55-3.07-.71-4.59-.5-.63.09-1.05.12-1.25.1-.41-.04-1.12,0-1.68.14-.88.21-1.55.45-2.35.55-1.52.19-2.88.16-4.09-.08-.54-.11-.98-.4-1.33-.88.83.12,1.64.23,2.43.33.28.04.91.03,1.9-.02.67-.04,1.29-.16,1.86-.38.8-.3,1.54-.65,2.23-1.07.07-.04.14-.07.22-.09,1.35-.32,2.13-.5,2.36-.53,1.8-.28,3.52-.18,5.16.3.58.17,1.18.54,1.79,1.12.26.24.56.63.92,1.16.36.54.78,1.33,1.27,2.38.22.47.62,1.04.87,1.61"/>
          <path d="M115.67,9.27s.02-.06.05-.04c.66.46,1.14.74,1.45.84.15.05.28.13.39.23.44.38.9.47,1.4.71.13.06.39.12.78.19.38.07.75.23,1.09.48.16.12.35.2.57.26.05.01.09.06.09.11l.04.47c0,.06.03.11.06.15.02.02.03.03.03.04.03.04.02.09-.02.12l-.12.07s-.05.08-.03.12c.04.07.04.16-.02.26-.02.05-.07.07-.12.08-.33.02-.29.35-.62.33-.23-.02-.47-.09-.72-.2-.53-.24-1.07-.51-1.61-.82-.04-.02-.08-.05-.12-.08-.59-.49-1.15-1.07-1.68-1.75-.22-.29-.33-.66-.55-.94-.18-.22-.22-.41-.35-.63"/>
          <path d="M65.69,10.07s0-.03.01-.04c.01,0,.03,0,.04,0,.1.11.21.22.31.32.43.4,1.35.61,1.93.67.31.03.54-.07.83-.25.64-.42,1.36-.5,2.15-.26.15.05.23.21.17.35-.09.22-.11.4-.06.56.06.21.08.35.06.42-.05.12-.13.19-.23.18-.07,0-.14.04-.18.1-.12.19-.26.32-.43.41-.06.03-.13.04-.19.04-1.21-.1-2.31-.44-3.31-1.04-.62-.37-.82-.85-1.09-1.47"/>
          <path d="M65.29,10.62c-.01-.08,0-.15.01-.2.02-.04.08-.04.1,0,.01.05,0,.12-.03.2-.02.04-.07.03-.08,0"/>
          <path d="M20.24,13.58c-.04.53-.31.92-.82,1.16-.67.31-1.18.57-1.52.79-.03.02-.06.03-.1.04l-.37.11s-.09.04-.12.07c-.22.21-.49.37-.81.46-.07.02-.15.06-.21.1-.53.34-1.04.51-1.53.81-.8.48-1.31.77-1.96,1.29-.78.63-1.23,1-1.37,1.12-.9.78-1.66,1.63-2.29,2.55-.03.04-.06.09-.08.14-.17.44-.33.76-.48.95-.16.21-.26.42-.31.66-.01.07-.13.29-.35.65-.11.18-.3.63-.56,1.35-.02.07-.04.14-.04.21-.07.76-.35,1.41-.46,2.15-.09.58-.21,1.19-.38,1.84-.11.43-.22,1.05-.33,1.84-.1.79-.28,1.73-.53,2.84-.09.41-.36.85-.34,1.3,0,.07,0,.14-.03.21-.07.21-.21.48-.29.79-.25.96-.45,1.7-.61,2.25-.01.05-.02.1-.03.15-.02.25-.02.4-.11.58-.16.34-.25.61-.27.84-.02.32-.17.56-.25.96-.02.11-.25,1.16-.68,3.16-.04.16-.11.42-.24.77-.05.13-.08.27-.09.41-.06.49-.15.95-.28,1.37-.14.47-.1.99-.31,1.47-.04.09-.06.19-.06.28l-.04,5.06c0,.13.01.25.04.38.04.23.21.89.48,1.99.15.59.32,1.09.51,1.47.44.9.83,1.81,1.49,2.58.09.1.48.52,1.17,1.26,1.22,1.31,2.63,2.26,4.22,2.84.01,0,.44.15,1.28.45,1.57.55,3.26.72,4.93.69.48-.01.99-.07,1.52-.18.04,0,.07-.06.05-.1-.56-1.4-.88-2.87-.95-4.41-.08-1.75-.02-3.5.2-5.27.07-.57.16-1.33.26-2.28.07-.62.2-1.57.39-2.83.19-1.25.38-2.41.57-3.5.08-.47.23-.9.28-1.38.04-.36.11-.7.21-1.04.03-.1.05-.21.07-.32.07-.6.15-1.05.24-1.36.28-.98.38-1.78.67-2.76.12-.41.1-.78.25-1.16.22-.58.27-1.19.44-1.8.35-1.3.61-2.12.82-3.03.18-.77.34-1.15.7-2.14.04-.11.14-.15.15-.28,0,0,0-.02,0-.03l-.06-.72s0-.02.02-.02h0s.03.01.04.03c.01.4.13.73.36,1,.29.34.12.71.18,1.09.07.41-.04.66-.02,1.06,0,.12-.02.28-.07.49-.01.04-.1.53-.26,1.47-.1.57-.06.83-.05,1.43,0,.08-.01.16-.04.23-.15.45-.24.95-.27,1.5,0,.08-.02.16-.04.24-.03.12-.12.5-.28,1.14-.1.41-.07.75-.24,1.16-.09.23-.19.64-.3,1.23-.12.64-.35,1.31-.46,1.88-.38,1.96-.69,3.28-.9,4.92-.27,2.13-.5,4.06-.7,5.79-.07.63-.12,1.36-.15,2.2-.04,1.4-.06,2.13-.06,2.2-.02.59.08,1.55.14,2.06.15,1.22.4,2.2.75,2.95.26.54.52.94.79,1.19.48.45.79.73.92.86.05.05.11.09.17.13.71.43,1.14.67,1.27.71,1.08.36,2.71.73,4.88,1.14.11.07.17.08.19.03l.77.1c.05.04.09.04.12,0l2.94.37.95.09c.79.05,1.6.13,2.36.05.84-.09,1.87-.3,3.08-.62.34-.09.52-.14.52-.14.05-.02.1-.04.14-.07.48-.37.86-.78,1.14-1.24.03-.05.04-.12.03-.18-.23-1.02-.36-1.84-.38-2.44-.12-2.66-.17-4.07-.17-4.24,0-.89.02-1.99-.03-2.88-.06-1.07-.1-2.2.09-3.23.08-.47.08-.97.19-1.52.29-1.4.48-2.26.56-2.59.13-.52.37-1.19.7-2.02.03-.08.05-.16.05-.22,0-.12,0-.19.01-.19.03-.03.07-.01.08.03.02.21.11.34.26.4.11.04.17.13.18.26.01.26.04.45.08.58.15.45.06.88.09,1.39,0,.05,0,.11-.01.16-.16.72-.21,1.35-.14,1.87.07.58-.06,1.16.09,1.72.02.07.03.14.02.22-.04,1.1.09,1.82.27,3.37.08.67.02,1.31.17,1.89.15.6-.02,1.03.12,1.57.03.12.06.35.08.69.06.99.02,1.57.21,2.35.1.4.32,1.62.66,3.68.12.7.4,1.43.87,2.19.32.52.73.81,1.26.86,1.52.16,2.74.2,3.64.13,1.16-.09,2.27-.2,3.33-.33.9-.11,2.06-.38,3.47-.79.03,0,.06-.02.08-.04l.1-.09s.07-.04.11-.05c.73-.12,1.32-.27,1.77-.44,1.1-.42,2.05-.73,2.94-1.14.99-.46,1.61-.76,1.85-.9.41-.24,1.07-.78,1.97-1.63.09-.09.16-.2.2-.32.17-.52.42-.93.74-1.24.07-.07.11-.15.13-.25.16-1.07.25-1.92.27-2.56.04-.98-.19-2.3-.26-3.27-.05-.69-.27-1.4-.26-2.11,0-.42,0-.72-.03-.87-.12-.66-.05-1.18-.11-1.88-.01-.15.04-.59.16-1.33.08-.46.28-1.15.6-2.06.34-.97.61-1.87.79-2.71.08-.35.12-.82.12-1.42,0-.58.02-1.24.06-1.98.07-1.28-.06-2.27-.04-3.48,0-.39-.02-.89-.06-1.5-.16-1.99-.34-3.74-.53-5.27-.12-.92-.35-1.79-.69-2.63-.19-.48-.33-.9-.42-1.28-.14-.61-.27-1.07-.39-1.37-.41-1.02-.48-2.08-.87-3.09-.07-.19-.12-.4-.13-.61-.05-1.13-.07-1.78-.05-1.95.08-.84.23-1.61.48-2.31.01-.03.06-.03.06,0,.09.58.13,1.06.13,1.44,0,.59.03,1.07.1,1.43.13.62.35,1.22.67,1.79.4.73.53,1.18.9,1.91.4.79.68,1.58,1.02,2.34.12.28.25.6.38.95.45,1.25.82,2.27,1.12,3.05.17.45.34.97.43,1.5.25,1.43.42,2.75.54,3.94.02.24.03.48.03.73,0,.43,0,.83.05,1.2,0,.07,0,.15-.01.22-.08.35-.12.73-.13,1.16,0,.03-.02.1-.06.19-.02.05-.03.09-.04.14-.1.98-.2,1.4-.35,2.18-.3,1.58-.45,2.37-.45,2.38-.04.37-.19.96-.46,1.77-.41,1.26-.62,2.61-.9,3.7-.02.07-.01.14.02.21.13.31.18.64.15.98-.02.25-.03.55-.01.9.06,1.37.19,2.73.38,4.1.11.77.33,1.71.66,2.83.21.7.34,1.09.39,1.16.21.32.35.67.42,1.05.01.06.04.12.08.17.27.35.37.96.52,1.39.04.1.1.19.19.26l1.33,1.01s.01,0,.02.01c.73.79,1.61,1.34,2.65,1.63.64.18,1.13.36,1.47.54.08.04.24.05.48.02.13-.02.21.01.27.13.02.04.06.07.1.07h.17c.05.01.08.07.05.11-.02.03-.05.06-.09.09-.04.03-.05.08-.02.12l.25.3c.12.14.07.35-.09.43-.89.42-1.68.26-2.65.2-.99-.06-1.66-.18-2.52-.53-.13-.05-.27-.08-.41-.07-.47.02-.97-.06-1.5-.24-.01,0-.02,0-.03-.02l-.99-.7s-.09,0-.09.05c0,.03-.09.37-.27,1.01-.05.19-.18.43-.38.71-.02.03,0,.08.04.08l2.63-.09s.05,0,.08,0l2.21.45s.03,0,.04,0l3.24,1.11s.04.09,0,.09l-.89.12s-.07,0-.11,0c-.34-.07-.79-.13-1.36-.16-.37-.02-.81.01-1.33.1-.85.15-1.41.22-1.7.23-.83.02-1.45.09-1.85.19-.55.14-1.09.3-1.65.49-.87.29-1.65.72-2.35,1.28-.96.77-1.63,1.39-2.01,1.85-1.18,1.45-1.93,2.53-2.51,4.09-.18.49-.56,1.62-1.15,3.39l-.36.85s-.02.04-.04.05l-.23.2c-.07.06-.18.03-.21-.05-.12-.3-.17-.47-.39-.68-.52-.51-.81-.87-.83-1.66-.03-1.13.19-2.4.67-3.53.12-.29.23-.59.34-.88.07-.07.11-.16.12-.27,0-.04-.03-.08-.07-.08-.11,0-.21.03-.29.09-.29.15-.53.23-.73.24-.18,0-.56-.01-1.15-.06-.36-.03-.73-.1-1.13-.22-.96-.29-1.79-.51-2.48-.66-.19-.04-.34-.2-.58-.15-.07.02-.16,0-.29-.03-.5-.13-.98-.19-1.46-.17-.28-.11-.56-.18-.85-.2-.13,0-.18-.17-.08-.25.29-.23.62-.38.99-.46,1.65-.38,3.29-.32,4.93.18.7.21,1.21.35,1.52.4.94.15,1.6.26,1.98.31.12.02.24-.04.31-.14.36-.55.7-1.03,1.18-1.51.58-.58.99-1.06,1.57-1.57.36-.31.62-.55.76-.73.04-.04.01-.11-.05-.12-.66-.09-1.08-.15-1.76.04-.82.24-1.57.49-2.25.74-1.25.47-2.47.77-3.66.9-.11.01-.21.04-.31.09-.55.28-1.06.29-1.82.36-.25.02-.65.08-1.2.16-.9.13-1.8.16-2.68.08-.21-.02-.85-.12-1.91-.3-.4-.07-.74-.24-1.14-.28-.11-.01-.22-.06-.3-.13-.25-.2-.6-.37-1.06-.51-.1-.03-.2-.08-.28-.15-.52-.41-1.05-.88-1.3-1.35-.04-.08-.08-.13-.11-.16-.35-.31-.71-.69-1.07-1.16-.04-.05-.09-.08-.15-.08-.2-.02-.39.02-.57.1-.72.36-1.25.6-1.6.74-.04.02-.09.03-.13.03-.64.08-1.2.16-1.68.24-.61.11-1.13.09-1.71.18-.3.05-.69.05-1.18,0-.04,0-.06.04-.03.07.4.35.8.63,1.21.84.07.03.13.08.19.12.22.19.46.35.73.47.09.04.18.1.26.16.43.35.76.57.99.68.56.25,1.43.61,2.63,1.07.34.13,1.05.34,2.14.63.59.16,1.35.2,2.07.19,1.06,0,2.1.14,3.12.46.07.02.16.03.28.03.03.04.09.07.18.09.89.15,1.82.06,2.67.32.04.01.04.08,0,.09-.35.08-.68.15-.98.2-.24.04-.52-.04-.69.06-.05.03-.1.04-.16.03-.07-.02-.36,0-.85.04-.36.03-.66.14-.91.31-.04.03-.09.04-.14.04-1.85.04-2.95.09-4.57.41-.07.01-.14.02-.21.01-.17,0-.53-.03-1.09-.08-.32-.02-.58.03-.92-.12-.05-.02-.1-.04-.16-.03-.42.01-.78-.05-1.07-.19-.18-.08-.32-.12-.42-.13-.24-.02-.34-.2-.56-.23-.15-.02-.32-.08-.52-.17-.05-.02-.11-.04-.17-.06-1.06-.27-1.96-.75-2.69-1.44-.6-.56-1.2-1.16-1.79-1.81-.58-.63-.81-1.21-1.31-2.15-.03-.06-.09-.1-.15-.11l-1.09-.21s-.08,0-.12.02l-.04.02s-.05.02-.07,0c-.19-.06-.38-.08-.58-.06-.04-.02-.09-.02-.15-.02-.16-.01-.3-.05-.44-.12-.05-.02-.11-.03-.16-.03-.36.02-.71-.05-1.06-.23-.08-.04-.17-.06-.27-.06-.21,0-.41-.05-.61-.15-.08-.04-.16-.07-.25-.08-.77-.1-1.47-.19-2.15-.5-.17-.08-.42-.14-.75-.18-.7-.09-1.44-.42-2.21-.99-.04-.03-.08-.05-.12-.06-.47-.14-.88-.41-1.22-.81-.21-.25-.44-.29-.67-.14-.04.03-.1.04-.15.04-.61-.02-1.23-.1-1.86-.25-.07-.02-.14.01-.19.09-.03.04-.08.07-.14.08-1,.13-1.67-.02-2.92-.22-.05,0-.1-.03-.15-.05l-.13-.08s-.08-.02-.12.01c-.05.04-.13.05-.25.04-.54-.07-1.04-.19-1.5-.36-1.11-.4-1.85-.67-2.21-.8-.39-.15-1.02-.47-1.88-.97-1.64-.95-2.86-2.15-4.17-3.6-.41-.45-.76-.97-1.06-1.58-1.01-2.03-1.65-3.45-1.92-4.27-.05-.15-.21-.84-.48-2.08-.18-.83-.27-1.53-.25-2.12.04-1.28.13-2.11.18-3.26.05-1.38.13-2.28.22-2.69.38-1.63.78-3.42,1.22-5.36.03-.12.06-.24.09-.36.15-.51.27-1.03.36-1.55.08-.42.3-1.25.67-2.46.77-2.52,1.16-3.83,1.19-3.93.12-.44.25-.91.4-1.44.12-.44.23-.93.33-1.46.19-.99.32-1.64.41-1.95.23-.78.28-1.49.48-2.27.14-.58.27-1.06.36-1.45.07-.27.16-.54.28-.82.25-.59.44-1.13.75-1.55.07-.1.21-.34.43-.73.18-.34.46-.56.6-.91.01-.03.09-.16.22-.38.59-.96,1.41-1.88,2.46-2.75.54-.45,1.02-.76,1.43-.95.31-.14.58-.29.8-.46.19-.13.47-.26.84-.37.08-.02.15-.06.23-.09.4-.22.73-.36.97-.41,1.2-.26,2.24-.55,3.13-.86.12-.04.76-.28,1.91-.71.18-.07.35-.23.49-.5,0-.01.02-.01.03,0h0s.01.02,0,.03c-.12.17-.2.35-.26.54"/>
          <path d="M25.18,13.1c-.13.62-.28,1.04-.47,1.26-.38.45-1.2,1.3-1.88,1.32-.12,0-.22-.09-.21-.21v-.32c0-.05.04-.1.09-.12.65-.26,1.09-.52,1.31-.76.72-.78,1.09-1.18,1.11-1.2.02-.02.06,0,.05.03"/>
          <path d="M184.73,41v.95s.11,1.51.11,1.51c-.03.12-.02.21.03.28v.08s.02.92.02.92c.03.09.03.18.01.26-.04.25-.03.49.03.72.02.04.02.09.01.15l.04,1.54s.05.1.04.19l.02.53.03,2.05v.53s0,.16,0,.16v1.07s0,.47,0,.47v.23c-.04.13-.05.34-.03.63.06.82.05,1.88-.04,3.2-.02.26-.06.56-.13.88-.12.58-.18.88-.18.88-.03.35-.09.64-.19.85-.02.04-.12.31-.31.82-.02.05-.03.1-.03.15-.04.59-.49,1.13-1.04,1.37-.05.02-.08.07-.08.13.01.21-.06.41-.21.59-.04.05-.07.1-.09.15-.31.72-.58,1.2-.8,1.45-.14.16-.25.31-.33.47-.01.03-.03.05-.05.07-.33.35-.7.64-.85,1.01-.03.08-.08.15-.15.22-1,.97-1.99,1.77-2.96,2.4-.11.08-.35.15-.71.21-.05,0-.09.02-.13.04-.89.44-1.76.74-2.62.9-.56.11-.97.2-1.22.26-.05.01-.1.02-.16.02-.72,0-1.12.02-1.2.03-.75.15-1.21-.07-2.24-.38-.05-.01-.09-.03-.13-.06l-.76-.46c-.03-.18-.2-.25-.25-.55,0-.04.03-.07.07-.06.16.04.24.06.25.05,2.38-.1,4.52-.8,6.43-2.08.41-.28.76-.54,1.06-.79.8-.67,1.28-.97,1.94-1.62.86-.85,1.81-1.57,2.54-2.47.16-.2.61-.88,1.36-2.05.04-.06.07-.12.09-.18.31-.85.52-1.48.64-1.89.12-.43.12-.77.22-1.17.02-.09.03-.25.04-.47,0-.43.05-1.04.13-1.83.05-.4.01-.74.08-1.16.09-.55.08-1.64-.01-3.28,0-.07,0-.15,0-.22.09-.6.08-1.22-.05-1.88-.03-.14-.03-.35,0-.64,0-.12,0-.24-.04-.35-.12-.38-.15-.81-.09-1.3,0-.04,0-.09,0-.14-.09-1.18-.24-3.16-.47-4.68-.4-2.61-.58-4.41-1.2-6.24-.12-.36-.2-.61-.25-.77-.34-1.16-.75-2.29-1.06-3.38-.19-.67-.37-1.19-.54-1.56-.28-.6-.49-1.12-.64-1.55-.04-.13-.1-.26-.18-.37-.24-.36-.46-.78-.67-1.26-.41-.93-.79-1.47-1.15-2.34-.21-.51-.47-1.05-.78-1.63-.13-.24-.36-.87-.69-1.9-.27-.82-1.09-1.28-2.06-1.73-.32-.15-1.11-.43-2.38-.84-.77-.25-1.48-.27-2.24-.44-.14-.03-.28-.04-.42-.03-.06,0-.12,0-.17-.04-.23-.13-.46-.24-.69-.35-.57-.26-1.09-.61-1.55-1.04.02-.27-.04-.51-.19-.7-.02-.03,0-.08.04-.07,0,0,.04.03.11.1.03.03.07.06.12.08.38.15.78.24,1.22.27.74.04,1.01.12,1.68.17.17.01.43.06.78.13,1.38.31,2.47.62,3.27.93.66.25,1.5.67,2.53,1.25.94.53,1.66,1.29,2.16,2.29.31.62.66,1.55,1.08,2.33.99,1.84,1.95,3.78,2.88,5.83.31.69.82,1.89,1.07,2.81.17.64.45,1.57.83,2.79.32,1.01.51,2.1.77,3.23.07.29.16.93.28,1.92.08.67.32,2.09.43,3.37"/>
          <path d="M66.82,14s0-.06.02-.05l.46.11s.03.01.04.02l.96.87s.06.06.09.1c.09.14.39.47.9,1,.32.33.61.67.84,1.02.15.21.5.7,1.05,1.44.15.2.24.42.28.67.09.56.37,1.01-.06,1.53-.18.22-.31.42-.38.62-.04.12-.19.16-.29.08-.62-.47-.99-1.49-1.02-2.2-.04-.84-.29-1.62-.73-2.3-.36-.56-1.01-1.47-1.96-2.74-.03-.04-.1-.1-.21-.17"/>
          <path d="M166.87,68.21c-.05-.02-.1,0-.15.08-.04.06-.07.18-.11.35-.01.05-.05.09-.1.09-.16.03-.21.17-.3.25-.3.28-.62.55-.94.83-.06.05-.24.1-.54.14-.04,0-.08.04-.1.08l-.02.06s-.03.06-.06.09l-.65.5s-.02.01-.03.01c-.16.02-.38.13-.66.32-.04.03-.09.05-.13.07-.4.17-1.42.53-1.98.42-.02,0-.04,0-.05,0l-.84.17s-.03,0-.05.02c-.31.14-.58.22-.81.23-.28.02-.52.07-.73.15-.14.06-.41.1-.8.13-.42.03-1.02.16-1.81.38-.06.02-.12.02-.17.02h-.5s-.08.03-.08.07c.07.56.09,1.01.08,1.36,0,.03-.04.18-.12.47-.01.04-.04.08-.07.11-.18.13-.28.32-.31.57,0,.05-.02.09-.06.12-.19.21-.61.66-.95.91-1.26.91-2.53,1.7-3.92,2.06-.54.14-1.01.28-1.42.42-.03.01-.06.02-.09.02l-1.69.13s-.04,0-.05.01c-.67.23-1.33.24-2,.03-.22-.07-.88-.11-1.98-.13-.12,0-.24-.02-.36-.05-1.01-.25-1.8-.41-2.38-.48-.38-.05-.8-.06-.94-.25-.04-.06-.12-.1-.22-.13-.04,0-.04-.06,0-.07l1.38-.2.74-.06s.08-.01.12-.03c.37-.13.78-.23,1.21-.3,1.3-.21,2.68-.59,3.82-.9.05-.01.1-.02.15,0,.33.06.74-.1,1.13-.23.06-.02.12-.05.17-.08.45-.32.98-.49,1.59-.53.04,0,.09-.01.13-.03.59-.25.99-.44,1.18-.58.67-.47,1.18-.82,1.55-1.03.01,0,.03-.02.04-.03l1.24-1.22s.02-.11-.04-.11c-.18-.01-.33.1-.55.07-.88-.11-1.41-.2-1.56-.25-.27-.08-.77-.32-1.5-.71-.6-.32-1.01-.72-1.53-1.03-.13-.08-.25-.18-.36-.3l-.59-.69s-.05-.02-.07,0c-.02.03-.07.06-.17.11-.05.02-.08.07-.09.12-.02.28-.31.59-.41.9-.06.17-.17.3-.34.38-.04.02-.07.07-.05.12.02.06-.03.17-.13.31-.41.55-.87,1.02-1.38,1.4-.13.1-.56.28-1.26.54-.06.02-.11.06-.15.11l-.09.12s-.04.04-.06.06c-.32.25-.89.49-1.72.74-.79.24-1.25.36-1.39.36-.4.02-.85.32-1.19.15-.05-.03-.11-.03-.16-.02-.59.16-1.24.23-1.94.22-1.26-.02-2.52-.12-3.8-.3-.95-.13-2.1-.39-2.81-.63-.21-.07-.94-.36-2.19-.86-.6-.24-1.13-.49-1.6-.76-.8-.46-1.31-.76-1.52-.91-.36-.26-.9-.73-1.63-1.4-.04-.03-.09-.05-.14-.03-.46.14-.93.21-1.44.22-.07,0-.23.06-.48.19-.03.02-.02.06,0,.06.96.26,1.86.63,2.71,1.1.34.19.62.43.82.72.22.33.39.54.51.64.3.25.57.42.81.53.11.05.2.12.28.2.6.67,1.13,1.38,1.57,2.14.55.93.9,1.55,1.04,1.87.34.78.72,1.96,1.13,3.55,0,0,0,.02,0,.03l.09,1s0,.02-.02.02c-.06,0-.08.15-.06.41.02.21-.04.36-.17.43-.04.02-.07.06-.08.1-.07.18-.19.34-.35.5-.03.03-.07.05-.12.06-.24.05-.39.16-.44.31-.03.09-.14.1-.2.03-.15-.18-.29-.31-.43-.39-.07-.35-.19-.52-.37-.51.05,0,.09,0,.11-.03.03-.03.03-.06,0-.11-.53-.85-.48-1.72-.75-2.64-.41-1.39-.96-3.07-1.81-4.25-.22-.31-.62-.68-1.18-1.12-.21-.16-1.01-.61-2.42-1.36-.06-.03-.12-.05-.18-.07-.48-.13-.82-.24-1.04-.31-.65-.24-1.19-.29-1.86-.54-.27-.1-.67-.21-1.23-.33-.49-.11-.9-.21-1.24-.31-.65-.2-1.38-.09-2.2,0-.69.08-1.29.16-1.8.27-.06.01-.12,0-.16-.05-.05-.05-.1-.13-.14-.24-.02-.06-.08-.09-.13-.08l-1.3.15s-.09,0-.14,0c-.38-.04-.95-.08-1.71-.12-.17,0-.36-.08-.58-.22-.04-.03-.08-.05-.13-.06-.25-.09-.45-.2-.63-.34-.03-.02-.04-.06-.03-.09l.1-.49s.03-.03.04-.02c.15.1.29.15.42.13.08,0,.16,0,.24,0,.47.08.78.11.94.1.75-.06,1.37-.1,1.85-.1.07,0,.14-.03.18-.09.01-.01.02-.02.02-.02.04-.05.1-.08.16-.1,1.07-.33,1.96-.4,2.9-1.12,1.06-.82,1.73-1.36,2-1.62.03-.03.19-.19.47-.48.02-.02.04-.05.06-.08l1.26-2.34s0-.02.01-.03l.72-1.68s0-.01,0-.02c.13-.47.48-1.45.57-2.27.07-.64.1-.98.11-1.01.08-.37.11-1.01.11-1.93,0-3.63-.11-6.85-.33-9.66-.17-2.18-.71-4.98-.97-7.05-.19-1.48-.37-2.72-.53-3.72-.12-.74-.13-1.33-.25-2.06-.12-.69-.07-1.43-.16-2.13-.06-.55-.1-.92-.1-1.13,0-.79-.22-1.65-.26-2.36-.02-.41-.07-.82-.14-1.22-.06-.39-.04-.95,0-1.28.1-.99.17-1.84.2-2.55,0-.07.01-.14.03-.21.13-.54.12-1.01.23-1.51.2-.9.29-1.64.57-2.29.15-.36.26-.68.33-.96.53-2.18,1.2-4.35,3.47-5.28.1-.04.21-.02.29.06.22.24.22.52.02.83-.16.25-.31.45-.43.6-.03.03-.06.06-.09.08-.33.23-.5.54-.51.92,0,.07-.02.15-.06.21-.23.4-.45.99-.67,1.79,0,.02-.02.04-.03.06l-.13.2s-.03.06-.04.1l-.35,1.97s0,0,0,.01l-.37,2.83c-.02.11-.02.23-.01.34.05,1.02-.09,1.98-.42,2.88-.03.09-.04.18-.03.26,0,.04-.01.09-.05.11-.21.16-.28.4-.19.7.02.05.08.05.1,0,.58-1.43,1.2-2.76,1.88-3.98.04-.07.07-.14.09-.21l.35-1.37s.01-.05.02-.07c.22-.49.34-.83.35-1.03.01-.15-.01-.55-.08-1.21-.02-.24-.14-.36-.21-.55-.02-.04.03-.07.06-.06l.49.25c.05.03.09.07.11.13.21.51.31,1.01.31,1.5,0,.1.01.2.05.3.06.18.15.51.27.97.24.95.04,2.12-.16,3.14-.04.21-.1.43-.2.68-.32.86-.77,2.14-1.05,3.28-.23.95-.62,1.79-1.15,2.52-.04.05-.09.27-.14.65,0,.05-.05.09-.11.09-.03,0-.06,0-.09-.03-.12-.08-.28,0-.26.14.14,1.49.31,3.03.52,4.64.09.73.18,1.25.26,1.57.14.54.21.88.22,1.03.03.3.09.65.19,1.04.15.62.25,1.3.27,2.05,0,.05.01.11.03.16.26.77.2,1.85.42,2.59.07.25.19,1.28.36,3.08.17,1.82.27,3,.32,3.55.02.29.02.67-.01,1.14,0,.05,0,.11.01.16.07.27.11.61.12,1.01.04,1.21.06,2.24.04,3.09,0,.19,0,.34,0,.43-.03,1.21-.12,2.25-.27,3.11-.07.38-.23.63-.28,1.03-.01.11-.06.23-.14.36,0,0,0,.02-.01.03l-.2,1.15s-.01.04-.03.06c-.1.11-.12.24-.06.39.03.07.13.05.13-.03,0-.38.05-.77.18-1.17.03-.08.05-.16.07-.24.1-.38.22-.75.36-1.09.02-.04.07-.06.11-.04.41.19.57.52.46.98-.04.19.14.57.29.77.28.35.49.72.63,1.11.02.04.03.08.03.12.09.49.18.81.28.97.19.29.4.65.63,1.06.04.07.09.13.16.18.61.45.99.75,1.16.9.96.88,1.87,1.5,2.71,1.86,1.77.75,3.15,1.27,4.15,1.55,1.1.31,2.35.41,3.78.31,1.19-.08,2.51-.46,3.98-1.12,1.76-.8,3.26-1.89,4.48-3.26.55-.62,1.3-1.62,2.23-2.99.04-.05.06-.12.06-.19.09-2.12.08-3.63-.02-4.56-.2-1.74-.62-4.18-1.27-7.31-.11-.52-.34-1.06-.47-1.53-.52-1.9-.95-3.82-1.3-5.76-.08-.47-.16-1.15-.07-1.47.14-.53.22-.86.24-1,.12-.84.05-1.98.15-2.87.11-.98.27-2,.48-3.07.13-.66.04-1.55.11-2.11.08-.64-.08-1.25-.03-1.92.15-1.88-.18-3.44-.6-5.52-.12-.59-.27-1.09-.44-1.48-.28-.65-.46-1.14-.52-1.45-.05-.26-.24-.76-.57-1.48-.19-.41-.36-.96-.53-1.65-.06-.24-.13-.44-.21-.61-.16-.31-.23-.51-.23-.59,0-.12-.06-.31-.19-.59-.09-.18-.13-.39-.12-.63.03-1.75.09-2.8.17-3.17.13-.61.35-1.25.67-1.93,0,0,0,0,0,0,0,.03,0,.06-.02.08-.02.04-.03.06-.02.08.08.34.09.61.02.82-.02.05,0,.1.02.15.05.07.05.16,0,.28-.04.1-.05.19-.04.27.03.21.05.48.04.8,0,.14.02.29.07.42.37,1.07.86,2.1,1.47,3.09.04.07.14.05.16-.03.22-1.34.73-2.6,1.53-3.79.37-.55.81-.99,1.3-1.3.56-.35,1.13-.6,1.7-.74.04-.01.08.03.07.07-.09.49-.26.9-.53,1.23-.04.05-.09.1-.15.13-.53.33-.42.53-.7.93-.05.07-.09.14-.12.22-.34.85-.63,1.81-.87,2.88-.1.44-.15.84-.16,1.2-.01.39-.04.8-.07,1.24,0,0,0,.02,0,.03l-.43,1.37c-.06.18-.03.37.06.53.17.3.43.74.52,1.31.06.39.19.82.39,1.3.09.21.14.41.15.61,0,.03.05.24.14.61.17.68.13,1.49.19,2.13.1,1.04.05,1.81.07,3,.01,1.07-.1,2.14-.36,3.21-.02.07-.02.13-.03.2,0,.29-.02.47-.03.55-.17,1.01-.28,1.69-.32,2.03-.15,1.22-.43,2.29-.65,3.65-.02.1-.02.2-.02.3l.09,1.47s.02.08.04.11l.19.28c.04.05.06.11.08.18.15.51.23.85.25,1.03.08.73.31,1.34.41,2.16.01.11.04.22.07.33.13.47.22.92.26,1.34,0,.08.02.16.05.24.34,1.09.62,2.24.84,3.45.09.48.19.9.32,1.26.25.68.4,1.05.51,1.65.2,1.18.33,2.12.38,2.79.02.24.02.43,0,.58-.01.09-.02.13-.02.13-.02.03-.06.01-.06-.02,0-.09-.04-.14-.12-.13-.04,0-.07.03-.08.07-.04.29-.03.58.04.87,0,.04.01.07.02.11.05.43,0,1.15.03,1.91.04.96-.06,1.87-.32,2.73-.03.09-.05.35-.08.77,0,.05-.02.1-.04.15-.09.19-.19.51-.27.96-.03.14-.11.28-.25.41-.03.03-.04.06-.04.1,0,.02,0,.03,0,.05,0,.03,0,.04,0,.04-.02,0-.02-.02.01-.04.03-.02.07,0,.06.04-.03.15-.09.26-.18.34-.11.09-.1.26.02.34.45.27,1.13.53,2.05.79.71.2,1.42.31,2.13.33,1.44.04,2.39.03,2.85-.03.41-.05,1.59-.34,3.55-.85.75-.2,1.15-.31,1.2-.34.17-.1.55-.26,1.15-.46.86-.29,1.68-.75,2.47-1.37.03-.02.4-.32,1.11-.89.3-.24.49-.42.57-.55.64-.97,1.33-1.89,2.08-2.77.05-.05.08-.12.09-.19.14-.6.24-1.19.29-1.78.05-.61.15-1.55.29-2.82.03-.26.04-.48.02-.67-.09-.97-.17-2.14-.23-3.54-.02-.5-.07-1.01-.15-1.54-.1-.66-.17-1.59-.17-2,0-.04,0-.08-.02-.11-.08-.23-.14-.65-.17-1.25-.04-.73-.35-1.68-.41-2.38-.03-.38-.15-1.18-.25-1.69-.32-1.6-.59-3.17-.82-4.72-.39-2.68-.62-4.26-.7-4.74-.38-2.23-.81-4.99-1.31-8.31-.16-1.05-.38-1.91-.58-2.84-.12-.55-.17-1.24-.15-2.08.02-1.08.12-2,.28-2.74.14-.62.22-1.07.24-1.35.06-.7.31-1.35.77-1.94,0,.21.02.43.04.65.01.13,0,.26-.04.38-.25.81-.29,1.64-.14,2.49.1.52.15.94.17,1.24.02.41.06.72.1.91.09.4.14.7.16.9.09.96.21,1.7.35,2.23.42,1.62.67,2.62.76,3,.07.33.23.77.3,1.15.28,1.51.46,2.43.51,2.76,0,0,.02.19.06.53.03.26.18,1.06.46,2.41.38,1.88.54,3.21.9,5.51.07.48.13.75.17.81.02.04.04.09.04.14,0,.53.07,1,.19,1.41.03.1.04.2.04.3,0,.53.09,1.09.24,1.7.34,1.35.42,2.77.63,4.08.12.77.22,1.53.28,2.27.11,1.34.14,1.74.29,3.03.19,1.58.28,2.72.27,3.42,0,.5-.04,1.56-.12,3.16-.01.24-.11.81-.31,1.71,0,.03-.02.05-.03.08l-.3.62s-.01.04-.02.06l-.29,1.71s0,.09,0,.13c.11.33.05.67-.17.98-.15.2-.26.47-.34.83,0,.04-.02.07-.04.11-.2.39-.45.67-.77.84-.03.02-.05.04-.06.06,0,.02,0,.05,0,.08M145.12,77.37s-.05-.02-.09,0c-.04.02-.07.04-.06.06,0,.02.05.02.09,0,.04-.02.07-.04.06-.06"/>
          <path d="M43.71,16.55c.12.07.18.14.2.2.02.06.05.11.09.15.15.14.24.32.28.53.03.18.08.37.17.58.13.31.27.8.43,1.48.02.08.02.15.01.23-.03.26-.04.56-.02.91,0,.15-.08.43-.25.85,0,0,0,.02-.02.02l-.43.43c-.18.18-.47.18-.65,0l-.21-.21s-.05-.11-.02-.16c.04-.07.12-.15.13-.25.12-.69.42-1.39.4-1.98-.02-.69-.05-1.1-.09-1.23-.02-.08-.12-.54-.29-1.37-.03-.15.13-.27.26-.19"/>
          <path d="M39.14,17.48c.09.16.21.25.36.26.05,0,.11.03.15.06.43.32.66.69,1.02.97.54.42,1.09.99,1.63,1.69.39.51.69,1.04.91,1.6.18.47.22.94.13,1.4,0,.02-.01.04-.03.06l-.11.15s-.05.09-.06.14c-.05.54-.05,1.05-.14,1.65-.27,1.69-.45,2.88-.53,3.57-.05.46-.05,1.08,0,1.85.04.6.08,1.2.1,1.81.02.55.06,1.09.11,1.59.06.55.09,1.08.1,1.6,0,.07,0,.14.02.21.11.51.16.98.15,1.4,0,.05,0,.1.01.14.14.71.2,1.47.17,2.29,0,.11,0,.23.04.34.19.76.23,1.55.11,2.36-.1.64-.18,1.22-.24,1.74,0,.06-.02.12-.04.18-.23.62-.46,1.21-.68,1.79-.2.53-.56,1.02-1.14,1.06-.05,0-.09-.04-.08-.1.21-.95.33-1.96.35-3.02.02-.6-.08-2.02-.29-4.26-.04-.44-.12-.89-.23-1.35-.14-.58-.17-1.1-.34-1.8-.62-2.49-.84-5.04-.69-7.64.09-1.57.48-3.05,1.15-4.43.04-.08.06-.18.06-.27-.01-.3.05-.72.19-1.26.11-.44.12-.93.02-1.48-.06-.36-.27-.81-.61-1.35-.37-.58-.63-1.04-.79-1.37-.04-.09-.09-.18-.13-.27-.04-.07-.28-.5-.73-1.3,0-.01,0-.03,0-.04h0s.06,0,.07.02"/>
          <path d="M67.05,18.7s.04-.06.06-.03l.7.83s.03.05.04.07c.16.78.55,1.3.79,2.05.11.34.25.7.45,1.09.03.06.04.11.05.18.01.1.07.27.19.52.03.08.05.16.04.25-.02.19.05.58.22,1.19.06.23.13.68.2,1.35.02.24.07.57.13.98.05.34.05.71,0,1.13,0,.04-.02.07-.03.1l-.61,1s-.04.06-.06.08c-.1.12-.5.42-.63.78-.01.04-.04.06-.07.09l-.33.19c-.14.08-.31-.06-.25-.21.08-.19.09-.37.06-.54-.12-.51-.17-1.01-.17-1.49,0-2.15.02-3.43.04-3.86.02-.44-.02-.86-.1-1.26-.02-.09-.03-.18-.03-.27,0-1.07-.05-1.9-.17-2.51-.05-.25-.22-.82-.53-1.7"/>
          <path d="M22.68,20.04l.36.58s.02.04.03.06l.88,2.78c.03.1.05.21.05.32-.02.82-.2,1.61-.56,2.36-.09.19-.37.12-.36-.08,0-1.09-.15-2.25-.46-3.46-.02-.09-.04-.18-.03-.27,0-.42-.01-.78-.05-1.06-.04-.32.11-.55.14-.76.01-.09,0-.24-.05-.45,0-.03.04-.05.05-.02"/>
          <path d="M165.86,21.98s.09-.02.1.02l.17.55c.02.07.02.14-.02.2-.02.03-.21.46-.58,1.3-.5,1.12-.45,2.09-.48,3.5,0,.05-.04.09-.09.1-.05,0-.1-.02-.11-.07-.14-.44-.24-.87-.32-1.28-.31-1.62.09-2.99,1.21-4.13.07-.07.1-.11.1-.13,0-.02,0-.04.02-.06"/>
          <path d="M18.35,22.67c.34.25.75.46,1.25.62.09.03.17.07.25.12.42.27.81.59,1.14.95,1.11,1.18,1.91,2.46,2.16,4.02.05.3-.01,1.01-.18,2.12,0,.04-.02.08-.05.11l-.19.24c-.12.16-.37.14-.47-.04-.42-.78-.74-1.62-.94-2.54-.16-.75-.61-1.78-1.07-2.56-.66-1.14-1-1.72-1.02-1.75-.18-.24-.43-.45-.74-.62-.05-.03-.09-.08-.11-.14l-.12-.48s.04-.07.07-.05"/>
          <path d="M94.08,24.62l.25.6s.03.09.04.13c.14,1.14.24,1.92.29,2.33.07.56.08,1.11.03,1.64-.05.51-.1,1.58-.16,2.19-.12,1.27-.16,2.45-.14,3.53.04,1.64.02,2.83.1,4.16.04.76-.03,1.5.09,2.21.05.32.08.63.08.94,0,1.02.27,2.11.36,3.15.06.61.17,1.38.35,2.32.07.38.13.74.15,1.06.01.13.07.48.17,1.05.2,1.15.32,1.93.35,2.36.04.46.12,1,.25,1.62.2,1,.24,1.96.11,2.87-.01.09,0,.18.01.26l.2.9s0,.05,0,.07l-.02.46c0,.05-.06.09-.11.06l-.33-.16c-.05-.03-.1-.06-.15-.1-.27-.27-.55-.53-.84-.78-.07-.06-.28-.32-.61-.78-.21-.28-.36-.57-.46-.87-.57-1.68-.79-3.29-.96-5.04-.06-.7-.13-1.28-.2-1.76-.17-1.11-.17-2.32-.31-3.49-.15-1.22-.14-2.05-.34-3.17-.1-.57-.04-1.26-.07-1.93-.05-1.09-.05-1.92,0-2.49,0,0-.02-.18-.07-.54,0-.05,0-.1,0-.15.1-1.34.14-2.12.12-2.36-.06-.79-.08-1.24-.04-1.35.11-.34-.06-.93,0-1.34.21-1.38.54-2.74.98-4.07.03-.09.06-.17.11-.25.29-.55.46-1,.51-1.36.08-.63.15-1.27.2-1.93,0-.03.04-.03.05,0"/>
          <path d="M113.45,94.94l-1,.1s-.07,0-.1-.01l-1.31-.41c-.08-.02-.15-.04-.23-.05-.34-.03-.66-.11-.94-.23-.34-.14-.8-.17-1.07-.34-.03-.02-.06-.02-.09,0-.04.01-.07.02-.09.02-.75-.13-1.36-.26-1.85-.38-.28-.07-.48-.05-.6.07-.03.03-.06.04-.1.04l-1.55.11s-.02,0-.04,0c-.35-.07-.71.01-1.09.24-.01,0-.02.01-.03.01l-2.03.46s-.09,0-.14,0c-.25-.06-.48-.09-.7-.09-.53.01-1.06.02-1.58.02-.05.02-.1.02-.15.02-.47.07-.9,0-1.29-.22-.06-.02-.13-.03-.2-.01-.35-.19-.79-.49-1.33-.88-.91-.67-1.59-1.46-2.02-2.39-.02-.04-.07-.05-.11-.02-.25.19-.4.35-.43.48-.03.11-.12.2-.23.23-.15.04-.38.19-.69.44-.78.63-2.31.9-3.21.9-.05,0-.09,0-.14-.01-.51-.1-1.04-.11-1.59-.02-.06.01-.12,0-.17-.01-.22-.07-.46-.07-.74,0-.06.01-.11.02-.17.01-.49-.04-.78-.11-1.2-.1-.15,0-.3-.02-.46-.07-.06-.02-.12-.03-.19-.03l-.79.04c-.06.02-.11.02-.16,0l-1.11.13s-.05,0-.08,0c-.52-.07-.96-.08-1.32-.02-.77.12-1.17.18-1.2.17-.05,0-.1.02-.13.06-.23.25-.6.12-.87.29-.05.03-.17.06-.35.08-.05,0-.1.03-.14.06-.45.38-.88.68-1.27.9-.6.33-.95.54-1.04.61-.74.57-1.73,1.19-2.64,1.4-.05.01-.1.03-.14.06-.04.03-.32.18-.84.45-.06.03-.17.05-.35.05-.05,0-.1,0-.14.03l-.98.41s-.06.02-.09.02c-.39.04-.82.14-1.27.31-.05.02-.09.03-.14.04-.47.08-.95.2-1.43.37-.07.02-.14.02-.21,0-.25-.11-.48-.03-.73-.05-.13-.01-.49-.04-1.08-.1-.05,0-.1-.02-.14-.03-.59-.2-.95-.31-1.07-.32-.29-.02-.75-.13-1.4-.33-.61-.18-1.04-.4-1.32-.66-.05-.05-.11-.09-.18-.12-.72-.29-1.46-.79-2.22-1.47-.39-.36-.64-.65-.75-.87-.02-.04-.05-.08-.09-.1l-.38-.27s-.07-.04-.11-.05l-1.05-.23c-.08-.02-.17-.04-.25-.08-1.24-.57-2.25-1.11-3.18-1.95-.38-.34-.87-.7-1.32-1.15-.87-.87-1.71-1.75-2.16-2.91-.23-.59-.4-1.03-.51-1.33-.16-.42-.16-.81.01-1.2.01-.03.03-.05.05-.07l.49-.5s.05-.04.07-.04c.47-.13.85-.12,1.15.02.14.07.59.33,1.34.78.06.04.13.06.2.08,1.14.29,1.89.46,2.24.51.92.13,1.9.15,2.93.06.45-.04.41-.28.62-.51.11-.12.2-.24.28-.36.21-.06.28-.2.23-.41-.02-.06.01-.12.07-.15l.14-.06s.02-.01.04-.02c.48-.48.84-.79,1.08-.93.69-.41,1.67-.64,2.45-.39.19.06.36.1.52.13.04,0,.07.02.1.04l.76.65s0,0,0,0c.44.52.69.82.73.92.62,1.29.92,2.53.91,3.7-.01,1.03-.36,1.98-1.06,2.83-.05.06-.09.12-.13.19-.42.7-.9,1-1.56,1.49-.66.48-1.5.77-2.21.94-.04,0-.05.06-.02.09.73.64,1.51,1.08,2.35,1.3.19.05.54.1,1.07.14,1.5.12,3.09.48,4.56-.04.45-.16.77-.26.98-.32,1.31-.38,2.61-.88,3.89-1.49.31-.15,1.04-.53,2.18-1.15.59-.32,1.06-.82,1.55-1.13.7-.45,1.2-.79,1.52-1.01,1.19-.84,2.33-1.33,3.57-1.66.21-.05.67-.14,1.39-.25,1.18-.18,2.15-.01,3.43.3.43.1.7.31.82.61.02.04,0,.09-.05.1l-1.27.38s-.02,0-.04,0c-.57.04-1.03.02-1.52.13-.15.03-.77.15-1.85.36-.06.01-.11.03-.16.05-.19.09-.38.15-.55.19-.02,0-.03.03-.02.05,0,0,.02.02.03.03.02,0,.03.01.05,0l1.02-.26s.06,0,.08,0c1.69.09,3.38.09,5.08.01,1.5-.07,2.78-.58,3.41-2.03.37-.85.42-1.51.37-2.51-.06-1.42-.06-2.46.01-3.11.17-1.59.47-3.39.88-5.4.05-.26.1-.97.15-2.11.02-.43-.08-.79-.13-1.26-.07-.62-.41-1.17-.67-1.68-.37-.75-1.07-1.84-1.8-2.24-.03-.02-.06-.04-.09-.07l-.34-.38s-.09-.06-.15-.06c-.2.02-.24.06-.45-.02-.07-.03-.12-.04-.16-.03-.05,0-.1.03-.13.07-.22.27-.71.67-1.46,1.2-.3.21-.52.33-.65.35-.71.12-1.83.39-2.74.43-.19,0-.65.04-1.38.1-.52.04-1.12-.05-1.8-.26-.14-.04-.29-.07-.44-.08-1.46-.06-2.81-.38-4.06-.93-.06-.03-.15-.1-.26-.22-.03-.03,0-.07.03-.07.01,0,.06.03.13.09.04.03.09.05.14.06.17.03.39.05.68.07.06,0,.13.02.19.04.27.09.54.13.8.1.54-.05.92-.1,1.16-.14.59-.11.97-.17,1.15-.19.83-.1,1.69-.31,2.56-.64.62-.23,1.01-.47,1.5-.94.3-.29.69-.63,1.16-1.02.25-.21.57-.59.97-1.14.52-.73.8-1.64,1.24-2.5.14-.27.3-.67.48-1.21.3-.9.5-1.75.58-2.54.01-.1.05-.29.12-.57.03-.11.05-.3.06-.58.02-.39.11-.76.28-1.11.01-.03.02-.05.03-.08l.24-1.23s0-.08,0-.12l-.04-.12c-.02-.06-.02-.13,0-.2.28-.92.41-1.56.41-1.9,0-1.19.15-2.38.46-3.58.01-.04,0-.09-.01-.13l-.11-.25s.01-.11.07-.11c.35-.02.56.14.63.5.19.95.58,2.05.62,3.15.02.5.06.9.12,1.2.16.77.28,1.27.15,1.98,0,0,0,.02,0,.02l-.1,1.84s0,.02,0,.03c.02.16.03.45,0,.89,0,.08.02.15.06.22.37.53.58,1.16.63,1.88,0,.01,0,.02,0,.03l.3.72s.08.06.11.02c.04-.04.06-.08.06-.13-.03-.71-.06-1.64.17-2.59.1-.42.15-.85.16-1.26,0-.04.05-.06.08-.03.37.38.64.59.86,1,.27.51.46,1.05.56,1.63.09.54.31.95.44,1.5.16.67.54,1.4.69,1.91.02.08.06.15.11.22.28.37.49.78.62,1.24.02.08.06.16.11.23.46.64.92,1.35,1.51,1.85.11.1.23.18.37.25.37.19.64.34.79.43.46.29.88.34,1.3.64.09.06.26.15.52.26.85.36,1.64.65,2.37.87.27.08.52.13.75.13.2,0,.26.28.08.41,0,0-.05.05-.14.13-.1.1-.08.24-.16.33-.04.04-.09.07-.14.08-.31.06-.52.11-.64.15-.05.02-.1.02-.15,0-.36-.16-.78-.14-1.18-.24-.88-.23-1.74-.46-2.59-.71-.6-.17-1.19-.43-1.76-.77-.08-.05-.17-.07-.26-.06l-1.1.08s-.08.02-.12.05c-.38.3-.85.63-1.42.97-.19.11-.49.5-.6.76-.06.14-.13.26-.21.35-.05.05-.08.12-.08.19l-.04.43s0,.03,0,.05c.21.69.35,1.21.4,1.56.12.79.17,1.74.15,2.86,0,.52-.09,1.23-.26,2.11-.01.07-.11.77-.3,2.11-.12.84-.18,1.56-.18,2.15,0,1.48.06,3.19-.23,4.8-.08.46-.23.91-.45,1.35-.03.05-.03.11-.01.17.31.95,1.42,1.7,2.26,2.16.07.04.15.06.23.07.57.05.95.06,1.15.04,1.09-.13,2.16-.22,3.11-.56.56-.2,1.02-.32,1.38-.37,1.29-.17,2.61-.32,3.78-.06,1.27.29,2.11.51,2.52.68,1.03.43,1.64.67,1.83.72,1.22.36,2.2.82,2.93,1.38.04.03.07.08.07.14l.03.37c0,.07-.03.13-.09.16l-.27.15ZM83.34,70.58s.03.07.05.08c.07.02.12-.07.08-.14-.02-.03-.04-.04-.08-.03-.05.02-.07.05-.05.09M52.48,85.95s-.02,0-.03,0c0,0,0,.02,0,.03,1.9,1.67,4.09,2.25,6.57,1.72.65-.14,1.18-.3,1.59-.48.01,0,.03-.01.04-.02l1.33-.93s.06-.06.07-.11c.07-.36.08-.63.02-.8-.09-.26.03-.54.28-.63.06-.02.2-.05.41-.07.06,0,.13.02.17.07l.12.15s.11.04.14-.01c.14-.25.32-.46.55-.64.05-.04.05-.11,0-.15-.31-.25-.68-.32-1.1-.22-1.2.28-2.15.97-3.2,1.73,0,0,0,.02,0,.02l1.86-.48s.04-.01.06-.02l.25-.09s.02.01.01.02l-.67.55s-.04.03-.07.04c-.81.37-1.21.54-1.87.86-1.54.74-3.31.66-4.93.21-.56-.16-1.01-.46-1.62-.74M51.86,85.38s.06.09.16.18c.1.08.19.14.2.13.01-.01-.06-.09-.16-.18-.1-.08-.19-.14-.2-.13"/>
          <path d="M154.79,57.53c-.02.16-.06.26-.12.29-.04.02-.1,0-.1-.06,0-.07.05-.16.16-.26.02-.02.07,0,.06.03"/>
          <path d="M139.41,76.96h-1.33s-.1.01-.15.05c0,0-.01,0-.02.01-.03.03-.07.05-.11.05-.29.04-.52.12-.7.26-.23.18-.41.26-.54.25-.02,0-.04,0-.06.02l-1.82,1.1s-.11.04-.17.04c-.16,0-.28.03-.36.13-.04.05-.09.08-.16.09-.67.09-1.21.16-1.6.22-.09.01-.27,0-.54-.02-.02,0-.03,0-.05-.01l-1.62-.62c-.1-.04-.19-.09-.27-.15l-1.03-.83s-.04-.03-.05-.05l-.37-.47s-.03-.06-.02-.09c.02-.1-.02-.22-.14-.36-.03-.03,0-.08.04-.08l.52.02c.92.21,1.75.26,2.49.15.92-.13,1.61-.24,2.07-.32.63-.11,1.33-.42,1.97-.52.19-.03.72-.12,1.59-.27.51-.09,1.13-.08,1.86.03.2.03,1.06.2,2.58.49.04,0,.07.05.07.09-.02.21-.11.35-.27.42-.5.21-1.1.34-1.83.38"/>
          <path d="M65.9,77.97c0,.09-.4.19-.9.21-.5.03-.91-.02-.92-.11,0-.09.4-.19.9-.21.5-.03.91.02.92.11"/>
          <path d="M63.81,78.15s-.03,0-.07-.01c-.03,0-.03-.04,0-.06.02-.01.05-.01.08,0,.03.01.04.06,0,.07"/>
          <path d="M60.54,82.3s-.06-.02-.04-.04c.31-.63.49-.98.55-1.07.64-.94,1.45-1.45,2.49-1.98.89-.46,1.52-.45,2.33.04.05.03.08.08.09.14.02.23-.1.42-.37.58-.03.02-.07.03-.1.03-.82.05-1.51.25-2.08.62-.03.02-.06.04-.1.05l-1.03.4c-.05.02-.1.05-.14.1-.27.33-.48.55-.63.64-.26.16-.58.32-.97.5"/>
          <path d="M122.24,79.58c.93-.45,1.68-.24,2.25.63.04.07,0,.16-.08.16-.36,0-.88-.5-1.13-.64-.12-.07-.46-.1-1.03-.1-.02,0-.03-.03-.01-.04"/>
          <path d="M119.76,83.44l.95-1.41s.05-.06.08-.09l1.2-1.02c.06-.05.13-.09.21-.12.59-.22,1.22-.27,1.9-.14.44.08.97.47,1.25.61.19.1.1.38-.1.36-.17-.01-.35.03-.52.15-.09.05-.19.08-.29.08-.5,0-1.24-.11-1.79,0-.42.08-.7.16-.83.24-.3.19-.54.31-.7.37-.32.12-.42.28-.58.54-.02.02-.04.04-.06.06l-.68.39s-.03,0-.02-.02"/>
          <path d="M126.84,83.3l.24.57c.02.05.06.1.11.13l.18.12c.06.04.05.13-.02.15-.04.01-.1.01-.18,0-.05,0-.09-.03-.13-.06-.49-.46-1.31-.83-2.03-.69-.05,0-.07.06-.04.1,0,0,.01.02.03.04.03.05.02.11-.04.14l-.13.05s-.06.08-.02.12l.05.04c.05.04.05.12,0,.16-.39.3-.79.47-1.2.52-.02,0-.03.01-.02.03,0,.02.01.03.03.03.35.04.7.15,1.05.33.26.13.45.22.55.24.78.21,1.59.38,2.44.51.07.01.12,0,.14-.05,0,.06.05.1.13.12.67.17,1.33.21,2.01.13.05.03.12.04.2.04.62-.04,1.23-.08,1.85-.13,1.19-.09,2.35-.39,3.48-.89.23-.1.46-.14.67-.21.01,0,.02-.01.02-.03,0-.01-.01-.02-.02-.02-.93,0-1.82.1-2.65.27-.4.08-.83.16-1.29.23-.44.06-.87.14-1.3.23-.31-.04-.69-.01-1.14.07-.34.06-.77-.1-1.09-.15-.32-.05-.64-.17-.93-.35-.03-.09-.19-.22-.47-.39-.01,0,0-.03,0-.03.09-.01.17,0,.25.07.08.06.15.06.19,0,.99.21,1.98.23,2.97.04.26-.05,1.53-.29,3.82-.73.59-.11,1.35-.14,2.3-.08.07,0,.14.03.2.07.36.24.61.42.74.55.43.41.54.89.34,1.44-.09.26-.15.45-.16.56,0,.03,0,.06-.02.09-.24.51-.43.89-.57,1.14-.76,1.4-2.02,2.58-3.28,3.52-.72.53-1.5.95-2.34,1.25-1.24.44-2.55.79-3.92,1.06-.48.09-.3.46-.42.71-.09.19-.14.32-.15.39-.05.29-.25.52-.31.84-.01.09-.05.17-.1.23l-.64.8s-.02.03-.02.05c-.11.4-.67.53-.95.8-.08.08-.2.18-.36.32-.16.13-.34.24-.54.31-.4.16-.74.26-1.12.57-.05.04-.1.06-.16.08l-2.36.49s-.07,0-.11,0l-1.38-.21c-.03-.06-.09-.07-.18-.04-.24-.02-.46-.08-.67-.18-.41-.19-.62-.29-.63-.3-.21-.07-.41-.13-.59-.18-.1-.03-.2-.08-.28-.14-.04-.03-.64-.38-1.8-1.06-.53-.31-1.11-.48-1.58-.66-.2-.07-.32-.16-.36-.26-.13-.33-.38-.42-.63-.51,0,0,0-.01,0-.02l.04-.02s.02,0,.03,0c.38.16.76.26,1.15.31.65.09,1.32.37,2.04.44.5.11,1.01.21,1.53.29.56.09,1.08.11,1.55.07.75-.07,1.51-.19,2.28-.36.34-.08.94-.31,1.8-.72.73-.34,1.38-.95,1.94-1.82,0-.01.02-.02.03-.03l.27-.21c.05-.04.02-.12-.04-.12h-.26s-.03,0-.05,0l-.99-.29s-.03,0-.04-.02l-1.12-.59c-.08-.04-.15-.09-.21-.15-.7-.63-1.27-1.24-1.72-1.82-.51-.65-.89-1.88-.86-2.78.04-1.14.38-2.5,1.16-3.37.4-.44.71-.87,1.2-1.21.05-.04.11-.06.17-.09,1.12-.38,2.05-.72,3.2-.41.05.01.1.04.15.06.35.19.7.34,1.06.44"/>
          <path d="M84.86,87.16s-.05-.07,0-.09c.15-.05.74-.18,1.77-.38.48-.09.97.2,1.38.42.14.07.23.2.27.38.01.05-.03.1-.08.1-.44-.02-.8-.32-1.22-.32-.42,0-.84.03-1.28.07-.14.01-.3-.02-.49-.1-.07-.03-.18-.06-.34-.08"/>
          <path d="M108.98,90.58h1.17s.07-.02.11-.03c.61-.27.98-.02,1.59.3.48.25.86.49,1.15.72.19.15.37.46.52.93.02.05-.01.1-.06.11-.88.18-1.48-.38-2.08-.95-.19-.17-.4-.31-.64-.4l-1.75-.65s-.01-.02,0-.02"/>
          <path class="cls-3" d="M83.34,70.58s0-.07.05-.09c.03-.01.06,0,.08.03.04.07-.01.15-.08.14-.02,0-.04-.03-.05-.08"/>
          <path d="M177.13,36.31c-.34-.37-.36-.99-.41-1.49-.09-1.02-.31-2.08-.88-2.98-.88-1.49-2.87-1.9-3.83-.25-.86,1.6-.42,3.56,0,5.26.28,1.26,1.11,2.53,1.35,3.74.24,1.33-.3,2.66-.3,4.01-.03,1.17.09,2.35.35,3.5.29,1.24.79,2.59,1.95,3.26,1.48.9,2.87-.1,3.15-1.71.32-1.37-.06-3.03-.31-4.46-.2-1.12.79-1.34,1.62-1.17.9.17,1.36.87,1.49,1.74.25,2.22.31,4.45.04,6.68-.17,1.13-.61,2.11-.91,3.23-.21.69-.23,1.54-.83,2.02-1.03.7-2.72.19-3.99.2-3.45-.1-3.17-1.09-4.51-3.8-.89-1.63-.87-3.53-1.15-5.32-.48-3.31-1.44-6.63-1.71-9.99-.19-1.75-.49-3.55-.7-5.27-.11-1.05-.36-2.13-.25-3.16.1-1.05.58-2.06.84-3.13.4-1.95,1.22-2.13,3.07-2.17,1.14,0,2.45-.32,3.5.02,1.07.39,1.44,1.47,2.07,2.38.7,1.02,1.69,1.85,2.22,2.98.44.9.56,1.93.77,2.9.14.86.43,1.77.33,2.63-.21,1.19-2.24,1.1-2.94.39l-.03-.03Z"/>
          <path d="M8.46,58c-.57.71-1.71.71-2.53.63-.97-.1-1.43-1.01-1.52-1.94-.16-1.66-.47-3.32-.46-4.97.02-.81.18-1.64.3-2.46.38-2.16.3-4.44.49-6.62.22-1.84.71-3.64,1.26-5.4.6-1.88,1.12-3.88,1.48-5.83.17-.99.23-1.98.38-2.97.12-.99.46-2.18,1.46-2.52.63-.24,1.44-.13,2.18-.1,1.07.06,2.18.1,3.32.15,2.23.2,3.89-.31,4.21,2.41.61,2.65.73,3.55.15,6.24-.38,1.81-.61,3.68-2.02,4.94-.59.57-1.04,1.33-.83,2.16.66,1.95,1.08,2.26.66,4.49-.5,3.39-.67,6.86-1.59,10.24-.52,1.87-2.78,1.94-3.22-.02-.67-3.17.22-6.33.76-9.43.1-.72.18-1.46,0-2.17-.22-.96-1.09-1.41-1.96-.83-1.6,1.16-2.06,3.56-2.32,5.44-.24,1.74-.32,3.58-.16,5.33.02,1.04.52,2.27-.04,3.21M12.56,38.9c1.98-.22,2.63-2.91,2.82-4.57.45-4.02-2.7-4.15-3.99-.7-.52,1.46-1.17,5.12,1.12,5.27h.05Z"/>
          <path d="M161.38,56.2c-.51.62-1.75.32-2.7.32-.86-.06-1.74-.09-2.59-.17-1.79-.16-1.97-1.19-1.69-2.75.16-1.09.2-2.16.16-3.29-.1-2.29-.53-4.58-1.38-6.73-.55-1.31-1.26-2.6-1.11-4.07.12-1.33.31-2.71.14-4.02-.18-1.66-.49-3.27-1.02-4.85-.33-1.04-.94-2.13-1.36-3.13-.44-.98.62-1.03,1.29-1.1,1.32-.06,3.07-.27,4.45-.19,1.26.08.92,1.29.9,2.2-.18,2.79.36,5.52,1.28,8.14.3.89.71,1.75,1.11,2.61.59,1.17.63,2.49.43,3.76-.14,1.18-.11,2.38-.02,3.57.19,2.1.62,4.17,1.21,6.18.21.68.48,1.38.73,2.03.17.49.41,1,.17,1.47l-.02.03Z"/>
          <path d="M35.6,49.58c.51.08.01,2.29-.01,3-.14.88-.11,1.85-.46,2.66-.29.54-.77.75-1.4.92-2.05.35-4.13.27-6.19.46-1.09.07-2.2.15-3.28.2-1.38.12-2.94.15-2.77-1.71.09-.95.41-1.89.69-2.8.78-2.88,1.37-5.9,1.25-8.9-.17-1.51-.24-2.82.5-4.21,1.72-3.38,2.62-7.26,2.47-11.1.04-1.01.7-1.27,1.6-1.26.67,0,1.35.06,2.01.08,1.62.07,3.48.15,5.23.19,1.02.09,2.29-.12,3.12.48.64.53.44,1.54.29,2.33-.19.71-.2,2.27-1.26,2.07-.5-.09-1.21-.53-1.99-.66-.67-.13-1.37-.12-2.02.04-2.24.5-3.52,3.13-3.06,5.26.21.98,1.2,1.55,2.15,1.22.32-.09.58-.21.86-.29.12-.03.23-.05.32.03.17.09.03,1.01-.06,1.53-.16,1.04-.31,2.19-.47,3.14-.1.44-.15,1.22-.76,1.09-1.19-.37-1.92-.63-2.96.36-1.38,1.45-1.82,4.78-.33,6.31.96,1.03,2.55,1.02,3.86.69.57-.15,1.11-.37,1.61-.65.37-.18.66-.45,1.04-.49h.02Z"/>
          <path d="M139.51,49.42c.38.13.33.72.4,1.08.08.91.18,2.25.26,3.24.02.59.16,1.39-.45,1.69-.54.21-1.15.13-1.74.12-1.05-.05-2.07-.07-3.08-.1-1.85-.06-3.61-.15-5.45-.2-.87-.1-2.38.14-2.95-.59-.37-.64.05-1.58.15-2.29.43-2.31.43-4.62.04-6.89-.15-.79-.36-1.56-.62-2.33-.44-1.12-.91-2.28-.66-3.5.06-.39.16-.78.25-1.16.52-2.41.26-4.96-.26-7.37-.16-.68-.4-1.36-.66-2-.15-.4-.36-.95-.17-1.29.42-.66,1.83-.49,2.6-.56.92,0,2.34-.17,2.98.15.91.44.24,2.04.24,2.85-.23,2.59.04,5.16.88,7.64.74,1.97,1.16,2.62.5,4.76-.45,1.91-.32,4.05.48,5.87.52,1.14,1.69,1.77,2.9,1.9,1.48.22,2.72-.14,3.89-.87.17-.08.31-.16.47-.14h.02Z"/>
          <path d="M58.72,44.13c-.7.18-1.38-.23-2.1-.29-.65-.08-1.34-.05-1.96.16-3.08.95-2.77,6.71-2.21,9.22.16.69.34,1.65-.45,1.97-.67.31-1.95.22-2.85.3-.62.04-1.25.07-1.88.1-.57.04-1.46-.02-1.59-.47-.15-.34.01-.91.16-1.31.31-.78.59-1.58.8-2.4.7-2.78,1.05-5.6.6-8.46-.22-1.1-.35-2.22.08-3.28.61-1.44,1.25-2.91,1.51-4.48.35-1.88.46-3.76.24-5.67-.08-.63-.1-1.44.55-1.72.9-.37,2.42-.16,3.49-.2,1.3.01,2.8.06,4.04.07.92.05,1.91-.06,2.79.26,1.13.42,1.35,1.67,2.09,2.55.47.59,1.15.94,1.56,1.5.42.52.25,1.3.06,1.91-.18.61-.31,1.24-.37,1.84-.06.72-.06,1.44.02,2.16.32,2.31-.73,2.32-2.27,3.61-.52.47-.93,1.06-1.29,1.65-.26.41-.59.85-1.02.98M56.34,31.93c-1.93-.1-2.84,2.72-2.85,4.31-.03,1.04.14,2.2.8,2.85,1.4,1.35,3.05-.06,3.56-1.56.68-1.78.85-5.05-1.46-5.59h-.05Z"/>
          <path d="M99.54,54.38c-.17-.16-.17-.4-.09-.71.09-.33.24-.73.35-1.08.75-2.45.79-5.2.45-7.75-.07-.43-.15-.85-.25-1.28-.18-.83-.57-1.62-.65-2.43-.08-.68.05-1.36.25-2.03.58-1.88.77-3.77.62-5.71-.1-1.14-.25-2.25-.6-3.38-.44-1.37-.62-2.15,1.15-2.16,1.44-.04,2.87-.05,4.31-.09,1.49.01,2.94-.13,4.39.02,1.56.18,2,1.61,2.94,2.6.91.91,2.13,1.34,2.01,2.8-.04.74-.09,1.52.1,2.25.1.45.27.9.24,1.36,0,.89-1.01,1.41-1.65,1.93-1.72,1.42.14,2.95,1.5,3.69,1.87.99.85,2.25.89,3.94,0,.6.07,1.2.21,1.78.16.73.34,1.51-.23,2.07-.61.61-1.45,1.08-1.93,1.83-.46.63-.73,1.42-1.18,1.92-.57.68-1.51.8-2.36.78-2.19-.03-4.34-.06-6.52-.04-.97,0-2.07-.02-3.01-.06-.31-.02-.77-.09-.93-.25M107.18,38.3c2.21.08,2.27-3.4,1.64-4.85-.67-1.92-2.75-2.04-3.37-.01-.46,1.62-.26,4.45,1.71,4.86M108.5,49.91c2.15-.78,2.14-5.01,1.32-6.77-.46-1.16-1.74-2.11-2.93-1.37-1.17.74-1.42,2.32-1.43,3.61-.01,1.76.61,5.04,2.99,4.54l.05-.02Z"/>
          <path d="M76.18,54.3c-.74-.58-.96-1.57-1.56-2.27-.52-.72-1.53-1.28-1.99-1.84-.55-.62-.22-1.48.03-2.19.49-1.48.6-2.96.35-4.5-.11-.7-.4-1.37-.52-2.06-.19-.93.07-1.83.41-2.7.33-.85.54-1.75.69-2.64.37-2.14.38-4.39-.13-6.5-.3-1.31.26-1.79,1.54-1.77.81-.02,1.64,0,2.43,0,1.14,0,2.65-.02,2.12,1.58-1.14,3.25-1.27,6.86-.27,10.15.21.91,0,1.81-.37,2.65-.92,2.05-1.15,4.85.31,6.69.77.94,2.21,1.21,3.23.52,1.09-.7,1.67-1.98,1.87-3.2.14-.86.12-1.75-.04-2.61-.13-.81-.5-1.55-.64-2.3-.27-1.19.26-2.32.58-3.44.38-1.44.52-2.93.47-4.42-.03-1.21-.14-2.43-.43-3.57-.11-.53-.35-1.23,0-1.67.53-.52,1.56-.32,2.5-.36.93,0,2.05.13,1.77,1.29-.21.91-.56,1.84-.68,2.78-.2,1.48-.25,2.97-.11,4.46.04.44.11.89.2,1.32.26,1.21.84,2.38.48,3.62-.12.48-.31.95-.48,1.41-.44,1.28-.49,2.64-.36,3.98.06.55.18,1.06.32,1.57.13.47.29,1.05.07,1.48-.19.39-.6.68-.98.94-.49.34-1,.71-1.4,1.16-.81.89-1.08,2.15-2.2,2.62-.74.31-1.57.23-2.36.25-.91,0-1.81,0-2.68,0-.77,0-1.5-.02-2.12-.45l-.04-.03Z"/>
          <path d="M184.74,41.96c0-.24,0-.69-.01-.94,0,.04,0,.79.01.94"/>
          <path d="M184.86,43.75c-.03-.05-.05-.19-.04-.25,0-.04.02-.04.03-.01.02.06.03.27.02.26h-.01Z"/>
          <path d="M184.89,44.75c0-.24,0-.66-.01-.91,0,.04.01.77.01.91"/>
          <path d="M184.93,45.73c-.05-.19-.07-.51-.03-.71.06-.06.07.74.04.71h0Z"/>
          <path d="M184.99,47.42c0-.4-.03-1.11-.04-1.54,0,.25.03,1.18.04,1.54"/>
          <path d="M185.05,48.14c0-.11-.02-.44-.02-.52,0,.06.02.56.02.52"/>
          <path d="M185.08,50.18c0,.11,0,.43,0,.52,0-.06,0-.56,0-.52"/>
          <path d="M185.08,51.95c0-.29,0-.76,0-1.06,0,.15,0,.9,0,1.06"/>
          <path d="M185.07,52.65s0-.1,0-.17c0-.06,0-.07,0-.05,0,.02,0,.2,0,.21h0Z"/>
          <path d="M29.46,72.19s-.06,0-.1-.01c-.04,0-.05,0-.03,0,.04,0,.14.02.12.02h0Z"/>
          <path d="M83.03,78.83c-.17-.26-.21-.63-.35-.94-.15-.38-.41-.69-.81-.89-1.57-.76-4.8-.27-4.87,1.72,0,.98.94,1.73.96,2.71.03.71-.37,1.4-.33,2.12.1,1.48,1.6,2.09,3.01,2,1.21-.07,2.36-.51,2.54-1.68.1-1.22.08-1.5,1.43-1.6.74-.03,1.5-.11,2.17.04.51.1.51.63.49,1.05-.03.64.1,1.52-.34,1.96-.43.44-1.05.65-1.55,1.02-.63.43-1.13.99-1.8,1.18-.34.1-.68.14-1.05.17-1.55.07-3.71.27-5.3.28-1.14,0-1.94-.83-2.98-1.19-.67-.29-1.77-.34-1.82-1.25-.04-.46.11-1.14-.08-1.74-.26-.86-1.06-1.53-.94-2.47.05-.63.34-1.33.17-2.02-.07-.32-.23-.65-.37-.94-.15-.32-.33-.65-.15-.96.23-.34.78-.54,1.2-.76.33-.16.65-.36.94-.58.64-.46,1.14-1.09,1.9-1.24,1.09-.2,2.22-.17,3.35-.26,1.39-.04,2.79-.26,4.11-.15.76.1,1.42.71,2.14,1.08.62.37,1.5.51,2,1.03.35.43.33,1.05.39,1.58.05.54.04.89-.44,1.01-.63.16-1.33.13-1.98.16-.61-.02-1.23.08-1.61-.39l-.02-.03Z"/>
          <path d="M109.32,87.71c-.13-.28-.15-.56-.31-.85-.26-.59-1.19-.96-1.87-1.06-1.41-.23-3.19-.14-3.81,1.31-.29.6-1.01.63-1.6.64-.76,0-1.62-.01-2.3-.09-.44-.05-.83-.17-.34-.64.48-.47,1.08-.99,1.5-1.56.34-.45.63-.94.84-1.47.4-1.01.4-1.99.94-2.84.36-.6.94-1.06,1.47-1.52.84-.73,1.52-1.67,1.87-2.71.28-.69.18-1.63.81-2.1.51-.32,1.43-.23,2.11-.2.5.03,1.03.06,1.49.18.3.08.56.18.73.42.27.38.15,1.05.21,1.82.07.98.43,1.93.99,2.73.4.57.89,1.07,1.21,1.69.5.92.35,1.88.44,2.95.1.96.49,1.92,1.05,2.72.73,1.08,1.56,1.64-.43,1.45-.94-.08-2.26-.2-3.29-.29-.59-.09-1.39-.02-1.71-.57M106.74,83.83c1.48.08,1.25-1.73.72-2.6-.16-.29-.46-.51-.76-.3-.77.54-1.63,2.66-.02,2.89h.06Z"/>
          <path d="M83.81,92.86s-.08.03-.12.01c-.03-.01-.04-.02-.02-.01.02,0,.06.02.09.01.03,0,.07-.02.05-.01h0Z"/>
          <path d="M97.47,94.3s-.07,0-.13,0c-.06,0-.09,0-.05-.01.03-.01.16,0,.17.01h0Z"/>
          <path d="M98.92,94.51s-.12.04-.15.02c0,0,.17-.02.14-.02h.01Z"/>
          <path d="M119.24,99.03s-.09-.02-.14-.03c-.04,0-.04-.02-.02-.02.05-.02.15.01.16.04h0Z"/>
        </g>
      </g>
    </g>
  </g>
</svg>