<?xml version="1.0" encoding="UTF-8"?>
<svg id="Layer_2" data-name="Layer 2" xmlns="http://www.w3.org/2000/svg" xmlns:xlink="http://www.w3.org/1999/xlink" viewBox="0 0 130.59 52.68">
  <defs>
    <style>
      .cls-1 {
        fill: none;
      }

      .cls-2 {
        fill: #be1e2d;
      }

      .cls-3 {
        clip-path: url(#clippath-1);
      }

      .cls-4 {
        clip-path: url(#clippath);
      }
    </style>
    <clipPath id="clippath">
      <rect class="cls-1" y="0" width="130.59" height="52.68"/>
    </clipPath>
    <clipPath id="clippath-1">
      <rect class="cls-1" y="0" width="130.59" height="52.68"/>
    </clipPath>
  </defs>
  <g id="Layer_1-2" data-name="Layer 1">
    <g id="Objeto_Inteligente_de_Vetor" data-name="Objeto Inteligente de Vetor">
      <g class="cls-4">
        <g class="cls-3">
          <path class="cls-2" d="M130.48,10.51c-.17-.14-.2-.31-.14-.51.02-.05.02-.11,0-.15-.05-.14,0-.23.1-.33.15-.14.11-.27-.09-.3-.34-.05-.69-.1-1.04-.09-.72,0-1.43.08-2.13.28-.52.15-1.02.35-1.48.63-1.46.87-2.92,1.76-4.36,2.65-1.06.66-2.06,1.4-2.96,2.27-.12.12-.25.23-.37.35-.45.43-.9.86-1.33,1.31-.48.51-.92,1.06-1.4,1.56-.55.57-1.12,1.13-1.69,1.68-.16.16-.35.3-.61.34-.02-.06-.04-.11-.05-.15-.12-.52-.05-1.05-.04-1.58,0-.49.1-.96.23-1.43.07-.23.15-.46.23-.69.06-.15.13-.29.2-.42.23-.45.45-.9.71-1.33.23-.38.51-.72.76-1.09.35-.52.69-1.04,1.13-1.49.15-.15.29-.3.43-.46.32-.38.73-.62,1.21-.75.43-.11.65-.38.66-.82,0-.04,0-.09.01-.13.12-.28.08-.55.03-.83-.04-.26-.15-.45-.4-.56-.11-.05-.24-.09-.36-.11-.31-.07-.63-.1-.93-.19-.3-.09-.59-.09-.89-.1-.26-.01-.52-.03-.77-.07-.33-.06-.66-.14-.94.14-.06.06-.13.1-.19.16-.26.25-.51.51-.76.76-.3.31-.62.6-.89.94-.46.56-.92,1.13-1.42,1.65-.62.65-1.11,1.38-1.51,2.18-.34.67-.65,1.35-.99,2.02-.3.58-.62,1.16-.93,1.73-.05.09-.11.18-.18.26-.47.51-.79,1.12-1.15,1.7-.09.15-.18.31-.3.44-.24.26-.37.58-.52.89-.12.25-.27.47-.49.67-.05-.09-.09-.13-.11-.19-.18-.51-.34-1.02-.53-1.53-.2-.52-.41-1.04-.63-1.55-.13-.32-.29-.63-.42-.95-.02-.06-.03-.12-.03-.19.02-.41.04-.82.06-1.23.04-.61.11-1.22-.15-1.81-.01-.03,0-.06,0-.09,0-.46-.28-.75-.64-.99-.17-.11-.33-.23-.49-.35-.18-.14-.35-.29-.55-.41-.37-.23-.74-.39-1.18-.41-.09.08-.13.23-.3.18-.04-.01-.11.05-.14.1-.25.36-.38.77-.51,1.18-.13.44-.25.87-.39,1.31-.2.63-.48,1.25-.51,1.92-.02.39-.01.78-.02,1.16,0,.09,0,.19,0,.28,0,.2-.02.4,0,.6.08.73.22,1.45.59,2.09.09.16.07.3-.03.44-.17.23-.33.46-.48.71-.56.91-1.07,1.85-1.42,2.87-.2.58-.4,1.15-.61,1.73-.06.17-.13.34-.22.49-.04.07-.15.12-.23.13-.03,0-.1-.12-.12-.19-.07-.35-.16-.7-.34-1.02-.07-.12-.08-.26-.11-.39-.08-.3-.17-.6-.25-.9-.09-.37-.19-.73-.27-1.1-.07-.33-.1-.67-.15-1,0-.03-.01-.07-.04-.09-.2-.15-.18-.37-.22-.59-.07-.44-.22-.86-.32-1.29-.14-.59-.28-1.17-.38-1.76-.09-.52-.12-1.05-.18-1.58-.05-.45-.12-.9-.18-1.35-.05-.35-.1-.69.12-1.01,0,0,0-.02.01-.03.27-1.1.52-2.2.82-3.29.15-.52.22-1.07.5-1.54.25-.41.35-.88.53-1.32.17-.42.21-.86.27-1.29.02-.12-.02-.25,0-.38.05-.37.12-.75.15-1.12.04-.43.05-.86.06-1.29,0-.35.01-.69,0-1.04,0-.26-.02-.53-.07-.79-.09-.42-.21-.83-.35-1.24-.09-.28-.23-.54-.35-.81-.03-.06-.1-.1-.16-.14-.33-.22-.66-.42-1.08-.38-.06,0-.12-.04-.18-.05-.23-.06-.47-.08-.68.06-.27.17-.54.34-.78.54-.24.19-.43.44-.66.63-.44.36-.81.78-1.1,1.26-.24.41-.46.83-.66,1.27-.24.54-.46,1.09-.65,1.65-.17.5-.29,1.01-.42,1.53-.25.99-.57,1.97-.72,2.99-.04.26-.11.52-.15.78-.1.62-.19,1.23-.27,1.85-.07.58-.13,1.15-.18,1.73-.05.58-.07,1.16-.11,1.74-.03.5-.05.99-.07,1.49-.01.33-.04.65-.03.98.02.71.05,1.42.08,2.12.01.4.02.8.03,1.2,0,.03,0,.06,0,.09-.02.21-.1.24-.3.17-.28-.1-.55-.21-.84-.27-.51-.12-1.02-.08-1.54.03-.71.15-1.44.25-2.12.51-.05.02-.12,0-.22,0-.05-.6-.2-1.17-.18-1.77,0-.24-.01-.49-.03-.73-.02-.25-.05-.5-.06-.75-.04-.57-.04-1.14-.11-1.71-.03-.26,0-.5.06-.75.12-.54.28-1.08.39-1.63.17-.86.33-1.72.47-2.58.06-.33.06-.67.11-1.01.11-.67.14-1.34.07-2.01-.03-.25-.07-.5-.07-.75,0-.51.04-1.03.06-1.54,0-.17,0-.34,0-.51,0-.14-.01-.27-.03-.41-.02-.18-.06-.36-.07-.53-.05-.58-.05-1.16-.14-1.74-.06-.4-.21-.79-.33-1.19-.01-.05-.07-.08-.1-.12-.06-.07-.11-.15-.17-.22-.15-.21-.3-.43-.45-.64-.16-.23-.42-.26-.66-.3-.19-.03-.38-.02-.57-.01-.24,0-.47.02-.75.04.16.14.07.18,0,.22-.44.22-.77.56-1.07.93-.16.21-.33.42-.49.62-.09.11-.22.21-.29.33-.1.16-.14.36-.24.52-.11.17-.11.35-.16.53-.12.46-.26.92-.36,1.38-.22,1.12-.43,2.24-.64,3.37-.13.68-.24,1.37-.28,2.07-.05.75-.12,1.49-.11,2.24.02.91,0,1.82.02,2.73,0,.51.04,1.01.05,1.52.02,1.14.03,2.28.04,3.43,0,1.01.02,2.03.03,3.04,0,.59,0,1.18,0,1.78,0,.67.03,1.33.04,2,0,.07,0,.15-.03.21-.17.33-.36.65-.51.98-.18.38-.36.77-.49,1.16-.13.39-.18.8-.31,1.19-.18.54-.4,1.07-.61,1.59-.11.26-.24.52-.36.77-.06.12-.12.26-.29.23-.29-.5-.39-1.06-.51-1.6-.09-.43-.14-.88-.19-1.32-.06-.49-.28-.95-.27-1.46,0-.18.03-.36,0-.53-.04-.37-.1-.73-.16-1.1-.07-.43-.17-.85-.23-1.28-.08-.55-.1-1.11-.19-1.66-.12-.75-.27-1.49-.42-2.24-.13-.68-.26-1.37-.54-2.02-.09-.2-.17-.42-.2-.63-.03-.26-.1-.5-.2-.75-.19-.47-.35-.95-.53-1.42-.08-.21-.21-.4-.27-.61-.14-.47-.37-.87-.72-1.22-.3-.3-.61-.55-1.05-.6-.26-.04-.53-.06-.77-.14-.34-.11-.64.04-.94.13-.14.04-.29.16-.37.28-.13.19-.22.4-.31.62-.09.24-.15.48-.23.72-.03.09-.07.17-.12.24-.15.2-.34.39-.46.61-.35.64-.67,1.29-.99,1.95-.19.41-.35.84-.52,1.26-.26.63-.54,1.26-.79,1.9-.17.44-.39.87-.62,1.28-.07.12-.15.18-.32.07,0-.24.01-.5.03-.76.03-.59.02-1.18-.1-1.76-.05-.22-.02-.46-.02-.69,0-.28,0-.57.05-.85.07-.32.18-.63.3-.93.07-.18.07-.34-.02-.51-.07-.14-.14-.29-.16-.44-.04-.27-.2-.36-.43-.43-.47-.15-.96-.13-1.44-.15-.17,0-.28.04-.39.2-.26.4-.59.72-1.02.96-.71.38-1.37.83-2.05,1.27-.36.23-.71.5-1.07.74-.13.09-.27.21-.5.1.14-.25-.02-.44-.12-.64-.09-.17-.11-.34-.1-.52,0-.17.01-.34-.03-.51-.08-.36-.14-.72-.4-1.02-.26-.3-.55-.57-.89-.74-.65-.32-1.34-.51-2.08-.47-.59.03-1.16.13-1.72.26-.89.21-1.7.58-2.39,1.18-.29.25-.54.53-.83.78-.56.47-.97,1.06-1.37,1.66-.56.85-1.13,1.69-1.7,2.53-.05.08-.08.2-.23.18-.02-.02-.05-.05-.05-.07-.12-.52-.27-1.04-.36-1.57-.15-.83-.4-1.64-.64-2.45-.05-.17-.1-.35-.17-.51-.12-.29-.26-.58-.36-.88-.15-.43-.42-.78-.79-1.02-.56-.36-1.2-.5-1.83-.68-.03-.01-.08.01-.12.02-.1.02-.2.04-.3.04-.27.02-.51.08-.67.34-.07.11-.18.21-.28.29-.16.13-.34.25-.51.37-1.26.92-2.39,1.99-3.54,3.04-.9.83-1.74,1.73-2.62,2.58-1.08,1.03-2.08,2.14-3.07,3.25-.97,1.09-2.08,2.02-3.29,2.82-.26.17-.42.14-.68-.07-.35-.3-.52-.71-.63-1.13-.06-.21,0-.42.23-.57.59-.35,1.01-.89,1.47-1.38.39-.41.65-.92,1.1-1.29.04-.03.07-.08.1-.12.35-.54.71-1.07,1.06-1.61.07-.12.14-.24.2-.36.09-.17.14-.36.25-.5.36-.48.44-1.07.6-1.62.13-.43.12-.89,0-1.34-.1-.39-.18-.77-.49-1.07-.24-.23-.5-.38-.83-.4-.23-.01-.46-.03-.69-.03-.3,0-.62-.08-.9.08-.23.13-.48.16-.74.16-.06,0-.13,0-.19,0-.33.06-.65.14-.98.18-.54.05-1.05.19-1.57.35-.17.05-.33.13-.49.21-.62.33-1.09.82-1.55,1.33-.59.65-1.08,1.37-1.49,2.14-.61,1.16-.82,2.4-.66,3.69.1.86.31,1.71.49,2.55.08.37.19.73.3,1.09.09.28.18.56.3.83.19.41.37.83.62,1.21.31.46.74.8,1.22,1.08.29.17.58.31.91.35.08.01.16.05.23.09.48.24.99.36,1.52.31.47-.04.92-.2,1.37-.36.68-.25,1.33-.55,1.95-.91.52-.3,1.02-.6,1.35-1.12.02-.03.06-.06.09-.08.4-.16.73-.41,1.04-.71.31-.3.64-.58.96-.87.03-.03.06-.06.08-.1.47-.62,1.06-1.14,1.61-1.69.33-.34.67-.66,1.01-.99.4-.38.82-.76,1.22-1.15.3-.28.58-.58.87-.87.12-.12.24-.24.33-.38.34-.51.74-.97,1.17-1.41.03-.03.08-.05.17-.1,0,.12.02.2.01.28-.03.28-.05.57-.09.85-.13,1.05-.25,2.1-.38,3.15-.08.68-.17,1.37-.24,2.05-.08.79-.15,1.58-.22,2.37-.07.73-.14,1.45-.19,2.18-.06.84-.09,1.69-.13,2.53-.05,1.13-.09,2.26-.12,3.39-.02.81,0,1.63,0,2.44,0,1.09-.02,2.18-.04,3.27-.01,1.05-.01,2.09-.04,3.14,0,.24.02.46.11.68.11.25.25.49.24.78,0,.05.04.1.06.14.12.24.24.47.36.71.04.08.09.16.04.27-.05.11.02.2.12.26.02,0,.03.02.05.03-.08.05-.15.1-.23.16.35.1.65.26.89.48.05-.04.1-.08.14-.13.07.05.13.1.2.15.06.04.12.11.18.11.34.01.69.03,1.03,0,.13-.01.23-.03.35.06.05.04.21.04.22.01.08-.19.25-.11.37-.13.16-.2.3-.38.46-.58.24-.06.45-.19.45-.52,0-.05.02-.11.05-.15.23-.32.5-.58.92-.57.23,0,.35-.1.41-.31.05-.16.09-.34.19-.47.21-.27.3-.57.31-.9,0-.13.06-.27.09-.4.02-.09.05-.18.05-.28-.01-.42-.01-.84,0-1.25-.1-.55,0-1.03.24-1.46-.04.03-.07.06-.11.08,0,0,0-.01,0-.02.11-.66.12-1.34.19-2.01.07-.63.16-1.25.24-1.88.05-.36.09-.71.12-1.07.05-.46.05-.93.13-1.39.13-.79.29-1.57.45-2.36.04-.23.1-.45.14-.68.05-.26.08-.52.12-.78.02-.11.03-.23.04-.35.02-.19.03-.37.04-.56.06-.8.12-1.6.18-2.4.01-.18.03-.36.04-.54.02-.54.07-1.08.04-1.61-.04-.75-.14-1.49-.21-2.24,0-.1.01-.21.05-.31.12-.32.25-.63.39-.94.13-.28.26-.58.44-.83.31-.44.65-.85.9-1.32.28-.52.62-1,.99-1.47.35-.45.67-.92,1-1.38.12-.17.22-.37.36-.52.34-.36.69-.71,1.05-1.05.5-.47,1.12-.75,1.78-.93.36-.1.58.04.61.42.02.35.04.7.02,1.04-.06.77-.16,1.53-.22,2.3-.05.69-.24,1.35-.48,2-.05.13-.16.24-.27.34-.45.38-.93.74-1.37,1.13-.29.26-.55.56-.82.83-.82.81-1.4,1.76-1.71,2.87-.17.6-.35,1.2-.52,1.79-.02.08-.02.17-.02.25,0,.11.04.23.05.34.02.23.02.46.04.7.03.3.2.43.49.4.09,0,.18.01.28.02.08,0,.16.02.25.03.2.01.41-.02.6.03.32.09.61-.03.84-.16.41-.23.86-.24,1.29-.29.33-.04.66-.07.99-.14.34-.07.65-.16.82-.49,0-.02.03-.03.05-.04.2-.09.26-.27.29-.46.03-.22.11-.43.25-.61.05-.06.08-.15.12-.22.18-.42.36-.83.53-1.25.04-.11.05-.22.08-.34.02-.08.04-.16.07-.24.15-.44.3-.88.44-1.32.27-.89.52-1.78.79-2.67.08-.28.27-.5.51-.67.54-.4,1.09-.8,1.64-1.19.47-.34.94-.68,1.42-1.02.02-.01.03-.03.05-.04.09-.01.19-.05.26-.02.04.01.05.15.04.22-.03.27-.09.54-.12.81-.04.29-.08.59-.09.88-.02.82.22,1.59.44,2.36.16.58.53,1.05.87,1.54.19.28.44.5.75.62.62.24,1.26.26,1.9.13.1-.02.21-.04.31-.04.55-.03,1.09-.13,1.57-.37.46-.22.89-.52,1.21-.95.07-.09.12-.23.31-.22.03.18.07.36.07.53.02.97.22,1.91.46,2.84.16.61.33,1.22.47,1.84.17.74.37,1.48.63,2.19.25.66.5,1.33.8,1.96.32.67.68,1.32,1.29,1.78.36.27.74.53,1.12.78.4.26.83.47,1.32.51.29.02.6.05.89.02.35-.04.71-.12,1-.36.31-.26.64-.48,1.07-.52.17-.01.33-.09.42-.29.08-.16.25-.28.38-.41.09-.09.19-.17.27-.26.17-.23.32-.47.49-.7.11-.15.24-.27.33-.42.2-.37.38-.75.56-1.14.12-.25.25-.49.33-.75.18-.54.32-1.09.5-1.63.07-.2.07-.39.05-.59-.02-.18-.03-.36-.01-.54,0-.08.09-.17.16-.2.05-.02.16.04.22.08.08.06.14.17.22.22.06.04.17.06.23.03.21-.12.41-.25.61-.39.27-.19.57-.28.88-.32.2-.02.4-.02.55.16.03.04.11.04.18.07,0-.08.02-.13.02-.18-.03-.31.1-.38.41-.35.04,0,.08.02.12.03.14.04.24,0,.29-.16.11-.27.15-.29.47-.22-.03.09-.06.18-.09.26-.1.28-.21.55-.3.83-.18.57-.3,1.16-.41,1.76-.06.29-.02.53.11.78.08.15.15.31.23.45.13.24.2.28.46.24.2-.03.4-.03.59.04.09.03.22.04.31,0,.57-.2,1.13-.42,1.69-.63.04-.01.08-.04.11-.06.33-.18.67-.36,1-.55.06-.04.13-.08.18-.13.26-.25.52-.49.73-.78.25-.33.55-.6.69-1.01.1-.28.2-.56.33-.83.14-.18.3-.32.52-.4.08-.03.16-.09.17-.19,0-.02.02-.05,0-.06-.03-.03-.07-.08-.09-.08-.07.02-.15.03-.22.05.19-.28.31-.59.35-.93.02-.13.1-.26.17-.37.08-.12.23-.12.32,0,.04.06.07.13.11.19.34.56.66,1.13,1.01,1.68.4.62.94,1.08,1.61,1.39.36.17.74.33,1.09.51.5.25,1.01.24,1.51.04.44-.18.86-.41,1.27-.65.35-.21.68-.42,1.06-.56.24-.09.46-.22.61-.44.05-.07.12-.11.18-.18.23-.26.49-.5.69-.78.37-.5.7-1.03.93-1.61.17-.42.33-.85.47-1.28.12-.37.19-.75.31-1.12.16-.52.44-1,.58-1.54.07-.29.22-.56.33-.84.08-.23.14-.47.23-.69.08-.21.19-.22.37-.08.35.28.69.55,1.04.83.05.04.1.08.14.13.32.37.77.48,1.2.64.02,0,.04,0,.06,0,.48.09,1-.06,1.45.24.02.01.04,0,.06,0,.25.08.45-.04.66-.14.37-.16.7-.38.95-.7.13-.16.26-.33.39-.49.41-.53.78-1.07,1.09-1.66.09-.17.11-.38.21-.56.14-.26.31-.5.46-.75.07-.11.15-.22.26-.36.07.07.13.12.18.17.17.17.33.35.5.52.35.35.71.69,1.04,1.06.48.53,1.05.84,1.78.83.11,0,.24.03.34.07.33.16.68.21,1.05.23,0-.07-.02-.13-.03-.21.06-.02.11-.03.15-.06.29-.25.62-.44.95-.62.19-.11.41-.23.45-.5,0-.03.05-.06.08-.09.26-.3.56-.58.77-.92.35-.55.82-.98,1.31-1.39.23-.2.47-.39.68-.61.41-.43.8-.87,1.19-1.31.65-.72,1.39-1.36,2.15-1.96.76-.61,1.51-1.22,2.21-1.9.28-.27.64-.46.83-.82.02-.04.07-.08.12-.11.29-.17.57-.37.88-.51.87-.39,1.7-.86,2.52-1.33.13-.07.25-.18.39-.2.21-.03.42,0,.63,0,.22,0,.44,0,.66-.02.11,0,.23-.01.34-.04.1-.02.22-.04.27-.11.07-.11.05-.25-.06-.34M22.48,26.56c-.01-.13-.04-.27-.03-.4.04-.51.09-1.03.15-1.54.03-.23.1-.45.17-.67.19-.57.38-1.14.57-1.7.06-.19.15-.37.23-.55.01-.03.03-.06.05-.08.26-.29.52-.57.79-.85.07-.07.17-.12.27-.16.05-.02.12-.02.18-.01.13.02.13.23.33.19.11-.02.27.04.35.12.11.1.2.25.24.39.04.18.05.38.02.57-.09.5-.13,1-.34,1.48-.33.75-.79,1.41-1.4,1.97-.31.29-.61.58-.92.87-.24.23-.42.34-.68.38M81.04,6.91c-.07.71-.14,1.43-.21,2.14-.01.1-.04.2-.08.36-.14-.48-.26-.88-.37-1.29-.03-.11-.02-.23-.03-.34-.09-.77-.2-1.54-.26-2.32-.03-.37.02-.76.07-1.13.04-.29.13-.57.19-.86.03-.14.07-.24.21-.28.16.07.17.24.21.37.05.18.09.37.13.56.04.17.09.32.26.42.05.03.09.14.08.21-.06.72-.13,1.45-.2,2.17M83.59,32.7c-.04-.34.09-.58.37-.73,0,.44-.05.55-.37.73M84.67,26.51c-.01.31-.09.52-.29.75-.39.48-.74,1.01-1.1,1.51-.09.13-.14.32-.4.32-.03-.13-.08-.27-.09-.41-.03-.47-.04-.95-.07-1.42-.03-.43-.09-.86-.12-1.3-.03-.41-.03-.82-.05-1.24,0-.16.09-.26.19-.35.31-.25.66-.41,1.04-.52.17-.05.29,0,.36.16.03.06.07.11.09.17.27.75.47,1.51.44,2.32M92.88,7.3c.03-.26.08-.52.11-.78.07-.46.04-.91-.05-1.37-.06-.3,0-.63.01-.94.03-.45.09-.9.23-1.33.09-.28.11-.61.44-.75.05-.02.1-.03.17-.04.17,1.25-.42,5-.89,5.63,0-.16-.03-.28-.02-.4"/>
          <path class="cls-2" d="M17.33,36.74c1.3.78,2.68,1.39,4.14,1.84,1.33.41,2.67.75,4.05.89.72.08,1.45.13,2.18.18.24.02.49,0,.67-.21.03-.04.09-.04.14-.07.15-.07.3-.15.45-.21.09-.03.18-.07.27-.06.33.03.65.08.97.11.31.03.62.04.99.07-.06-.08-.08-.13-.12-.15-.28-.15-.55-.32-.84-.44-.22-.09-.36-.22-.4-.47.16-.07.32-.14.48-.22.16-.07.2-.18.1-.32-.04-.06-.1-.11-.16-.15-.22-.13-.44-.24-.66-.37-.42-.24-.89-.32-1.36-.4-.79-.13-1.59-.23-2.38-.37-1.34-.24-2.64-.6-3.89-1.14-.99-.43-1.95-.9-2.87-1.48-.68-.43-1.38-.82-2.06-1.23-1.15-.69-2.24-1.47-3.22-2.41-.33-.32-.63-.68-.94-1.03-.14-.16-.16-.32-.05-.51.34-.57.67-1.15.98-1.73.46-.87.96-1.72,1.48-2.55.06-.09.12-.17.18-.26.25-.37.52-.72.73-1.11.29-.53.52-1.1.79-1.65.23-.47.32-.98.43-1.48.1-.43.14-.87.24-1.3.06-.27.04-.52-.04-.78-.09-.31-.19-.62-.28-.94-.08-.25-.12-.51-.23-.75-.3-.68-.87-1.15-1.48-1.52-1.08-.65-2.25-1.03-3.54-1.08-.8-.03-1.61-.04-2.41.05-.57.06-1.13.14-1.7.22-.59.08-1.18.15-1.76.28-.78.17-1.57.33-2.33.61-.54.2-1.07.38-1.62.55-.32.1-.61.3-.97.21-.2.14-.41.28-.61.41.03.22-.16.24-.31.33-.02.23-.04.47-.07.71-.03.29-.07.59-.11.88-.02.13-.06.27-.07.4-.05.75-.12,1.51-.13,2.27-.01,1.17,0,2.34.04,3.5.02.56.05,1.12.13,1.67.1.68.12,1.37.19,2.05.12,1.15.26,2.3.39,3.45.08.7.11,1.4.22,2.1.14.93.2,1.87.3,2.8.04.41.1.82.14,1.23.06.54.12,1.09.2,1.63.05.33.15.66.17,1,.02.48.17.91.32,1.35.1.3.26.57.38.86.3.75.86,1.26,1.49,1.73.06.04.13.08.19.11.34.15.82-.04.98-.38.06-.13.13-.33.24-.35.2-.05.29-.18.43-.3.08-.07.2-.1.3-.14.1.14.18.25.27.35.2.21.48.16.61-.1.05-.1.11-.18.14-.28.18-.49.6-.62,1.06-.66.23-.02.37-.11.49-.29.17-.24.3-.5.54-.69.15-.11.21-.29.18-.48,0-.06,0-.12,0-.16.43-.15.78-.42,1.22-.47.03,0,.05-.03.08-.05.19-.15.38-.31.58-.43.37-.22.44-.56.47-.95.03-.4-.03-.78-.1-1.17-.08-.5-.06-1.01-.08-1.51-.02-.67-.18-1.33-.09-2.02.07-.52.04-1.05.06-1.58,0-.06.03-.11.06-.2.08.08.15.13.2.19.72.76,1.46,1.5,2.26,2.18,1.04.87,2.12,1.69,3.28,2.39M11.65,19.18c-.33.85-.71,1.67-1.24,2.42-.31.43-.55.9-.82,1.35-.1.16-.2.31-.34.52-.21-.5-.38-.92-.55-1.35-.02-.05-.02-.1-.03-.16-.07-.79-.31-1.53-.66-2.23-.33-.66-.65-1.32-1.01-1.97-.15-.27-.38-.5-.58-.74-.06-.07-.12-.14-.2-.22.47-.27.98-.32,1.47-.37.5-.05,1-.07,1.51-.08.65-.01,1.3,0,1.95.11.44.07.79.47.77.97-.02.59-.05,1.18-.27,1.75"/>
          <path class="cls-2" d="M121.98,44.54c-.87.07-1.74.13-2.61.25-.74.1-1.47.27-2.2.42-1.06.21-2.08.6-3.11.89-.31.09-.62.19-.93.28-.18.05-.36.08-.54.15-.51.2-1.05.31-1.58.4-.32.05-.64.11-.96.14-.28.02-.56.04-.83,0-.46-.08-.71-.42-.81-.85-.13-.53-.12-1.07-.05-1.61.02-.21.1-.41.14-.62.07-.34.13-.69.19-1.03.02-.1.04-.22.02-.32-.04-.25-.2-.39-.48-.42-.14-.02-.27-.06-.26-.22.01-.2-.1-.33-.19-.49-.08-.13-.12-.28-.18-.42-.02-.06-.03-.12-.04-.17-.34-.04-.54-.17-.76-.46-.09-.12-.22-.16-.38-.17-.25,0-.47.1-.7.17-.83.24-1.67.44-2.48.75-.3.11-.6.23-.9.35-.25.09-.43.29-.65.43-.26.16-.53.3-.79.47-.37.24-.7.52-.95.9-.06.09-.15.21-.23.21-.13,0-.15.08-.19.15-.17.35-.34.71-.4,1.1-.1.68.04,1.28.56,1.73.34.3.73.55,1.1.82.28.2.63.19.95.28.13.04.29.04.43.02.23-.03.46-.08.68-.13.12-.02.25-.04.36-.09.28-.12.56-.24.82-.37.19-.1.37-.21.46-.43.04-.1.12-.18.22-.25.17-.12.32-.26.46-.42.07-.08.09-.23.24-.22.15,0,.13.18.2.26.02.02.02.05.03.07.16.36.32.72.59,1.01.25.28.51.56.85.73.39.2.75.49,1.21.57.05,0,.09.05.14.07.13.05.27.13.4.14.45.01.91.14,1.36,0,.03,0,.05,0,.08,0,.39.02.76-.05,1.13-.17.12-.04.24-.07.36-.1.22-.05.44-.1.66-.15.12-.03.24-.08.36-.11.18-.05.37-.09.54-.15.26-.09.51-.2.77-.3.25-.1.5-.19.75-.3.22-.1.43-.26.66-.3.25-.05.44-.21.69-.25.44-.06.82-.34,1.28-.38.15-.14.36-.14.54-.2.14-.05.28-.13.42-.17.11-.03.24,0,.34-.05.18-.1.37-.12.56-.16.32-.08.64-.16.96-.25.15-.04.3-.1.46-.13.56-.11,1.13-.19,1.68-.35.25-.07.35-.2.43-.44-.05-.02-.09-.06-.13-.06-.25-.02-.5-.07-.75-.05M104.76,44.04c-.81.68-1.57,1.43-2.44,2.04-.02.01-.05.02-.07.03-.02,0-.03,0-.05-.01-.08-.24.09-.41.2-.55.21-.26.44-.5.7-.7.27-.21.58-.37.89-.54.26-.15.54-.27.81-.4.01.01.02.02.03.03,0,0,0,.02,0,.03-.02.03-.03.06-.06.09"/>
          <path class="cls-2" d="M93.37,45.91c-.26-.2-.56-.25-.87-.32-.68-.14-1.33-.08-1.97.13-.71.23-1.39.55-2.03.93-.65.39-1.28.8-1.97,1.12-.23.1-.47.17-.71.26-.1.04-.19.01-.27-.06-.07-.07-.16-.36-.12-.46.06-.16.15-.31.19-.47.11-.39.33-.68.66-.92.28-.2.52-.45.75-.7.18-.2.37-.35.6-.48.47-.25.98-.46,1.37-.84.02-.02.06-.04.09-.06.09-.05.18-.1.27-.16.27-.19.55-.37.82-.56.19-.13.37-.28.56-.41.21-.14.39-.34.66-.41.18-.04.35-.14.53-.2.18-.06.23-.2.23-.36,0-.15-.08-.25-.21-.32-.35-.19-.69-.42-1.12-.34-.2-.09-.41.01-.61-.01-.07,0-.15.03-.23.06-.39.15-.78.32-1.18.46-.36.13-.73.21-1.08.33-.61.21-1.21.46-1.83.65-.64.2-1.22.47-1.74.89-.08.07-.18.12-.28.17-.41.2-.83.4-1.24.6-.62.31-1.24.61-1.86.93-1.04.53-2.02,1.19-3.03,1.77-.51.29-1,.6-1.53.85-.45.22-.94.36-1.46.34-.13,0-.22.03-.31.1.05.07.1.12.13.18.09.18.26.24.42.24.23,0,.47-.01.69-.07.64-.16,1.24-.41,1.81-.74.39-.23.77-.47,1.16-.7.53-.32,1.05-.65,1.59-.95.71-.4,1.44-.77,2.16-1.16.11-.06.22-.11.33-.17.02.01.04.03.05.04-.05.17-.09.34-.14.52-.11.37-.16.76-.12,1.14.05.49.2.95.57,1.3.24.23.5.44.76.64.3.23.63.39,1.02.45.42.06.84.09,1.26.05.43-.04.85-.1,1.22-.36.29-.2.6-.36.89-.55.13-.09.25-.19.38-.29.04-.03.08-.07.13-.09.22-.06.36-.23.52-.37.09-.08.17-.17.27-.22.32-.19.64-.35.96-.54.38-.22.79-.39,1.23-.43.12-.01.25.02.37,0,.4-.06.81-.13,1.21-.21.05,0,.1-.07.12-.12.01-.03-.04-.1-.08-.12"/>
          <path class="cls-2" d="M95.93,46.81c-.35-.01-.7-.04-1.06-.06-.01,0-.02.02-.05.05.19.17.39.34.56.53.17.2.39.17.59.14.18-.03.38-.13.43-.35-.13-.17-.26-.3-.48-.31"/>
        </g>
      </g>
    </g>
  </g>
</svg>