<?xml version="1.0" encoding="UTF-8"?>
<svg id="Layer_2" data-name="Layer 2" xmlns="http://www.w3.org/2000/svg" xmlns:xlink="http://www.w3.org/1999/xlink" viewBox="0 0 238.43 70.59">
  <defs>
    <style>
      .cls-1 {
        fill: none;
      }

      .cls-2 {
        fill: #231f20;
      }

      .cls-3 {
        clip-path: url(#clippath-1);
      }

      .cls-4 {
        clip-path: url(#clippath);
      }
    </style>
    <clipPath id="clippath">
      <rect class="cls-1" width="238.43" height="70.59"/>
    </clipPath>
    <clipPath id="clippath-1">
      <rect class="cls-1" width="238.43" height="70.59"/>
    </clipPath>
  </defs>
  <g id="Layer_1-2" data-name="Layer 1">
    <g id="Artwork_76" data-name="Artwork 76">
      <g class="cls-4">
        <g class="cls-3">
          <path class="cls-2" d="M91.26,12.08c0-.69-.13-1.4,0-2.07.36-1.82,1.94-2.29,3.4-2.78,2.71-.9,5.46-1.52,8.34-1.69,2.56-.14,4.99.13,7.32,1.22,3.82,1.8,5.84,6.62,3.89,10.57,1.31,1.38,2.59,2.73,3.9,4.11-.06-1.11-.12-2.34-.19-3.57-.08-1.28-.11-2.56-.27-3.83-.22-1.72-.49-3.45-.86-5.14-.47-2.16.51-3.83,2.65-4.31,1.97-.44,4.1.78,4.43,2.68.43,2.4.8,4.83,1.01,7.26.2,2.26.21,4.53.21,6.8,0,1.44-.17,2.88-.25,4.25,1.76,0,3.37.02,4.97-.04.15,0,.41-.54.39-.81-.05-.94-.25-1.87-.29-2.8-.08-1.85.89-3.05,1.92-3.48,1.87-.76,3.37-.5,4.54.99.43.55.48,1.42.6,2.17.19,1.26.24,2.54.44,3.79.14.91.42,1.8.79,2.69.03-.2.08-.41.08-.61-.14-3.79.33-7.54.81-11.29.14-1.14.37-2.33.18-3.43-.39-2.25,2.73-3.76,4.46-3.23,1.46.45,2.87,1.45,2.64,3.53-.03.23,0,.47,0,.92.71-1.06,1.28-1.97,1.91-2.82,2.07-2.79,4.82-4.3,8.34-4.37,2.4-.05,4.71.12,6.78,1.53.2.14.71-.02.99-.17,2.5-1.36,5.61.26,5.73,2.67.02.41.06.89-.11,1.24-.62,1.28-.47,2.59-.13,3.85.68,2.52-.6,3.82-2.01,4.22-1.95.55-4.18-.22-4.91-2.31-.35-1.01-1.13-1.88-1.77-2.78-.17-.24-.52-.36-.92-.62v6.07c-.11.04-.22.09-.33.13-.13-.3-.38-.59-.38-.89-.04-1.6-.08-3.2,0-4.8.05-1.08-.4-1.55-1.55-1.66,0,.46.06.9-.02,1.31-.05.25-.34.46-.52.68-.19-.22-.5-.41-.55-.66-.09-.41-.03-.86-.03-1.38-1.82.49-2.94,1.64-3.54,3.17-1.2,3.06-1.22,6.14.36,9.13,1.08,2.05,2.75,2.97,5.04,2.7,1.92-.22,3.04-1.41,3.65-3.17.41-1.17,1.05-2.18,2.38-2.32,1.54-.16,3.06-.04,4.02,1.46.61.94.61,1.99.28,3.01-1.19,3.59-3.73,5.83-7.24,7.03-.58.2-.7.49-.8,1.07-.31,1.7.85,3.02,1.06,4.56.13.93.16,1.88.17,2.82,0,.18-.29.36-.44.55-.15-.18-.41-.36-.44-.56-.09-.77,0-1.57-.18-2.31-.3-1.22-.8-2.38-1.12-3.59-.17-.64-.16-1.32-.21-1.86-2.4-.31-4.75-.62-7.1-.92.01.77-.76.52-1.29.43-.28-.04-.73-.52-.69-.73.27-1.55-1.04-1.99-1.98-3.05,0,1.03,0,1.8,0,2.57.06,4.24.14,8.49.18,12.73,0,.26-.35.51-.53.77-.19-.25-.54-.5-.54-.76-.04-2.93-.05-5.86-.02-8.78.03-2.3.13-4.61.19-6.91,0-.29.01-.65-.13-.88-1.33-2.17-2.15-4.51-2.46-7.05-.37,2.31-.57,4.62-.13,6.92.32,1.66-.05,2.85-1.18,3.55-1.46.9-3.07.85-4.34-.13-.08-.06-.16-.11-.43-.29v1.16c0,6.57.01,13.14-.02,19.71,0,.8-.23,1.6-.35,2.4-.13,0-.25,0-.38-.01-.13-1.28-.36-2.55-.37-3.83-.04-6.94-.02-13.89-.02-20.83v-.94c-.67.64-1.25,1.53-2.06,1.85-.83.33-1.89.11-2.85.13-1.9.04-3.79.06-5.69.13-1.55.06-3.1.18-4.82.28,0,.61.01,1.2,0,1.8-.02.89-.32,1.09-1.22.74v7.8h-.93c0-2.89-.02-5.75.01-8.6,0-.78-.07-1.25-1.03-1.48-1.41-.35-2.21-1.66-2.25-3.13,0-.23-.03-.45-.06-.88-1.89,2.59-4.4,3.88-7.29,4.32-3.87.59-7.73.39-11.43-1.08-1.14-.45-2.25-1.01-3.56-1.59,0,.6-.02,1.08,0,1.57.05,1.11.14,2.22.16,3.33,0,.22-.28.44-.44.65-.15-.22-.42-.43-.44-.65-.11-1.35-.13-2.7-.23-4.05-.08-1.06-.23-2.11-.43-3.16-2.48,7.01-11.07,8.77-18.02,6.13v8.43c-.34.02-.59.03-.92.04-.1-3.19.06-6.34-.09-9.48-.12,0-.24,0-.36,0-.1,1.09-.27,2.17-.28,3.26-.03,3.71-.01,7.42-.01,11.13,0,1.58.02,3.15,0,4.73,0,.52-.13,1.05-.2,1.52-.9.24-1.16-.09-1.13-.86.15-3.65.27-7.3.42-10.95.12-2.87.26-5.74.41-8.61.04-.73-.16-1.29-.63-1.92-1.34-1.79-2.14-3.87-2.42-6.1-.24-1.9-.39-3.8-.75-5.81-.12.28-.34.55-.36.83-.25,3.2-1.84,5.64-4.31,7.56-1.1.86-2.29,1.61-3.57,2.51.64.79,1.23,1.6,1.91,2.32,1.12,1.19,1.38,2.21.66,3.66-.55,1.1-.78,2.15-.48,3.39.17.68,0,1.48-.17,2.19-.06.26-.59.63-.83.58-.27-.05-.59-.5-.66-.82-.12-.56.19-1.3-.85-1.24,0-.45.09-.86-.03-1.19-.11-.3-.44-.74-.68-.74-1.43-.04-2.43-.85-3.23-1.85-2.56-3.19-4.39-6.81-5.86-10.6-.67-1.73-1.25-3.5-1.86-5.23-.88.29-1.72.56-2.66.87-.32,1.87-1.5,2.99-3.5,3.33-.26.04-.45.57-.65.89-.19.29-.32.82-.54.86-.68.12-.63-.48-.58-.9.13-.94-.31-1.46-1.15-1.75-1.67-.58-3.31-1.26-5-1.75-1.48-.43-2.12.05-2.31,1.51-.07.56-.01,1.14-.01,1.89,1.09-.27,2.04-.55,3.01-.72.95-.17,1.94-.41,2.87-.28,1.43.21,2.44,1.57,2.48,2.92.04,1.34-1.03,2.66-2.34,3.23-1.43.62-2.87,1.29-4.15,2.16-1.25.86-1.08,2.06.15,3.02,1.78,1.39,4.47.89,6.07-.39,2-1.59,2.55-3.76,2.12-6.17-.33-1.82,1.02-3.72,2.86-3.86,3.37-.26,4.07,1.29,4.23,3.82.12,1.97-.21,3.97-.34,5.95-.02.31-.02.61-.02.92,0,4.97,0,9.94,0,14.91,0,.29,0,.62-.14.87-.07.13-.55.23-.61.15-.19-.23-.36-.55-.36-.84-.02-4.32-.02-8.65-.02-12.97v-1.36c-4.58,5.97-10.22,7.68-17,5.11-.3.88-.45,1.87-.94,2.64-.76,1.18-2.04,1.53-3.39,1.31-1.24-.2-2.14-.89-2.57-2.14-.87-2.52-2.13-4.53-4.11-5.41v2.76c-1.66-.41-.59-1.72-1.14-2.46-.83.47-1.71.94-2.54,1.48-.13.08-.15.57-.04.76.57.94,1.13,1.91,1.84,2.74.82.95,1.19,2.02,1.2,3.22.02,4.87.01,9.74,0,14.6,0,.32-.16.63-.25.95-.13-.02-.25-.04-.38-.06v-13.92c-.88.37-1.58.71-2.32.97-1.29.45-2.36-.05-3.29-.92-2.23-2.07-3.51-4.77-4.64-7.5-1.32-3.2-2.39-6.5-3.62-9.92.05.58.14,1.03.12,1.48-.02.45-.16.9-.24,1.34-.15,0-.3-.01-.45-.02-.07-.76-.14-1.51-.2-2.18H1.57c.15,1.41.31,2.94.48,4.47.04.37.11.73.12,1.1.08,2.92.08,5.83.23,8.75.1,2.08.39,4.15.58,6.22.03.33,0,.67,0,1-.09.06-.19.11-.28.17-.21-.24-.57-.46-.61-.72-.19-1.47-.35-2.94-.42-4.42-.11-2.27-.09-4.54-.23-6.8-.22-3.42-.51-6.84-.82-10.26-.06-.68-.48-1.33-.57-2.01-.23-1.71.49-2.86,2.35-3.83,3.32-1.74,6.79-2.98,10.54-3.44,2.68-.32,5.31-.44,7.81.82,3.46,1.74,4.46,4.93,4.03,8.31-.14,1.06-.01,1.65.89,2.12.29.15.54.39,1,.72.2-.72.27-1.41.58-1.98.41-.74.22-1.19-.2-1.88-1.17-1.92-1.4-4.05-1.12-6.3.21-1.66.48-3.25,1.47-4.64,1.59-2.22,3.77-3.4,6.5-3.49,1.04-.03,2.09.11,3.13.12.19,0,.5-.23.57-.41.48-1.47,1.66-1.97,3.01-2.16,1.57-.23,2.87.24,3.69,1.7.05.09.14.15.1.11,2.54-1.06,4.96-2.29,7.52-3.08,2.31-.71,4.76-1.19,7.18-1.32,2.86-.16,5.87.52,8.19,2.78,1.31-.9,2.51-1.99,3.36-3.35,1.25-2.01,3.68-2.37,5.39-1.52,1.32.65,1.75,1.85,1.69,3.09-.13,2.51-.67,5-.71,7.51-.05,2.63.04,5.32,1.29,7.76.55,1.06,1.43,1.65,2.69,1.64,1.51-.01,3.03.07,4.43-.72,1-.56,1.54-1.39,1.63-2.5.28-3.33-.66-6.41-2.13-9.4,0,.86.04,1.73-.02,2.59-.02.25-.31.48-.48.71-.14-.23-.38-.45-.4-.69-.06-.57,0-1.16-.02-1.73-.06-1.59-.16-3.17-.19-4.76-.04-2.01,2.08-3.71,4.05-3.29,1.36.29,2.43.93,2.97,2.3.1.25.32.46.49.69.19.63.32,1.28.57,1.89,1.36,3.39,2.32,6.86,2.24,10.55,0,.32.03.65.06,1.21,1.06-1.25,2.29-1.57,3.61-1.43-.66-3.49-1.32-6.92-1.99-10.45-1.77.3-3.35-.19-4.5-1.76M56.88,17.87c.16,2.12.86,3.88,1.57,5.63.05.13.63.24.75.13.85-.8,1.88-1.53,2.4-2.52.66-1.24.67-2.93-1.34-3.21-1.07-.15-2.17-.03-3.38-.03M106.6,24.39v-2.06c-.5-.09-.89-.21-1.28-.2-.17,0-.49.34-.46.44.41,1.26.85,2.52,1.35,3.75.1.24.54.51.8.48,1.08-.13,2.2-.24,3.21-.6,1.11-.4,1.51-1.73.81-2.44-.91-.92-2.11-1.26-3.4-1.27q-.17,1.92-1.02,1.91M14.17,34.75c1.56-.9,2.73-1.69,3.27-3.17.5-1.37-.05-2.69-1.3-2.79-.88-.07-1.77-.05-2.65.01-.19.01-.54.4-.51.55.35,1.75.76,3.5,1.19,5.39M103.42,15.92c1.51-.43,2.72-.75,3.9-1.12.21-.06.52-.46.48-.52-.42-.69-.87-1.38-1.39-2-.1-.12-.65-.06-.82.1-.89.83-.87.85-1.35-.3h-.82v3.84Z"/>
          <path class="cls-2" d="M234.78,51.98c0,.78.05,1.5-.03,2.2-.03.26-.37.49-.57.73-.17-.23-.48-.46-.5-.7-.06-.83-.02-1.66-.02-2.5-.12-.01-.24-.02-.36-.03-.05.35-.14.69-.14,1.04,0,5.48,0,10.96-.02,16.43,0,.55.27,1.43-.6,1.44-.92.01-.5-.89-.5-1.37-.04-3.78,0-7.55-.03-11.33,0-1.21-.15-2.42-.18-3.64-.01-.5.19-1,.15-1.49-.06-.82-.22-1.64-.36-2.45-.13-.75-.4-1.5-.39-2.24.02-.79-.22-1.32-.9-1.62-2.61-1.12-5.22-2.24-7.86-3.3-.24-.09-.74.17-.97.41-.52.57-.9,1.26-1.4,1.84-.99,1.13-2.29,1.37-3.66.9-1.35-.46-2.32-1.51-2.32-2.89,0-.98.53-2.07,1.1-2.93,2.5-3.76,4.99-7.55,7.72-11.15,1.9-2.51,3.88-5.06,6.84-6.49,2.74-1.33,5.95-.31,7.09,2.8.7,1.88,1.08,3.79,1.18,5.78.12,2.56.38,5.12.37,7.68-.01,3.14-.15,6.29-.42,9.42-.16,1.85-.51,2.84-3.23,3.46M231.1,31.14l-.39-.09c-1.63,2.02-3.27,4.03-4.97,6.13,1.93.77,3.74,1.49,5.76,2.3-.14-2.86-.27-5.6-.4-8.34"/>
          <path class="cls-2" d="M190.26,39.84c0,.52.07,1.04-.03,1.51-.06.26-.4.46-.62.69-.23-.22-.6-.41-.65-.66-.1-.56.03-1.16-.06-1.73-.05-.33-.34-.63-.53-.94-.12.04-.24.08-.36.13,0,.66.05,1.33-.02,1.99-.04.35-.3.67-.46,1-.26-.28-.62-.53-.77-.86-.14-.32-.11-.74-.07-1.1.15-1.33-.14-2.47-1.1-3.49-2.07-2.19-2.86-4.9-3.24-7.84-.44-3.45.08-6.68,1.62-9.77,3.14-6.28,11.07-8.41,16.86-4.5.67.45,1.18.6,1.96.32,1.98-.71,4.64.15,5.06,2.57.12.7-.09,1.5-.33,2.19-.39,1.1-.62,2.13-.38,3.32.21,1.03.25,2.13-.52,3.09-.28.35-.36.91-.41,1.39-.07.57.06,1.17-.05,1.73-.06.32-.4.59-.61.88-.16-.28-.43-.56-.46-.86-.07-.67-.02-1.35-.02-2.03-2.49.27-3.98-.39-4.74-2.08-.47-1.03-.8-2.13-1.4-3.08-.87-1.37-2.05-2.4-3.75-2.8-1.17-.27-2.06.18-2.85.82-1.72,1.39-2.61,3.22-2.93,5.44-.26,1.86-.1,3.61.47,5.35,1.1,3.36,4.76,4.55,7.59,2.41.63-.48,1.09-1.27,1.44-2.01.8-1.67,2.55-2.3,4.83-1.35,1.42.59,2.21,2.42,1.63,3.99-1.34,3.67-4.14,5.72-7.79,6.62-2.25.55-4.55.37-6.78-.33-.12-.04-.26,0-.54,0"/>
          <path class="cls-2" d="M145.07,9.69c-.03-.33-.06-.67-.11-1.29-.77.19-1.5.38-2.23.53-.19.04-.47,0-.61-.13-.38-.31-.67-.74-1.07-1.02-1.5-1.02-1.2-2.56-1.11-3.97.22-3.45,3.33-4.89,6.21-2.94,1.33.9,1.4,2.25,1.18,3.61-.2,1.2-.05,2.57-1.3,3.44-.2.14.01.8-.11,1.17-.09.29-.4.52-.61.77-.08-.06-.17-.12-.25-.18"/>
          <path class="cls-2" d="M210.58,43.31c-1.39.79-2.69,1.14-4.1.38-1.57-.84-2.26-2.56-1.61-4.18.56-1.39,2.42-2.23,3.97-1.79,1.7.48,2.66,1.71,2.66,3.45,0,4.29.01,8.58-.02,12.86,0,.33-.27.93-.42.93-.65,0-.48-.57-.48-.98,0-3.17,0-6.33,0-9.5v-1.19Z"/>
        </g>
      </g>
    </g>
  </g>
</svg>